<svg width="44" height="57" viewBox="0 0 44 57" fill="none" xmlns="http://www.w3.org/2000/svg">
<path d="M32.7934 28.5035C32.4752 28.5035 32.1701 28.6299 31.9451 28.8548C31.7201 29.0798 31.5937 29.385 31.5937 29.7031V36.901C31.5937 37.2192 31.4673 37.5243 31.2424 37.7493C31.0174 37.9743 30.7123 38.1007 30.3941 38.1007H13.599C13.2808 38.1007 12.9757 37.9743 12.7507 37.7493C12.5257 37.5243 12.3993 37.2192 12.3993 36.901V20.1059C12.3993 19.7877 12.5257 19.4826 12.7507 19.2576C12.9757 19.0327 13.2808 18.9063 13.599 18.9063H20.7969C21.115 18.9063 21.4202 18.7799 21.6452 18.5549C21.8701 18.3299 21.9965 18.0248 21.9965 17.7066C21.9965 17.3884 21.8701 17.0833 21.6452 16.8583C21.4202 16.6333 21.115 16.507 20.7969 16.507H13.599C12.6445 16.507 11.729 16.8861 11.0541 17.5611C10.3792 18.236 10 19.1514 10 20.1059V36.901C10 37.8555 10.3792 38.771 11.0541 39.4459C11.729 40.1208 12.6445 40.5 13.599 40.5H30.3941C31.3486 40.5 32.264 40.1208 32.9389 39.4459C33.6139 38.771 33.993 37.8555 33.993 36.901V29.7031C33.993 29.385 33.8667 29.0798 33.6417 28.8548C33.4167 28.6299 33.1116 28.5035 32.7934 28.5035ZM14.7986 29.4152V34.5017C14.7986 34.8199 14.925 35.125 15.15 35.35C15.375 35.575 15.6801 35.7014 15.9983 35.7014H21.0848C21.2427 35.7023 21.3992 35.672 21.5453 35.6123C21.6915 35.5526 21.8244 35.4647 21.9365 35.3535L30.2381 27.0399L33.6451 23.7049C33.7576 23.5933 33.8468 23.4607 33.9077 23.3145C33.9686 23.1683 34 23.0115 34 22.8531C34 22.6947 33.9686 22.5379 33.9077 22.3918C33.8468 22.2456 33.7576 22.1129 33.6451 22.0014L28.5586 16.8549C28.4471 16.7424 28.3144 16.6532 28.1682 16.5923C28.022 16.5314 27.8652 16.5 27.7069 16.5C27.5485 16.5 27.3917 16.5314 27.2455 16.5923C27.0993 16.6532 26.9666 16.7424 26.8551 16.8549L23.4721 20.2499L15.1465 28.5635C15.0353 28.6756 14.9474 28.8085 14.8877 28.9547C14.828 29.1008 14.7977 29.2573 14.7986 29.4152ZM27.7069 19.3981L31.1019 22.7931L29.3984 24.4966L26.0034 21.1016L27.7069 19.3981ZM17.1979 29.9071L24.3119 22.7931L27.7069 26.1881L20.5929 33.3021H17.1979V29.9071Z" fill="black" fill-opacity="0.6"/>
</svg>
