<svg width="200" height="200" viewBox="0 0 200 200" fill="none" xmlns="http://www.w3.org/2000/svg">
<path d="M182.672 57.1039C181.664 56.3439 180.192 56.2559 179.104 56.8959C177.656 53.9719 173.628 52.6839 170.752 54.2239C170 51.0719 166.9 48.6519 163.66 48.6919C160.424 48.7319 157.376 51.2279 156.704 54.3919C156.596 54.8959 156.528 55.4479 156.164 55.8159C155.58 56.4119 154.604 56.2119 153.768 56.1479C151.144 55.9439 148.508 57.7839 147.796 60.3159L183.908 60.1839C184.224 58.9599 183.68 57.8679 182.672 57.1079V57.1039Z" fill="#E0E0E0"/>
<path d="M51.5879 172.02C50.5799 171.26 49.1079 171.172 48.0199 171.812C46.5719 168.888 42.5439 167.6 39.6679 169.14C38.9159 165.988 35.8159 163.568 32.5759 163.608C29.3359 163.648 26.2919 166.144 25.6199 169.308C25.5119 169.812 25.4439 170.364 25.0799 170.732C24.4959 171.328 23.5199 171.128 22.6839 171.064C20.0599 170.86 17.4239 172.7 16.7119 175.232L52.8239 175.1C53.1399 173.876 52.5959 172.784 51.5879 172.024V172.02Z" fill="#E0E0E0"/>
<path d="M107.344 159.52C106.84 159.14 106.104 159.096 105.56 159.416C104.836 157.956 102.82 157.308 101.384 158.08C101.008 156.504 99.4562 155.296 97.8402 155.312C96.2202 155.332 94.7002 156.58 94.3602 158.164C94.3082 158.416 94.2722 158.692 94.0922 158.876C93.8002 159.176 93.3122 159.076 92.8962 159.04C91.5842 158.936 90.2642 159.86 89.9082 161.124L107.964 161.06C108.124 160.448 107.848 159.9 107.348 159.52H107.344Z" fill="#E0E0E0"/>
<path d="M44.8676 132.564C44.3636 132.184 43.6276 132.14 43.0836 132.46C42.3596 131 40.3436 130.352 38.9076 131.124C38.5316 129.548 36.9796 128.34 35.3636 128.356C33.7436 128.376 32.2236 129.624 31.8836 131.208C31.8316 131.46 31.7956 131.736 31.6156 131.92C31.3236 132.22 30.8356 132.12 30.4196 132.084C29.1076 131.98 27.7876 132.904 27.4316 134.168L45.4876 134.104C45.6476 133.492 45.3716 132.944 44.8716 132.564H44.8676Z" fill="#F0F0F0"/>
<path d="M184.52 110.472C184.016 110.092 183.28 110.048 182.736 110.368C182.012 108.908 179.996 108.26 178.56 109.032C178.184 107.456 176.632 106.248 175.016 106.264C173.396 106.284 171.876 107.532 171.536 109.116C171.484 109.368 171.448 109.644 171.268 109.828C170.976 110.128 170.488 110.028 170.072 109.992C168.76 109.888 167.44 110.812 167.084 112.076L185.14 112.012C185.3 111.4 185.024 110.852 184.524 110.472H184.52Z" fill="#F0F0F0"/>
<path d="M129.128 35.0041C128.624 34.6241 127.888 34.5801 127.344 34.9001C126.62 33.4401 124.604 32.7921 123.168 33.5641C122.792 31.9881 121.24 30.7801 119.624 30.7961C118.004 30.8161 116.484 32.0641 116.144 33.6481C116.092 33.9001 116.056 34.1761 115.876 34.3601C115.584 34.6601 115.096 34.5601 114.68 34.5241C113.368 34.4201 112.048 35.3441 111.692 36.6081L129.748 36.5441C129.908 35.9321 129.632 35.3841 129.132 35.0041H129.128Z" fill="#F0F0F0"/>
<path d="M52.2475 65.2755C51.7435 64.8955 51.0075 64.8515 50.4635 65.1715C49.7395 63.7115 47.7235 63.0635 46.2875 63.8355C45.9115 62.2595 44.3595 61.0515 42.7435 61.0675C41.1235 61.0875 39.6035 62.3355 39.2635 63.9195C39.2115 64.1715 39.1755 64.4475 38.9955 64.6315C38.7035 64.9315 38.2155 64.8315 37.7995 64.7955C36.4875 64.6915 35.1675 65.6155 34.8115 66.8795L52.8675 66.8155C53.0275 66.2035 52.7515 65.6555 52.2515 65.2755H52.2475Z" fill="#F0F0F0"/>
<path d="M169.96 22.7794C169.456 22.3994 168.72 22.3554 168.176 22.6754C167.452 21.2154 165.436 20.5674 164 21.3394C163.624 19.7634 162.072 18.5554 160.456 18.5714C158.836 18.5914 157.316 19.8394 156.976 21.4234C156.924 21.6754 156.888 21.9514 156.708 22.1354C156.416 22.4354 155.928 22.3354 155.512 22.2994C154.2 22.1954 152.88 23.1194 152.524 24.3834L170.58 24.3194C170.74 23.7074 170.464 23.1594 169.964 22.7794H169.96Z" fill="#F0F0F0"/>
<path d="M177.568 144.888H105.268C103.976 144.888 102.924 143.836 102.924 142.544V37.2317C102.924 35.9397 103.976 34.8877 105.268 34.8877H177.568C178.86 34.8877 179.912 35.9397 179.912 37.2317V142.544C179.912 143.836 178.86 144.888 177.568 144.888ZM105.268 34.9877C104.032 34.9877 103.024 35.9957 103.024 37.2317V142.544C103.024 143.78 104.032 144.788 105.268 144.788H177.568C178.804 144.788 179.812 143.78 179.812 142.544V37.2317C179.812 35.9957 178.804 34.9877 177.568 34.9877H105.268Z" fill="#E0E0E0"/>
<path d="M94.1957 144.888H21.8997C20.6077 144.888 19.5557 143.836 19.5557 142.544V37.2317C19.5557 35.9397 20.6077 34.8877 21.8997 34.8877H94.1957C95.4877 34.8877 96.5397 35.9397 96.5397 37.2317V142.544C96.5397 143.836 95.4877 144.888 94.1957 144.888ZM21.8997 34.9877C20.6637 34.9877 19.6557 35.9957 19.6557 37.2317V142.544C19.6557 143.78 20.6637 144.788 21.8997 144.788H94.1957C95.4317 144.788 96.4397 143.78 96.4397 142.544V37.2317C96.4397 35.9957 95.4317 34.9877 94.1957 34.9877H21.8997Z" fill="#E0E0E0"/>
<path d="M200 169.315H0V169.415H200V169.315Z" fill="#E0E0E0"/>
<path d="M27.092 175.02H20.668V175.12H27.092V175.02Z" fill="#E0E0E0"/>
<path d="M89.5516 173.936H68.1396V174.036H89.5516V173.936Z" fill="#E0E0E0"/>
<path d="M41.9922 178.735H27.4922V178.835H41.9922V178.735Z" fill="#E0E0E0"/>
<path d="M168.616 173.884H151.34V173.984H168.616V173.884Z" fill="#E0E0E0"/>
<path d="M174.712 173.884H172.18V173.984H174.712V173.884Z" fill="#E0E0E0"/>
<path d="M148.04 176.376H126.484V176.476H148.04V176.376Z" fill="#E0E0E0"/>
<path d="M43.7156 34.1037C42.7916 32.5397 41.7556 30.9877 40.2836 29.9197C38.0876 28.3237 35.2396 28.0237 32.5476 27.6917C26.6916 26.9757 20.8796 25.8757 15.1636 24.4077C14.0556 24.1237 13.1596 25.3197 13.7356 26.3077C14.3756 27.4077 15.0876 28.4597 15.9516 29.3917C17.4996 31.0637 19.6276 32.3317 21.9036 32.3397C21.0956 32.5197 20.2396 32.7237 19.7356 33.4557C19.4796 33.8277 19.4116 34.3077 19.6116 34.7117C19.9436 35.3797 20.7636 35.4317 21.4636 35.4237L25.6036 35.3797C24.6076 35.7717 24.0956 37.0277 24.4196 38.0477C24.7436 39.0677 25.7796 39.7797 26.8476 39.8437C27.7876 39.8997 28.7236 39.5037 29.4156 38.8597C28.9516 39.4837 29.0476 40.4877 29.5996 41.0717C30.2436 41.7517 31.3076 41.8997 32.2076 41.6477C33.1076 41.3957 33.8716 40.7917 34.5436 40.1437C35.0916 41.0277 36.1436 41.5757 37.1836 41.5197C38.2236 41.4637 39.2076 40.8037 39.6556 39.8637C40.3156 41.3917 42.5476 41.9517 43.8516 40.9117C44.9356 42.2397 46.0196 43.5717 47.1036 44.8997L47.4836 41.8077C46.4316 39.1437 45.1716 36.5677 43.7156 34.1037Z" fill="#EBEBEB"/>
<path d="M76.5957 28.9715C77.2797 27.2875 78.0757 25.5995 79.3717 24.3235C81.3077 22.4195 84.0797 21.6995 86.6957 20.9755C92.3837 19.3995 97.9677 17.4515 103.404 15.1515C104.46 14.7075 105.52 15.7555 105.1 16.8195C104.628 18.0035 104.08 19.1475 103.364 20.1995C102.08 22.0795 100.164 23.6515 97.9157 23.9955C98.7437 24.0555 99.6197 24.1315 100.228 24.7795C100.536 25.1075 100.676 25.5755 100.536 26.0035C100.308 26.7155 99.5037 26.8835 98.8117 26.9795C97.4437 27.1675 96.0757 27.3595 94.7117 27.5475C95.7557 27.7915 96.4437 28.9515 96.2757 30.0075C96.1077 31.0635 95.1877 31.9195 94.1397 32.1435C93.2157 32.3395 92.2357 32.0835 91.4517 31.5515C91.9997 32.0995 92.0597 33.1075 91.5957 33.7675C91.0597 34.5355 90.0317 34.8395 89.1037 34.7195C88.1757 34.5995 87.3317 34.1195 86.5717 33.5795C86.1597 34.5355 85.1997 35.2315 84.1637 35.3315C83.1277 35.4275 82.0557 34.9235 81.4717 34.0595C81.0437 35.6715 78.9197 36.5515 77.4757 35.7195C76.5997 37.1955 75.7237 38.6715 74.8477 40.1475L74.0117 37.1475C74.6557 34.3595 75.5197 31.6235 76.5957 28.9715Z" fill="#EBEBEB"/>
<path d="M75.5185 41.2016C76.9787 32.5224 71.1265 24.3027 62.4473 22.8425C53.7681 21.3823 45.5484 27.2345 44.0882 35.9138C42.6281 44.593 48.4802 52.8126 57.1595 54.2728C65.8387 55.733 74.0584 49.8808 75.5185 41.2016Z" fill="#E0E0E0"/>
<path d="M76.0556 36.6539C76.9695 27.9002 70.6141 20.0632 61.8604 19.1493C53.1068 18.2354 45.2697 24.5908 44.3559 33.3445C43.442 42.0981 49.7974 49.9352 58.551 50.849C67.3047 51.7629 75.1417 45.4075 76.0556 36.6539Z" fill="#EBEBEB"/>
<path d="M70.5535 45.3443C76.2692 39.6286 76.2692 30.3616 70.5535 24.6459C64.8378 18.9302 55.5708 18.9302 49.8551 24.6459C44.1394 30.3616 44.1394 39.6286 49.8551 45.3443C55.5708 51.06 64.8378 51.06 70.5535 45.3443Z" fill="#FAFAFA"/>
<path d="M58.2799 22.0957L58.4879 23.8317L58.1639 23.8717L57.9879 22.4077L57.6199 22.4517L57.5879 22.1797L58.2759 22.0957H58.2799Z" fill="#E0E0E0"/>
<path d="M60.0603 23.3679L60.0923 23.6399L58.8123 23.7919L58.7883 23.5759L59.4003 22.8399C59.4683 22.7559 59.5123 22.6839 59.5363 22.6279C59.5563 22.5679 59.5643 22.5119 59.5563 22.4599C59.5483 22.3799 59.5123 22.3199 59.4523 22.2839C59.3923 22.2479 59.3083 22.2359 59.2043 22.2479C59.0283 22.2679 58.9003 22.3479 58.8203 22.4799L58.5723 22.3319C58.6283 22.2319 58.7123 22.1519 58.8203 22.0879C58.9283 22.0239 59.0563 21.9839 59.1963 21.9679C59.3843 21.9439 59.5403 21.9679 59.6643 22.0479C59.7883 22.1239 59.8563 22.2399 59.8763 22.3919C59.8883 22.4879 59.8763 22.5759 59.8483 22.6639C59.8203 22.7519 59.7523 22.8559 59.6563 22.9759L59.2443 23.4719L60.0603 23.3719V23.3679Z" fill="#E0E0E0"/>
<path d="M61.7596 46.8033C61.8556 46.8353 61.9356 46.8913 61.9956 46.9633C62.0556 47.0393 62.0916 47.1273 62.1076 47.2353C62.1196 47.3473 62.1076 47.4513 62.0596 47.5433C62.0116 47.6353 61.9436 47.7113 61.8556 47.7673C61.7636 47.8233 61.6596 47.8593 61.5436 47.8753C61.3076 47.9033 61.1116 47.8513 60.9636 47.7193C60.8156 47.5873 60.7236 47.3793 60.6876 47.1033C60.6636 46.9073 60.6796 46.7393 60.7356 46.5913C60.7916 46.4433 60.8756 46.3273 60.9956 46.2393C61.1156 46.1513 61.2596 46.0993 61.4276 46.0793C61.5156 46.0673 61.5996 46.0673 61.6836 46.0793C61.7636 46.0873 61.8356 46.1073 61.8996 46.1393L61.8116 46.3953C61.7196 46.3513 61.6076 46.3353 61.4716 46.3513C61.3036 46.3713 61.1796 46.4393 61.0996 46.5513C61.0196 46.6633 60.9876 46.8193 61.0116 47.0113C61.0556 46.9473 61.1156 46.8953 61.1916 46.8553C61.2676 46.8153 61.3556 46.7913 61.4556 46.7753C61.5716 46.7633 61.6756 46.7713 61.7716 46.8033H61.7596ZM61.7276 47.5153C61.7836 47.4553 61.8076 47.3793 61.7956 47.2913C61.7836 47.1993 61.7436 47.1313 61.6756 47.0873C61.6076 47.0433 61.5196 47.0273 61.4116 47.0393C61.3076 47.0513 61.2276 47.0913 61.1676 47.1553C61.1076 47.2193 61.0836 47.2953 61.0956 47.3793C61.1076 47.4633 61.1476 47.5313 61.2156 47.5793C61.2876 47.6273 61.3756 47.6433 61.4876 47.6313C61.5876 47.6193 61.6676 47.5833 61.7236 47.5193L61.7276 47.5153Z" fill="#E0E0E0"/>
<path d="M65.0191 23.416L65.2271 25.152L64.9031 25.192L64.7271 23.728L64.3591 23.772L64.3271 23.5L65.0151 23.416H65.0191Z" fill="#E0E0E0"/>
<path d="M67.6834 44.3592C67.8114 44.4392 67.8874 44.5632 67.9074 44.7272C67.9194 44.8312 67.9074 44.9272 67.8634 45.0192C67.8234 45.1112 67.7554 45.1872 67.6554 45.2472C67.5594 45.3112 67.4354 45.3472 67.2834 45.3672C67.1594 45.3832 67.0394 45.3792 66.9194 45.3592C66.7994 45.3392 66.6954 45.2992 66.6074 45.2472L66.7154 44.9792C66.7874 45.0232 66.8674 45.0552 66.9634 45.0752C67.0594 45.0952 67.1514 45.0992 67.2474 45.0872C67.3594 45.0752 67.4474 45.0392 67.5074 44.9832C67.5674 44.9272 67.5914 44.8592 67.5834 44.7752C67.5714 44.6872 67.5314 44.6232 67.4554 44.5872C67.3794 44.5512 67.2554 44.5432 67.0874 44.5632L66.6674 44.6152L66.6434 43.6592L67.6634 43.5352L67.6954 43.8072L66.9514 43.8952L66.9634 44.2992L67.1274 44.2792C67.3714 44.2512 67.5594 44.2792 67.6874 44.3552L67.6834 44.3592Z" fill="#E0E0E0"/>
<path d="M52.6959 24.8994L52.9039 26.6354L52.5799 26.6754L52.4039 25.2114L52.0359 25.2554L52.0039 24.9834L52.6919 24.8994H52.6959Z" fill="#E0E0E0"/>
<path d="M53.6402 24.7832L53.8482 26.5192L53.5242 26.5592L53.3482 25.0952L52.9802 25.1392L52.9482 24.8672L53.6362 24.7832H53.6402Z" fill="#E0E0E0"/>
<path d="M55.1197 45.0439L55.3277 46.7799L55.0037 46.8199L54.8277 45.3559L54.4597 45.3999L54.4277 45.1279L55.1157 45.0439H55.1197Z" fill="#E0E0E0"/>
<path d="M56.0641 44.9316L56.2721 46.6676L55.9481 46.7076L55.7721 45.2436L55.4041 45.2876L55.3721 45.0156L56.0601 44.9316H56.0641Z" fill="#E0E0E0"/>
<path d="M70.0232 28.1277L70.0552 28.3997L68.7753 28.5517L68.7513 28.3357L69.3633 27.5997C69.4313 27.5157 69.4753 27.4437 69.4953 27.3877C69.5153 27.3277 69.5232 27.2717 69.5152 27.2197C69.5072 27.1397 69.4712 27.0797 69.4112 27.0437C69.3512 27.0077 69.2673 26.9957 69.1633 27.0077C68.9873 27.0277 68.8592 27.1077 68.7792 27.2397L68.5312 27.0917C68.5872 26.9917 68.6712 26.9117 68.7792 26.8477C68.8872 26.7837 69.0152 26.7437 69.1552 26.7237C69.3432 26.6997 69.4992 26.7237 69.6232 26.8037C69.7472 26.8797 69.8152 26.9957 69.8352 27.1477C69.8472 27.2397 69.8353 27.3317 69.8073 27.4197C69.7793 27.5077 69.7112 27.6117 69.6112 27.7317L69.1992 28.2277L70.0152 28.1277H70.0232Z" fill="#E0E0E0"/>
<path d="M71.7953 39.9474L71.4873 39.9834L71.5353 40.3794L71.2233 40.4154L71.1753 40.0194L70.2233 40.1354L70.1953 39.9114L70.9153 38.6914L71.2593 38.6514L70.5833 39.8154L71.1513 39.7474L71.1073 39.3994L71.4113 39.3634L71.4553 39.7114L71.7633 39.6754L71.7953 39.9474Z" fill="#E0E0E0"/>
<path d="M49.2477 29.1436L49.4557 30.8796L49.1317 30.9196L48.9557 29.4556L48.5877 29.4996L48.5557 29.2276L49.2437 29.1436H49.2477Z" fill="#E0E0E0"/>
<path d="M50.1437 30.7152C50.0277 30.6592 49.9277 30.5672 49.8477 30.4392C49.7677 30.3112 49.7197 30.1552 49.6957 29.9712C49.6717 29.7872 49.6877 29.6232 49.7317 29.4792C49.7797 29.3392 49.8517 29.2232 49.9517 29.1432C50.0517 29.0592 50.1717 29.0112 50.3117 28.9912C50.4517 28.9752 50.5797 28.9912 50.6957 29.0512C50.8157 29.1072 50.9117 29.1992 50.9917 29.3272C51.0717 29.4552 51.1197 29.6112 51.1437 29.7952C51.1677 29.9792 51.1557 30.1432 51.1077 30.2872C51.0597 30.4272 50.9877 30.5432 50.8837 30.6232C50.7837 30.7072 50.6637 30.7552 50.5237 30.7752C50.3837 30.7912 50.2557 30.7752 50.1397 30.7152H50.1437ZM50.7677 30.3072C50.8277 30.1952 50.8437 30.0392 50.8197 29.8352C50.7957 29.6312 50.7397 29.4832 50.6557 29.3872C50.5717 29.2952 50.4677 29.2552 50.3437 29.2672C50.2197 29.2832 50.1317 29.3432 50.0717 29.4552C50.0117 29.5672 49.9957 29.7232 50.0197 29.9272C50.0437 30.1312 50.0997 30.2792 50.1837 30.3712C50.2677 30.4632 50.3717 30.5032 50.4917 30.4912C50.6157 30.4752 50.7077 30.4152 50.7677 30.3032V30.3072Z" fill="#E0E0E0"/>
<path d="M51.5432 42.0039C51.5992 42.0679 51.6352 42.1479 51.6472 42.2399C51.6592 42.3439 51.6432 42.4399 51.5912 42.5279C51.5432 42.6159 51.4672 42.6839 51.3632 42.7399C51.2592 42.7959 51.1392 42.8319 50.9952 42.8479C50.8552 42.8639 50.7272 42.8599 50.6152 42.8279C50.5032 42.7999 50.4152 42.7479 50.3472 42.6759C50.2792 42.6039 50.2392 42.5159 50.2272 42.4079C50.2152 42.3119 50.2272 42.2279 50.2712 42.1519C50.3112 42.0759 50.3712 42.0119 50.4552 41.9599C50.3832 41.9319 50.3232 41.8879 50.2792 41.8279C50.2352 41.7719 50.2072 41.6999 50.1992 41.6199C50.1872 41.5239 50.2032 41.4359 50.2472 41.3559C50.2912 41.2759 50.3592 41.2119 50.4552 41.1599C50.5472 41.1079 50.6592 41.0759 50.7832 41.0599C50.9112 41.0439 51.0272 41.0519 51.1312 41.0799C51.2352 41.1079 51.3152 41.1559 51.3792 41.2199C51.4432 41.2879 51.4792 41.3679 51.4912 41.4639C51.4992 41.5439 51.4912 41.6159 51.4592 41.6839C51.4272 41.7479 51.3792 41.8079 51.3152 41.8559C51.4112 41.8879 51.4872 41.9319 51.5432 41.9959V42.0039ZM50.5832 41.4119C50.5312 41.4599 50.5072 41.5239 50.5152 41.6039C50.5232 41.6799 50.5592 41.7319 50.6232 41.7719C50.6872 41.8079 50.7712 41.8199 50.8712 41.8079C50.9752 41.7959 51.0512 41.7639 51.1072 41.7119C51.1632 41.6599 51.1832 41.5959 51.1752 41.5239C51.1672 41.4439 51.1272 41.3879 51.0632 41.3519C50.9992 41.3159 50.9152 41.3039 50.8152 41.3159C50.7152 41.3279 50.6392 41.3599 50.5832 41.4079V41.4119ZM51.2432 42.4879C51.3072 42.4319 51.3312 42.3559 51.3232 42.2719C51.3112 42.1879 51.2712 42.1239 51.1952 42.0799C51.1192 42.0399 51.0232 42.0239 50.9032 42.0399C50.7832 42.0559 50.6952 42.0919 50.6312 42.1479C50.5712 42.2039 50.5432 42.2759 50.5552 42.3639C50.5672 42.4519 50.6072 42.5159 50.6832 42.5559C50.7552 42.5959 50.8552 42.6119 50.9712 42.5959C51.0912 42.5799 51.1792 42.5439 51.2432 42.4879Z" fill="#E0E0E0"/>
<path d="M72.196 33.3919C72.292 33.4719 72.348 33.5759 72.364 33.7119C72.376 33.8119 72.364 33.9079 72.32 33.9959C72.28 34.0839 72.208 34.1599 72.112 34.2199C72.016 34.2799 71.892 34.3199 71.744 34.3399C71.62 34.3559 71.5 34.3519 71.38 34.3319C71.26 34.3079 71.156 34.2719 71.068 34.2199L71.176 33.9519C71.244 33.9959 71.328 34.0319 71.42 34.0519C71.512 34.0719 71.608 34.0759 71.704 34.0639C71.82 34.0519 71.904 34.0159 71.964 33.9599C72.024 33.9039 72.048 33.8359 72.04 33.7559C72.032 33.6759 71.992 33.6159 71.924 33.5759C71.856 33.5399 71.76 33.5279 71.632 33.5399L71.472 33.5599L71.444 33.3399L71.78 32.8239L70.992 32.9199L70.96 32.6479L72.144 32.5039L72.168 32.7199L71.808 33.2719C71.972 33.2719 72.1 33.3119 72.196 33.3919Z" fill="#E0E0E0"/>
<path d="M48.8157 35.5159C48.9637 35.6479 49.0557 35.8559 49.0877 36.1319C49.1117 36.3279 49.0957 36.4959 49.0397 36.6439C48.9837 36.7919 48.8997 36.9079 48.7797 36.9959C48.6597 37.0839 48.5157 37.1359 48.3477 37.1559C48.2597 37.1679 48.1717 37.1679 48.0917 37.1559C48.0117 37.1479 47.9397 37.1279 47.8757 37.0959L47.9637 36.8399C48.0557 36.8839 48.1717 36.8999 48.3037 36.8839C48.4717 36.8639 48.5957 36.7959 48.6757 36.6839C48.7597 36.5719 48.7877 36.4159 48.7637 36.2239C48.7197 36.2879 48.6597 36.3399 48.5837 36.3799C48.5077 36.4199 48.4197 36.4479 48.3197 36.4599C48.2077 36.4719 48.0997 36.4599 48.0037 36.4319C47.9077 36.3999 47.8277 36.3439 47.7677 36.2719C47.7077 36.1959 47.6677 36.1079 47.6557 35.9999C47.6437 35.8879 47.6557 35.7839 47.7037 35.6919C47.7477 35.5999 47.8197 35.5239 47.9077 35.4679C47.9997 35.4119 48.1037 35.3759 48.2197 35.3599C48.4557 35.3319 48.6517 35.3839 48.7997 35.5159H48.8157ZM48.6037 36.0839C48.6637 36.0199 48.6877 35.9439 48.6757 35.8599C48.6677 35.7759 48.6237 35.7079 48.5557 35.6639C48.4837 35.6159 48.3957 35.5999 48.2797 35.6119C48.1797 35.6239 48.0997 35.6599 48.0437 35.7199C47.9877 35.7799 47.9637 35.8559 47.9757 35.9439C47.9877 36.0359 48.0277 36.1039 48.0957 36.1479C48.1637 36.1919 48.2517 36.2119 48.3597 36.1959C48.4637 36.1839 48.5437 36.1439 48.6037 36.0799V36.0839Z" fill="#E0E0E0"/>
<path d="M59.9 35.0639L59.084 25.5999L59.532 25.5479L61.196 34.9079L59.9 35.0639Z" fill="#E0E0E0"/>
<path d="M60.0599 35.6879L55.1279 31.8319L55.3879 31.4639L60.8079 34.6199L60.0599 35.6879Z" fill="#E0E0E0"/>
<path d="M57.8398 37.3593L67.4198 30.2793L58.0958 37.6473L57.8398 37.3593Z" fill="#E6E6E6"/>
<path d="M61.912 34.8235C62.004 35.5755 61.464 36.2595 60.712 36.3515C59.96 36.4435 59.276 35.9035 59.184 35.1515C59.092 34.3995 59.632 33.7155 60.384 33.6235C61.136 33.5315 61.82 34.0715 61.912 34.8235Z" fill="#E0E0E0"/>
<path d="M51.0594 50.1115C51.0594 50.1115 49.0954 55.3155 49.9674 55.2835C50.8394 55.2515 53.4074 51.4155 53.4074 51.4155C53.4074 51.4155 52.8794 49.7355 51.0594 50.1115Z" fill="#EBEBEB"/>
<path d="M72.5199 47.0479C72.5199 47.0479 75.6639 51.6399 74.8079 51.8119C73.9559 51.9879 70.5479 48.8719 70.5479 48.8719C70.5479 48.8719 70.6599 47.1159 72.5199 47.0479Z" fill="#EBEBEB"/>
<path d="M42.1591 28.808C42.2391 28.684 51.8391 17.632 51.8391 17.632C51.8391 17.632 47.2831 14.556 43.0231 19.944C38.7671 25.332 42.1551 28.808 42.1551 28.808H42.1591Z" fill="#F0F0F0"/>
<path d="M51.8395 17.6357C52.3315 18.0557 50.4355 20.8277 47.7835 23.9157C45.1315 27.0037 42.5835 29.1677 42.0955 28.7477C41.6035 28.3277 43.3555 25.4797 46.0075 22.3917C48.6595 19.3037 51.3515 17.2157 51.8435 17.6357H51.8395Z" fill="#E0E0E0"/>
<path d="M45.068 19.978L43.6406 21.6416L47.8937 25.2908L49.321 23.6272L45.068 19.978Z" fill="#F0F0F0"/>
<path d="M45.0599 19.8951C45.1639 20.7551 44.5519 21.5311 43.6919 21.6351C42.8319 21.7391 42.0559 21.1271 41.9519 20.2671C41.8479 19.4071 42.4599 18.6311 43.3199 18.5271C44.1799 18.4231 44.9559 19.0351 45.0599 19.8951Z" fill="#F0F0F0"/>
<g opacity="0.4">
<path d="M43.036 20.0919L42.256 21.0239C42.152 21.1919 40.356 24.5199 42.508 27.1919C43.08 26.1799 43.776 25.1719 44.556 24.1639C43.528 23.5239 42.292 22.2599 43.036 20.0879V20.0919Z" fill="white"/>
</g>
<path d="M45.3799 23.1355L46.8159 21.4795L47.2239 21.8275L45.8839 23.5675L45.3799 23.1355Z" fill="#E0E0E0"/>
<path d="M42.2557 21.0235L44.2037 18.6795L44.0157 18.6035L42.1357 20.8315L42.2557 21.0235Z" fill="#E0E0E0"/>
<path d="M61.2637 15.9841C61.4037 16.0241 74.7717 22.0001 74.7717 22.0001C74.7717 22.0001 76.3917 16.7441 69.9997 14.2361C63.6077 11.7281 61.2677 15.9801 61.2677 15.9801L61.2637 15.9841Z" fill="#F0F0F0"/>
<path d="M74.7678 22.0033C74.5078 22.5953 71.3078 21.5833 67.5798 19.9473C63.8518 18.3073 61.0438 16.4993 61.3038 15.9073C61.5638 15.3153 64.7958 16.1633 68.5238 17.8033C72.2518 19.4433 75.0278 21.4113 74.7678 22.0033Z" fill="#E0E0E0"/>
<path d="M70.5573 16.2018L68.5508 15.3193L66.2947 20.4491L68.3012 21.3316L70.5573 16.2018Z" fill="#F0F0F0"/>
<path d="M70.6352 16.1716C69.8432 16.5196 68.9192 16.1596 68.5712 15.3676C68.2232 14.5756 68.5832 13.6516 69.3752 13.3036C70.1672 12.9556 71.0912 13.3156 71.4392 14.1076C71.7872 14.8996 71.4272 15.8236 70.6352 16.1716Z" fill="#F0F0F0"/>
<g opacity="0.4">
<path d="M69.8592 14.2917L68.7392 13.8157C68.5472 13.7637 64.8432 13.0157 62.9072 15.8477C64.0392 16.0997 65.2072 16.4757 66.3992 16.9277C66.7152 15.7597 67.5632 14.2077 69.8552 14.2877L69.8592 14.2917Z" fill="white"/>
</g>
<path d="M67.6274 17.416L69.6314 18.312L69.4154 18.804L67.3594 18.024L67.6274 17.416Z" fill="#E0E0E0"/>
<path d="M68.7393 13.8156L71.5473 14.9996L71.5673 14.7956L68.8873 13.6436L68.7393 13.8156Z" fill="#E0E0E0"/>
<path d="M47.6959 25.1234C47.6959 25.1234 48.7639 23.9194 49.1839 23.5074L49.0119 23.3594L47.5439 24.9914L47.6959 25.1234Z" fill="#E0E0E0"/>
<path d="M24.3916 31.1758C24.3916 31.1758 33.9236 31.3158 36.0636 32.4638C38.2036 33.6118 42.8716 38.5518 42.8716 38.5518C42.8716 38.5518 37.3156 33.9398 35.1996 32.9638C33.0796 31.9878 24.3916 31.1758 24.3916 31.1758Z" fill="#E0E0E0"/>
<path d="M28.5393 33.2998C28.5393 33.2998 28.0033 36.1038 30.1313 35.7718C32.2593 35.4398 33.0073 34.3998 33.0073 34.3998C33.0073 34.3998 32.7073 36.9438 34.3113 36.7158C35.9193 36.4838 36.9193 35.3358 36.9193 35.3358C36.9193 35.3358 34.8353 37.5958 33.6553 37.2678C32.4753 36.9358 32.7553 35.2678 32.7553 35.2678C32.7553 35.2678 30.2753 36.8638 29.0833 36.0998C27.8913 35.3358 28.0513 34.8998 28.5393 33.3038V33.2998Z" fill="#E0E0E0"/>
<path d="M94.0232 22.2755C94.0232 22.2755 84.7952 24.6755 82.9912 26.2955C81.1872 27.9155 77.8232 33.8235 77.8232 33.8235C77.8232 33.8235 82.1232 28.0275 83.9512 26.5755C85.7792 25.1235 94.0232 22.2715 94.0232 22.2715V22.2755Z" fill="#E0E0E0"/>
<path d="M90.4999 25.3232C90.4999 25.3232 91.6879 27.9192 89.5399 28.0992C87.3959 28.2832 86.4199 27.4472 86.4199 27.4472C86.4199 27.4472 87.3159 29.8472 85.6999 30.0072C84.0839 30.1672 82.8359 29.2872 82.8359 29.2872C82.8359 29.2872 85.3999 30.9912 86.4679 30.3872C87.5359 29.7872 86.8639 28.2312 86.8639 28.2312C86.8639 28.2312 89.6519 29.1952 90.6279 28.1672C91.6079 27.1392 91.3439 26.7552 90.4919 25.3232H90.4999Z" fill="#E0E0E0"/>
<path d="M146 141.859C146.18 140.591 146.296 139.283 145.956 138.047C145.452 136.203 144.02 134.783 142.684 133.415C139.78 130.439 137.072 127.279 134.576 123.955C134.092 123.311 133.072 123.571 132.956 124.371C132.824 125.259 132.752 126.151 132.816 127.043C132.932 128.643 133.54 130.275 134.788 131.283C134.264 131.027 133.704 130.763 133.104 130.943C132.8 131.035 132.548 131.267 132.48 131.579C132.368 132.095 132.796 132.483 133.184 132.783C133.948 133.383 134.716 133.983 135.48 134.583C134.76 134.363 133.928 134.823 133.656 135.527C133.384 136.231 133.64 137.079 134.2 137.583C134.692 138.031 135.38 138.223 136.044 138.175C135.516 138.315 135.124 138.907 135.172 139.471C135.228 140.127 135.744 140.679 136.352 140.935C136.96 141.191 137.64 141.199 138.3 141.139C138.212 141.867 138.548 142.631 139.144 143.059C139.74 143.487 140.572 143.555 141.232 143.239C140.92 144.371 141.904 145.659 143.076 145.663C143.088 146.871 143.096 148.079 143.108 149.287L144.68 147.755C145.276 145.831 145.716 143.855 146 141.859Z" fill="#EBEBEB"/>
<path d="M166.332 153.523C167.448 152.899 168.632 152.319 169.904 152.191C171.808 151.999 173.644 152.823 175.404 153.575C179.224 155.211 183.152 156.603 187.152 157.731C187.928 157.951 188.048 158.995 187.348 159.395C186.568 159.839 185.764 160.227 184.908 160.487C183.372 160.955 181.632 160.975 180.24 160.175C180.668 160.571 181.116 160.999 181.164 161.623C181.188 161.939 181.06 162.259 180.796 162.431C180.356 162.719 179.84 162.459 179.416 162.207C178.58 161.711 177.744 161.211 176.912 160.715C177.38 161.307 177.248 162.251 176.688 162.759C176.128 163.267 175.248 163.331 174.576 162.991C173.984 162.691 173.556 162.119 173.36 161.483C173.42 162.027 173.008 162.603 172.464 162.763C171.832 162.947 171.132 162.663 170.672 162.191C170.216 161.715 169.964 161.083 169.784 160.447C169.136 160.791 168.304 160.751 167.688 160.351C167.076 159.947 166.708 159.199 166.768 158.467C165.824 159.163 164.268 158.715 163.84 157.619C162.708 158.043 161.576 158.471 160.448 158.895L161.312 156.879C162.896 155.631 164.576 154.507 166.336 153.523H166.332Z" fill="#EBEBEB"/>
<path d="M161.708 158.346C165.538 153.472 164.693 146.416 159.82 142.585C154.947 138.754 147.89 139.599 144.059 144.473C140.229 149.346 141.074 156.402 145.947 160.233C150.821 164.064 157.877 163.219 161.708 158.346Z" fill="#E0E0E0"/>
<path d="M165.895 149.914C166.061 143.717 161.173 138.559 154.977 138.392C148.78 138.225 143.622 143.114 143.455 149.31C143.288 155.507 148.177 160.665 154.373 160.832C160.57 160.999 165.728 156.11 165.895 149.914Z" fill="#EBEBEB"/>
<path d="M158.508 159.19C163.792 157.069 166.355 151.067 164.235 145.784C162.114 140.501 156.112 137.937 150.829 140.058C145.546 142.178 142.982 148.18 145.102 153.464C147.223 158.747 153.225 161.311 158.508 159.19Z" fill="#FAFAFA"/>
<path d="M159.292 141.675L158.644 142.719L158.448 142.599L158.996 141.715L158.776 141.579L158.876 141.415L159.292 141.671V141.675Z" fill="#E0E0E0"/>
<path d="M159.712 143.159L159.608 143.323L158.836 142.843L158.916 142.715L159.576 142.579C159.652 142.563 159.708 142.543 159.744 142.519C159.78 142.495 159.808 142.467 159.832 142.435C159.864 142.387 159.868 142.339 159.852 142.291C159.836 142.243 159.796 142.203 159.732 142.163C159.624 142.095 159.52 142.083 159.42 142.119L159.348 141.931C159.424 141.903 159.504 141.895 159.592 141.907C159.68 141.919 159.768 141.951 159.852 142.007C159.964 142.079 160.04 142.159 160.076 142.255C160.108 142.351 160.1 142.447 160.04 142.539C160.004 142.595 159.96 142.643 159.904 142.675C159.848 142.711 159.768 142.739 159.66 142.759L159.216 142.851L159.708 143.155L159.712 143.159Z" fill="#E0E0E0"/>
<path d="M150.324 156.787C150.364 156.847 150.38 156.911 150.384 156.979C150.384 157.047 150.364 157.111 150.324 157.175C150.284 157.243 150.228 157.291 150.164 157.323C150.1 157.355 150.028 157.363 149.952 157.355C149.876 157.347 149.804 157.319 149.732 157.275C149.588 157.187 149.504 157.071 149.48 156.935C149.456 156.795 149.496 156.643 149.6 156.475C149.672 156.359 149.756 156.271 149.852 156.215C149.948 156.159 150.044 156.131 150.148 156.135C150.252 156.139 150.356 156.175 150.456 156.235C150.508 156.267 150.556 156.307 150.596 156.347C150.636 156.387 150.668 156.431 150.688 156.475L150.524 156.579C150.492 156.511 150.436 156.455 150.356 156.403C150.256 156.339 150.156 156.323 150.064 156.347C149.968 156.375 149.884 156.447 149.812 156.563C149.864 156.547 149.92 156.547 149.98 156.555C150.04 156.567 150.1 156.591 150.16 156.627C150.228 156.671 150.284 156.719 150.32 156.783L150.324 156.787ZM149.992 157.163C150.048 157.155 150.096 157.123 150.128 157.071C150.164 157.015 150.168 156.963 150.152 156.907C150.132 156.851 150.092 156.803 150.028 156.763C149.964 156.723 149.904 156.707 149.844 156.719C149.784 156.727 149.736 156.759 149.704 156.811C149.672 156.863 149.664 156.915 149.684 156.971C149.7 157.027 149.744 157.079 149.812 157.119C149.872 157.155 149.932 157.171 149.992 157.163Z" fill="#E0E0E0"/>
<path d="M162.416 145.371L161.768 146.415L161.572 146.295L162.12 145.411L161.9 145.275L162 145.111L162.416 145.367V145.371Z" fill="#E0E0E0"/>
<path d="M154.656 158.055C154.692 158.155 154.68 158.255 154.616 158.355C154.576 158.419 154.528 158.463 154.464 158.495C154.4 158.527 154.332 158.539 154.248 158.531C154.168 158.523 154.084 158.491 153.992 158.435C153.916 158.387 153.852 158.335 153.796 158.267C153.74 158.203 153.7 158.135 153.676 158.067L153.852 157.967C153.872 158.023 153.904 158.075 153.944 158.131C153.988 158.183 154.036 158.227 154.096 158.263C154.164 158.307 154.228 158.327 154.284 158.319C154.34 158.319 154.384 158.287 154.416 158.239C154.448 158.187 154.452 158.131 154.428 158.079C154.404 158.027 154.34 157.967 154.236 157.903L153.984 157.747L154.392 157.211L155.004 157.591L154.904 157.755L154.456 157.475L154.284 157.703L154.384 157.767C154.532 157.859 154.624 157.955 154.656 158.055Z" fill="#E0E0E0"/>
<path d="M154.988 140.759L154.34 141.803L154.148 141.683L154.696 140.799L154.476 140.663L154.576 140.499L154.992 140.755L154.988 140.759Z" fill="#E0E0E0"/>
<path d="M155.561 141.111L154.913 142.155L154.717 142.035L155.265 141.151L155.045 141.015L155.145 140.851L155.561 141.107V141.111Z" fill="#E0E0E0"/>
<path d="M147.452 152.9L146.804 153.944L146.608 153.824L147.156 152.94L146.936 152.804L147.036 152.64L147.452 152.896V152.9Z" fill="#E0E0E0"/>
<path d="M148.021 153.251L147.373 154.295L147.177 154.175L147.725 153.291L147.505 153.155L147.605 152.991L148.021 153.247V153.251Z" fill="#E0E0E0"/>
<path d="M163.092 150.164L162.992 150.328L162.22 149.848L162.3 149.72L162.96 149.584C163.036 149.568 163.092 149.548 163.128 149.524C163.164 149.5 163.192 149.472 163.216 149.44C163.248 149.392 163.252 149.344 163.236 149.296C163.22 149.248 163.18 149.208 163.116 149.168C163.008 149.1 162.904 149.088 162.804 149.124L162.732 148.936C162.808 148.908 162.888 148.9 162.976 148.912C163.064 148.924 163.152 148.956 163.236 149.012C163.348 149.084 163.424 149.164 163.456 149.26C163.492 149.356 163.48 149.448 163.42 149.544C163.384 149.6 163.34 149.648 163.284 149.68C163.228 149.716 163.148 149.744 163.04 149.764L162.596 149.856L163.088 150.164H163.092Z" fill="#E0E0E0"/>
<path d="M158.86 157.439L158.676 157.323L158.528 157.559L158.34 157.443L158.488 157.207L157.916 156.851L158 156.715L158.932 156.363L159.14 156.491L158.256 156.835L158.596 157.047L158.728 156.835L158.912 156.947L158.78 157.159L158.964 157.275L158.864 157.439H158.86Z" fill="#E0E0E0"/>
<path d="M151.228 141.572L150.58 142.616L150.384 142.496L150.932 141.612L150.712 141.476L150.812 141.312L151.228 141.568V141.572Z" fill="#E0E0E0"/>
<path d="M151.028 142.832C150.988 142.748 150.976 142.656 150.988 142.552C151 142.448 151.04 142.34 151.112 142.228C151.18 142.116 151.26 142.032 151.348 141.976C151.436 141.92 151.528 141.888 151.62 141.888C151.712 141.888 151.8 141.912 151.884 141.964C151.968 142.016 152.028 142.084 152.068 142.168C152.108 142.252 152.12 142.344 152.108 142.448C152.096 142.552 152.056 142.66 151.984 142.772C151.916 142.884 151.836 142.968 151.748 143.024C151.66 143.084 151.568 143.112 151.476 143.112C151.384 143.112 151.296 143.088 151.212 143.036C151.128 142.984 151.068 142.916 151.028 142.832ZM151.552 142.884C151.632 142.848 151.712 142.772 151.788 142.648C151.864 142.524 151.9 142.42 151.896 142.332C151.892 142.244 151.852 142.176 151.776 142.128C151.704 142.084 151.624 142.076 151.544 142.112C151.464 142.148 151.384 142.224 151.308 142.348C151.232 142.472 151.196 142.576 151.2 142.664C151.204 142.752 151.244 142.82 151.316 142.864C151.392 142.912 151.468 142.916 151.552 142.88V142.884Z" fill="#E0E0E0"/>
<path d="M146.824 149.652C146.824 149.712 146.812 149.772 146.776 149.828C146.736 149.892 146.684 149.936 146.62 149.964C146.556 149.988 146.484 149.996 146.4 149.98C146.32 149.964 146.236 149.932 146.152 149.88C146.068 149.828 146 149.768 145.952 149.704C145.904 149.64 145.876 149.572 145.872 149.5C145.868 149.432 145.884 149.364 145.924 149.3C145.96 149.244 146.004 149.204 146.06 149.18C146.116 149.156 146.176 149.148 146.248 149.156C146.22 149.108 146.208 149.056 146.208 149.004C146.208 148.952 146.224 148.904 146.256 148.852C146.292 148.792 146.34 148.752 146.4 148.728C146.46 148.704 146.528 148.7 146.6 148.712C146.672 148.724 146.748 148.756 146.824 148.804C146.9 148.852 146.964 148.908 147.008 148.968C147.052 149.028 147.076 149.092 147.084 149.156C147.088 149.22 147.072 149.28 147.036 149.34C147.004 149.388 146.968 149.424 146.92 149.448C146.876 149.472 146.824 149.48 146.764 149.48C146.804 149.54 146.824 149.6 146.828 149.66L146.824 149.652ZM146.556 148.904C146.504 148.904 146.464 148.932 146.436 148.98C146.408 149.024 146.404 149.072 146.424 149.12C146.444 149.168 146.484 149.212 146.544 149.248C146.604 149.288 146.664 149.304 146.716 149.3C146.768 149.296 146.808 149.272 146.836 149.228C146.864 149.18 146.868 149.132 146.848 149.084C146.828 149.036 146.788 148.992 146.728 148.956C146.668 148.92 146.612 148.9 146.56 148.904H146.556ZM146.444 149.788C146.504 149.788 146.552 149.756 146.584 149.704C146.616 149.652 146.62 149.6 146.596 149.544C146.572 149.488 146.524 149.436 146.452 149.392C146.38 149.348 146.316 149.328 146.256 149.332C146.196 149.336 146.152 149.364 146.12 149.416C146.088 149.468 146.08 149.524 146.104 149.576C146.128 149.632 146.172 149.68 146.244 149.724C146.316 149.768 146.38 149.788 146.44 149.784L146.444 149.788Z" fill="#E0E0E0"/>
<path d="M161.968 154.012C161.984 154.096 161.968 154.18 161.92 154.26C161.884 154.32 161.832 154.368 161.772 154.396C161.712 154.428 161.64 154.436 161.56 154.428C161.48 154.42 161.396 154.388 161.304 154.332C161.228 154.284 161.164 154.232 161.108 154.164C161.052 154.1 161.012 154.032 160.988 153.964L161.164 153.864C161.184 153.92 161.212 153.972 161.256 154.024C161.3 154.076 161.348 154.12 161.408 154.156C161.476 154.2 161.54 154.22 161.596 154.216C161.652 154.212 161.696 154.184 161.728 154.136C161.76 154.088 161.764 154.036 161.744 153.988C161.724 153.936 161.676 153.888 161.6 153.84L161.504 153.78L161.588 153.648L162 153.512L161.524 153.216L161.624 153.052L162.336 153.496L162.256 153.624L161.816 153.768C161.904 153.84 161.96 153.92 161.976 154.004L161.968 154.012Z" fill="#E0E0E0"/>
<path d="M148.18 144.884C148.204 145.024 148.164 145.176 148.06 145.344C147.988 145.46 147.904 145.548 147.808 145.604C147.712 145.66 147.616 145.688 147.512 145.68C147.408 145.676 147.304 145.64 147.204 145.58C147.152 145.548 147.104 145.508 147.064 145.468C147.024 145.428 146.992 145.384 146.972 145.34L147.136 145.24C147.168 145.304 147.224 145.364 147.304 145.416C147.404 145.48 147.504 145.496 147.596 145.468C147.692 145.44 147.776 145.372 147.848 145.252C147.796 145.268 147.74 145.268 147.68 145.26C147.62 145.248 147.56 145.224 147.5 145.188C147.432 145.144 147.376 145.092 147.34 145.032C147.3 144.972 147.28 144.908 147.28 144.84C147.28 144.772 147.3 144.708 147.34 144.644C147.384 144.576 147.436 144.528 147.5 144.496C147.564 144.464 147.636 144.456 147.712 144.464C147.788 144.472 147.86 144.5 147.932 144.544C148.076 144.632 148.16 144.748 148.184 144.884H148.18ZM147.812 145.104C147.872 145.096 147.92 145.064 147.952 145.012C147.984 144.96 147.992 144.908 147.972 144.848C147.956 144.792 147.912 144.74 147.844 144.7C147.784 144.664 147.724 144.648 147.668 144.656C147.608 144.664 147.564 144.696 147.532 144.752C147.496 144.808 147.492 144.86 147.508 144.916C147.524 144.972 147.568 145.02 147.632 145.06C147.696 145.1 147.756 145.112 147.816 145.104H147.812Z" fill="#E0E0E0"/>
<path d="M154.472 149.519L158.192 143.955L158.46 144.123L155.252 150.003L154.472 149.519Z" fill="#E0E0E0"/>
<path d="M154.284 149.932L153.272 145.64L153.58 145.552L155.168 149.672L154.284 149.932Z" fill="#E0E0E0"/>
<path d="M152.328 149.871L160.712 150.199L152.344 150.139L152.328 149.871Z" fill="#E6E6E6"/>
<path d="M155.684 150.271C155.404 150.723 154.804 150.863 154.352 150.583C153.9 150.303 153.76 149.703 154.04 149.251C154.32 148.799 154.92 148.659 155.372 148.939C155.828 149.219 155.964 149.819 155.684 150.271Z" fill="#E0E0E0"/>
<path d="M142.988 153.896C142.988 153.896 139.616 155.892 140.108 156.256C140.6 156.62 143.7 155.644 143.7 155.644C143.7 155.644 144.152 154.488 142.984 153.892L142.988 153.896Z" fill="#EBEBEB"/>
<path d="M156.132 161.659C156.132 161.659 155.836 165.567 155.292 165.287C154.748 165.007 154.244 161.795 154.244 161.795C154.244 161.795 155.08 160.879 156.132 161.659Z" fill="#EBEBEB"/>
<path d="M147.476 138.267C147.576 138.235 157.72 136.387 157.72 136.387C157.72 136.387 156.568 132.691 151.856 133.775C147.144 134.863 147.476 138.263 147.476 138.263V138.267Z" fill="#F0F0F0"/>
<path d="M157.72 136.387C157.804 136.835 155.544 137.523 152.724 138.051C149.908 138.583 147.552 138.647 147.468 138.203C147.384 137.755 149.6 136.963 152.416 136.431C155.232 135.899 157.632 135.939 157.716 136.387H157.72Z" fill="#E0E0E0"/>
<path d="M152.962 134.7L151.444 134.985L152.175 138.865L153.692 138.58L152.962 134.7Z" fill="#F0F0F0"/>
<path d="M152.996 134.643C152.676 135.159 151.996 135.319 151.476 134.999C150.96 134.679 150.8 133.999 151.12 133.479C151.44 132.963 152.12 132.803 152.64 133.123C153.16 133.443 153.316 134.123 152.996 134.643Z" fill="#F0F0F0"/>
<g opacity="0.4">
<path d="M151.8 133.859L150.96 134.027C150.828 134.071 148.376 135.111 148.38 137.527C149.14 137.223 149.968 136.975 150.84 136.767C150.56 135.963 150.436 134.723 151.8 133.859Z" fill="white"/>
</g>
<path d="M151.744 136.567L153.264 136.287L153.336 136.659L151.832 137.023L151.744 136.567Z" fill="#E0E0E0"/>
<path d="M150.96 134.032L153.06 133.6L152.992 133.476L150.976 133.872L150.96 134.032Z" fill="#E0E0E0"/>
<path d="M163.624 139.631C163.684 139.715 168.396 148.887 168.396 148.887C168.396 148.887 171.6 146.711 169.192 142.519C166.784 138.327 163.624 139.631 163.624 139.631Z" fill="#F0F0F0"/>
<path d="M168.396 148.887C167.992 149.099 166.676 147.131 165.352 144.591C164.024 142.051 163.276 139.819 163.68 139.607C164.084 139.395 165.488 141.287 166.812 143.827C168.14 146.367 168.8 148.675 168.396 148.887Z" fill="#E0E0E0"/>
<path d="M168.625 143.842L167.911 142.473L164.411 144.299L165.125 145.668L168.625 143.842Z" fill="#F0F0F0"/>
<path d="M168.692 143.864C168.104 143.708 167.756 143.104 167.912 142.516C168.068 141.928 168.672 141.579 169.26 141.735C169.848 141.891 170.196 142.495 170.04 143.083C169.884 143.671 169.28 144.02 168.692 143.864Z" fill="#F0F0F0"/>
<g opacity="0.4">
<path d="M169.096 142.487L168.688 141.731C168.604 141.619 166.9 139.575 164.588 140.279C165.1 140.915 165.576 141.639 166.032 142.411C166.72 141.907 167.872 141.427 169.096 142.483V142.487Z" fill="white"/>
</g>
<path d="M166.492 143.22L167.2 144.596L166.864 144.772L166.076 143.44L166.492 143.22Z" fill="#E0E0E0"/>
<path d="M168.688 141.731L169.711 143.619L169.811 143.515L168.843 141.703L168.688 141.731Z" fill="#E0E0E0"/>
<path d="M152.144 138.679C152.144 138.679 153.26 138.487 153.672 138.447L153.644 138.291L152.12 138.539L152.148 138.679H152.144Z" fill="#E0E0E0"/>
<path d="M136.668 131.743C136.668 131.743 141.844 136.019 142.516 137.591C143.188 139.163 143.576 143.935 143.576 143.935C143.576 143.935 142.552 138.955 141.82 137.487C141.084 136.019 136.668 131.743 136.668 131.743Z" fill="#E0E0E0"/>
<path d="M138.012 134.735C138.012 134.735 136.484 136.039 137.8 136.791C139.116 137.547 139.984 137.303 139.984 137.303C139.984 137.303 138.696 138.571 139.684 139.151C140.672 139.731 141.724 139.543 141.724 139.543C141.724 139.543 139.58 139.867 139.08 139.167C138.576 138.467 139.468 137.671 139.468 137.671C139.468 137.671 137.404 137.455 137.084 136.511C136.764 135.563 137.044 135.395 138.016 134.735H138.012Z" fill="#E0E0E0"/>
<path d="M178.86 157.516C178.86 157.516 172.732 154.772 171.024 154.868C169.316 154.964 164.868 156.732 164.868 156.732C164.868 156.732 169.784 155.44 171.428 155.448C173.072 155.456 178.86 157.52 178.86 157.52V157.516Z" fill="#E0E0E0"/>
<path d="M175.58 157.639C175.58 157.639 175.088 159.587 173.832 158.743C172.572 157.899 172.404 157.011 172.404 157.011C172.404 157.011 171.84 158.727 170.884 158.099C169.928 157.475 169.628 156.443 169.628 156.443C169.628 156.443 170.288 158.507 171.14 158.647C171.992 158.787 172.308 157.639 172.308 157.639C172.308 157.639 173.416 159.395 174.408 159.263C175.4 159.131 175.424 158.803 175.588 157.639H175.58Z" fill="#E0E0E0"/>
<path d="M185.356 184.62C185.356 185.976 147.948 187.072 101.808 187.072C55.6678 187.072 18.2598 185.972 18.2598 184.62C18.2598 183.268 55.6678 182.168 101.808 182.168C147.948 182.168 185.356 183.268 185.356 184.62Z" fill="#F5F5F5"/>
<path d="M42.9432 131.46C42.8912 131.46 42.8392 131.44 42.7992 131.4C42.7232 131.32 42.7232 131.196 42.7992 131.116C45.0872 128.888 46.5712 127.464 48.0552 126.036C49.5352 124.612 51.0192 123.192 53.3032 120.964C53.3832 120.888 53.5072 120.888 53.5872 120.964C53.6632 121.044 53.6632 121.168 53.5872 121.248C51.3032 123.472 49.8192 124.896 48.3392 126.32C46.8552 127.744 45.3712 129.168 43.0872 131.396C43.0472 131.432 42.9992 131.452 42.9472 131.452L42.9432 131.46Z" fill="#263238"/>
<path d="M39.868 134.2C39.816 134.2 39.764 134.18 39.724 134.14C39.648 134.06 39.648 133.936 39.724 133.856L41.584 132.044C41.664 131.968 41.788 131.968 41.868 132.044C41.944 132.124 41.944 132.248 41.868 132.328L40.008 134.14C39.968 134.176 39.92 134.196 39.868 134.196V134.2Z" fill="#263238"/>
<path d="M38.6635 149.044C38.6155 149.044 38.5635 149.024 38.5235 148.988C38.4435 148.912 38.4395 148.784 38.5155 148.704L58.7355 127.568C58.8115 127.488 58.9395 127.484 59.0195 127.56C59.0995 127.636 59.1035 127.764 59.0275 127.844L38.8075 148.98C38.7675 149.02 38.7155 149.04 38.6635 149.04V149.044Z" fill="#263238"/>
<path d="M54.5433 143.956C54.4953 143.956 54.4433 143.94 54.4073 143.9C54.3273 143.824 54.3233 143.696 54.3993 143.616C56.1153 141.792 57.2993 140.496 58.4433 139.244C59.5873 137.992 60.7713 136.696 62.4913 134.868C62.5673 134.788 62.6953 134.784 62.7753 134.86C62.8553 134.936 62.8593 135.064 62.7833 135.144C61.0673 136.968 59.8833 138.264 58.7393 139.516C57.5953 140.768 56.4113 142.064 54.6913 143.892C54.6513 143.932 54.5993 143.956 54.5473 143.956H54.5433Z" fill="#263238"/>
<path d="M63.7433 133.98C63.6953 133.98 63.6473 133.964 63.6113 133.928C63.5273 133.856 63.5193 133.728 63.5953 133.644L65.1873 131.852C65.2593 131.768 65.3873 131.764 65.4713 131.836C65.5553 131.908 65.5633 132.036 65.4873 132.12L63.8953 133.912C63.8553 133.956 63.7993 133.98 63.7473 133.98H63.7433Z" fill="#263238"/>
<path d="M64.5121 96C62.9961 92.548 61.2441 89.096 58.4841 86.532C54.3561 82.704 48.5721 81.376 43.1041 80.028C31.2201 77.096 19.5281 73.396 8.12014 68.956C5.90814 68.096 3.76414 70.336 4.70814 72.516C5.75614 74.94 6.96014 77.28 8.50814 79.416C11.2801 83.24 15.3441 86.38 20.0321 86.964C18.3201 87.136 16.5081 87.344 15.2881 88.724C14.6681 89.424 14.4081 90.4 14.7201 91.28C15.2401 92.74 16.9161 93.044 18.3561 93.204C21.2001 93.516 24.0481 93.828 26.8921 94.14C24.7441 94.704 23.3841 97.156 23.7961 99.336C24.2081 101.516 26.1681 103.236 28.3481 103.636C30.2721 103.988 32.2921 103.4 33.8841 102.252C32.7761 103.424 32.7201 105.512 33.7161 106.852C34.8721 108.408 37.0241 108.984 38.9401 108.68C40.8561 108.376 42.5761 107.332 44.1241 106.164C45.0361 108.12 47.0641 109.508 49.2201 109.648C51.3761 109.788 53.5681 108.672 54.7241 106.852C55.7041 110.164 60.1641 111.868 63.1041 110.052C65.0081 113.06 66.9121 116.064 68.8121 119.072L70.3641 112.804C68.8601 107.06 66.9041 101.44 64.5161 96.004L64.5121 96Z" fill="#263238"/>
<g opacity="0.8">
<path d="M64.5121 96C62.9961 92.548 61.2441 89.096 58.4841 86.532C54.3561 82.704 48.5721 81.376 43.1041 80.028C31.2201 77.096 19.5281 73.396 8.12014 68.956C5.90814 68.096 3.76414 70.336 4.70814 72.516C5.75614 74.94 6.96014 77.28 8.50814 79.416C11.2801 83.24 15.3441 86.38 20.0321 86.964C18.3201 87.136 16.5081 87.344 15.2881 88.724C14.6681 89.424 14.4081 90.4 14.7201 91.28C15.2401 92.74 16.9161 93.044 18.3561 93.204C21.2001 93.516 24.0481 93.828 26.8921 94.14C24.7441 94.704 23.3841 97.156 23.7961 99.336C24.2081 101.516 26.1681 103.236 28.3481 103.636C30.2721 103.988 32.2921 103.4 33.8841 102.252C32.7761 103.424 32.7201 105.512 33.7161 106.852C34.8721 108.408 37.0241 108.984 38.9401 108.68C40.8561 108.376 42.5761 107.332 44.1241 106.164C45.0361 108.12 47.0641 109.508 49.2201 109.648C51.3761 109.788 53.5681 108.672 54.7241 106.852C55.7041 110.164 60.1641 111.868 63.1041 110.052C65.0081 113.06 66.9121 116.064 68.8121 119.072L70.3641 112.804C68.8601 107.06 66.9041 101.44 64.5161 96.004L64.5121 96Z" fill="white"/>
</g>
<path d="M133.493 93.5883C135.317 90.2883 137.373 87.0083 140.357 84.7083C144.817 81.2683 150.697 80.4723 156.265 79.6283C168.365 77.7883 180.345 75.1643 192.109 71.7763C194.389 71.1203 196.321 73.5443 195.185 75.6283C193.921 77.9483 192.509 80.1683 190.777 82.1563C187.669 85.7123 183.337 88.4683 178.613 88.6243C180.301 88.9523 182.089 89.3243 183.177 90.8083C183.729 91.5603 183.901 92.5603 183.513 93.4083C182.865 94.8163 181.169 94.9683 179.721 94.9923C176.857 95.0443 173.997 95.0963 171.133 95.1483C173.221 95.9043 174.353 98.4723 173.745 100.604C173.137 102.736 171.029 104.272 168.821 104.472C166.873 104.648 164.917 103.88 163.437 102.588C164.433 103.856 164.301 105.94 163.185 107.184C161.893 108.632 159.697 109.008 157.813 108.532C155.933 108.056 154.317 106.86 152.881 105.556C151.797 107.424 149.649 108.62 147.489 108.564C145.329 108.508 143.249 107.2 142.261 105.28C140.981 108.492 136.389 109.78 133.625 107.708C131.457 110.528 129.289 113.352 127.121 116.172L126.145 109.788C128.165 104.208 130.625 98.7843 133.497 93.5883H133.493Z" fill="#263238"/>
<g opacity="0.8">
<path d="M133.493 93.5883C135.317 90.2883 137.373 87.0083 140.357 84.7083C144.817 81.2683 150.697 80.4723 156.265 79.6283C168.365 77.7883 180.345 75.1643 192.109 71.7763C194.389 71.1203 196.321 73.5443 195.185 75.6283C193.921 77.9483 192.509 80.1683 190.777 82.1563C187.669 85.7123 183.337 88.4683 178.613 88.6243C180.301 88.9523 182.089 89.3243 183.177 90.8083C183.729 91.5603 183.901 92.5603 183.513 93.4083C182.865 94.8163 181.169 94.9683 179.721 94.9923C176.857 95.0443 173.997 95.0963 171.133 95.1483C173.221 95.9043 174.353 98.4723 173.745 100.604C173.137 102.736 171.029 104.272 168.821 104.472C166.873 104.648 164.917 103.88 163.437 102.588C164.433 103.856 164.301 105.94 163.185 107.184C161.893 108.632 159.697 109.008 157.813 108.532C155.933 108.056 154.317 106.86 152.881 105.556C151.797 107.424 149.649 108.62 147.489 108.564C145.329 108.508 143.249 107.2 142.261 105.28C140.981 108.492 136.389 109.78 133.625 107.708C131.457 110.528 129.289 113.352 127.121 116.172L126.145 109.788C128.165 104.208 130.625 98.7843 133.497 93.5883H133.493Z" fill="white"/>
</g>
<path d="M129.138 114.596C132.138 96.5923 119.975 79.5655 101.971 76.5657C83.9671 73.5658 66.9404 85.7288 63.9405 103.732C60.9407 121.736 73.1037 138.763 91.1074 141.763C109.111 144.763 126.138 132.6 129.138 114.596Z" fill="#FF7415"/>
<path opacity="0.3" d="M129.138 114.596C132.138 96.5923 119.975 79.5655 101.971 76.5657C83.9671 73.5658 66.9404 85.7288 63.9405 103.732C60.9407 121.736 73.1037 138.763 91.1074 141.763C109.111 144.763 126.138 132.6 129.138 114.596Z" fill="black"/>
<path d="M130.84 107.357C133.84 89.353 121.677 72.3263 103.673 69.3264C85.6693 66.3265 68.6425 78.4895 65.6427 96.4932C62.6428 114.497 74.8058 131.524 92.8095 134.524C110.813 137.523 127.84 125.36 130.84 107.357Z" fill="#FF7415"/>
<path d="M119.706 123.391C131.559 111.538 131.559 92.3198 119.706 80.4666C107.852 68.6134 88.6346 68.6134 76.7814 80.4666C64.9282 92.3198 64.9282 111.538 76.7814 123.391C88.6346 135.244 107.852 135.244 119.706 123.391Z" fill="#FF7415"/>
<path opacity="0.7" d="M119.706 123.391C131.559 111.538 131.559 92.3198 119.706 80.4666C107.852 68.6134 88.6346 68.6134 76.7814 80.4666C64.9282 92.3198 64.9282 111.538 76.7814 123.391C88.6346 135.244 107.852 135.244 119.706 123.391Z" fill="white"/>
<path opacity="0.4" d="M109.312 73.6562L69.3604 111.276C69.3604 111.276 72.1124 118.236 74.6164 120.98L117.552 78.5083C117.552 78.5083 113.884 75.2322 109.312 73.6602V73.6562Z" fill="white"/>
<path opacity="0.4" d="M121.464 82.5958L76.748 123.356C76.748 123.356 77.448 124.472 80.672 126.556L124.816 87.1718C124.816 87.1718 124.304 85.5798 121.464 82.5918V82.5958Z" fill="white"/>
<path d="M97.4926 74.8721V78.4961H96.8206V75.4361H96.0566V74.8721H97.4966H97.4926Z" fill="#263238"/>
<path d="M100.837 77.9285V78.4965H98.1645V78.0445L99.6045 76.6765C99.7685 76.5205 99.8765 76.3845 99.9325 76.2685C99.9885 76.1525 100.017 76.0365 100.017 75.9245C100.017 75.7565 99.9605 75.6245 99.8445 75.5365C99.7285 75.4485 99.5645 75.4005 99.3405 75.4005C98.9725 75.4005 98.6885 75.5245 98.4925 75.7765L98.0205 75.4125C98.1605 75.2245 98.3525 75.0765 98.5925 74.9685C98.8325 74.8645 99.1005 74.8125 99.3965 74.8125C99.7885 74.8125 100.105 74.9045 100.341 75.0925C100.577 75.2805 100.693 75.5325 100.693 75.8525C100.693 76.0485 100.653 76.2325 100.569 76.4045C100.485 76.5765 100.329 76.7725 100.093 76.9925L99.1245 77.9125H100.833L100.837 77.9285Z" fill="#263238"/>
<path d="M98.5282 126.608C98.7162 126.7 98.8642 126.828 98.9722 127C99.0802 127.168 99.1322 127.364 99.1322 127.584C99.1322 127.82 99.0722 128.024 98.9562 128.204C98.8402 128.38 98.6802 128.52 98.4802 128.616C98.2802 128.712 98.0562 128.76 97.8082 128.76C97.3122 128.76 96.9242 128.604 96.6522 128.292C96.3762 127.98 96.2402 127.536 96.2402 126.956C96.2402 126.548 96.3162 126.2 96.4642 125.912C96.6122 125.624 96.8202 125.404 97.0882 125.256C97.3562 125.104 97.6642 125.032 98.0162 125.032C98.2042 125.032 98.3762 125.052 98.5402 125.092C98.7042 125.132 98.8482 125.188 98.9682 125.264L98.7202 125.772C98.5402 125.656 98.3122 125.596 98.0322 125.596C97.6842 125.596 97.4122 125.704 97.2162 125.916C97.0202 126.132 96.9202 126.44 96.9202 126.844C97.0282 126.724 97.1642 126.632 97.3282 126.568C97.4922 126.504 97.6802 126.472 97.8882 126.472C98.1282 126.472 98.3402 126.516 98.5322 126.608H98.5282ZM98.2842 128.064C98.4162 127.952 98.4802 127.804 98.4802 127.616C98.4802 127.428 98.4162 127.276 98.2842 127.164C98.1522 127.052 97.9762 127 97.7562 127C97.5362 127 97.3602 127.06 97.2242 127.176C97.0882 127.292 97.0202 127.444 97.0202 127.62C97.0202 127.796 97.0882 127.94 97.2202 128.056C97.3522 128.172 97.5362 128.228 97.7722 128.228C97.9842 128.228 98.1522 128.172 98.2842 128.06V128.064Z" fill="#263238"/>
<path d="M111.044 79.2607V82.8847H110.372V79.8247H109.604V79.2607H111.044Z" fill="#263238"/>
<path d="M111.336 123.045C111.58 123.245 111.704 123.513 111.704 123.857C111.704 124.073 111.652 124.273 111.544 124.449C111.436 124.625 111.276 124.765 111.064 124.869C110.848 124.973 110.584 125.025 110.272 125.025C110.012 125.025 109.764 124.989 109.52 124.913C109.28 124.837 109.076 124.737 108.908 124.605L109.192 124.081C109.328 124.193 109.488 124.277 109.676 124.341C109.864 124.405 110.06 124.437 110.26 124.437C110.5 124.437 110.684 124.389 110.82 124.289C110.956 124.189 111.024 124.057 111.024 123.881C111.024 123.693 110.952 123.553 110.804 123.461C110.656 123.365 110.408 123.317 110.052 123.317H109.176L109.364 121.345H111.492V121.909H109.932L109.856 122.749H110.204C110.716 122.749 111.092 122.849 111.336 123.045Z" fill="#263238"/>
<path d="M85.3003 79.2607V82.8847H84.6283V79.8247H83.8643V79.2607H85.3043H85.3003Z" fill="#263238"/>
<path d="M87.272 79.2607V82.8847H86.6V79.8247H85.832V79.2607H87.272Z" fill="#263238"/>
<path d="M85.3003 121.345V124.969H84.6283V121.909H83.8643V121.345H85.3043H85.3003Z" fill="#263238"/>
<path d="M87.272 121.345V124.969H86.6V121.909H85.832V121.345H87.272Z" fill="#263238"/>
<path d="M120.18 90.201V90.769H117.508V90.317L118.948 88.949C119.112 88.793 119.22 88.657 119.276 88.541C119.332 88.425 119.36 88.309 119.36 88.197C119.36 88.029 119.304 87.897 119.188 87.809C119.072 87.721 118.908 87.673 118.684 87.673C118.316 87.673 118.032 87.797 117.836 88.049L117.364 87.685C117.504 87.497 117.696 87.349 117.936 87.241C118.176 87.137 118.444 87.085 118.74 87.085C119.132 87.085 119.448 87.177 119.684 87.365C119.92 87.553 120.036 87.805 120.036 88.125C120.036 88.321 119.996 88.505 119.912 88.677C119.828 88.849 119.672 89.045 119.436 89.265L118.468 90.185H120.176L120.18 90.201Z" fill="#263238"/>
<path d="M120.896 114.981H120.256V115.805H119.604V114.981H117.616V114.513L119.4 112.177H120.12L118.436 114.409H119.62V113.681H120.252V114.409H120.892V114.977L120.896 114.981Z" fill="#263238"/>
<path d="M77.148 87.1445V90.7685H76.476V87.7085H75.708V87.1445H77.148Z" fill="#263238"/>
<path d="M78.6042 90.6007C78.3762 90.4527 78.1962 90.2407 78.0642 89.9607C77.9322 89.6807 77.8682 89.3447 77.8682 88.9607C77.8682 88.5767 77.9322 88.2407 78.0642 87.9607C78.1962 87.6807 78.3762 87.4647 78.6042 87.3167C78.8322 87.1687 79.0922 87.0967 79.3802 87.0967C79.6682 87.0967 79.9282 87.1687 80.1602 87.3167C80.3882 87.4647 80.5682 87.6767 80.7002 87.9607C80.8322 88.2407 80.8962 88.5767 80.8962 88.9607C80.8962 89.3447 80.8322 89.6807 80.7002 89.9607C80.5682 90.2407 80.3882 90.4567 80.1602 90.6007C79.9322 90.7487 79.6722 90.8207 79.3802 90.8207C79.0882 90.8207 78.8322 90.7487 78.6042 90.6007ZM79.9922 89.9167C80.1402 89.7047 80.2162 89.3847 80.2162 88.9607C80.2162 88.5367 80.1402 88.2167 79.9922 88.0047C79.8442 87.7887 79.6362 87.6847 79.3802 87.6847C79.1242 87.6847 78.9202 87.7927 78.7722 88.0047C78.6202 88.2207 78.5482 88.5367 78.5482 88.9607C78.5482 89.3847 78.6242 89.7047 78.7722 89.9167C78.9202 90.1327 79.1242 90.2367 79.3802 90.2367C79.6362 90.2367 79.8442 90.1287 79.9922 89.9167Z" fill="#263238"/>
<path d="M78.684 114.192C78.784 114.34 78.836 114.512 78.836 114.708C78.836 114.928 78.776 115.124 78.652 115.288C78.528 115.452 78.356 115.58 78.132 115.668C77.908 115.756 77.648 115.8 77.352 115.8C77.056 115.8 76.796 115.756 76.572 115.668C76.348 115.58 76.176 115.452 76.056 115.288C75.936 115.124 75.876 114.928 75.876 114.708C75.876 114.512 75.924 114.34 76.028 114.192C76.128 114.044 76.272 113.928 76.456 113.844C76.312 113.764 76.2 113.66 76.124 113.532C76.048 113.404 76.008 113.252 76.008 113.084C76.008 112.88 76.064 112.704 76.176 112.552C76.288 112.4 76.448 112.284 76.648 112.2C76.852 112.116 77.088 112.076 77.352 112.076C77.616 112.076 77.856 112.116 78.06 112.2C78.264 112.284 78.424 112.4 78.536 112.552C78.648 112.704 78.708 112.88 78.708 113.084C78.708 113.252 78.668 113.4 78.588 113.528C78.508 113.656 78.396 113.76 78.248 113.844C78.436 113.932 78.584 114.048 78.684 114.192ZM77.94 115.116C78.084 115.012 78.156 114.868 78.156 114.688C78.156 114.508 78.084 114.368 77.94 114.264C77.796 114.16 77.6 114.108 77.348 114.108C77.096 114.108 76.904 114.16 76.764 114.264C76.624 114.368 76.552 114.508 76.552 114.688C76.552 114.868 76.624 115.016 76.764 115.116C76.904 115.22 77.1 115.272 77.348 115.272C77.596 115.272 77.792 115.22 77.94 115.116ZM76.852 112.736C76.728 112.824 76.668 112.952 76.668 113.116C76.668 113.28 76.728 113.396 76.852 113.484C76.976 113.576 77.14 113.62 77.352 113.62C77.564 113.62 77.736 113.576 77.86 113.484C77.984 113.392 78.048 113.268 78.048 113.116C78.048 112.964 77.984 112.828 77.86 112.736C77.732 112.648 77.564 112.6 77.356 112.6C77.148 112.6 76.98 112.644 76.856 112.736H76.852Z" fill="#263238"/>
<path d="M123.344 101.58C123.52 101.768 123.608 102 123.608 102.28C123.608 102.492 123.556 102.68 123.448 102.856C123.34 103.028 123.18 103.164 122.964 103.268C122.748 103.368 122.484 103.42 122.176 103.42C121.916 103.42 121.668 103.384 121.428 103.308C121.188 103.232 120.984 103.132 120.816 103L121.104 102.476C121.236 102.588 121.396 102.672 121.584 102.736C121.772 102.8 121.968 102.832 122.168 102.832C122.408 102.832 122.592 102.784 122.728 102.684C122.864 102.584 122.932 102.452 122.932 102.284C122.932 102.116 122.868 101.984 122.736 101.888C122.608 101.792 122.408 101.744 122.144 101.744H121.812V101.284L122.636 100.304H120.988V99.7402H123.456V100.188L122.576 101.232C122.912 101.272 123.168 101.388 123.344 101.572V101.58Z" fill="#263238"/>
<path d="M74.6763 100.156C74.9523 100.468 75.0883 100.912 75.0883 101.492C75.0883 101.9 75.0123 102.248 74.8643 102.536C74.7163 102.824 74.5083 103.044 74.2403 103.192C73.9723 103.344 73.6643 103.416 73.3123 103.416C73.1243 103.416 72.9523 103.396 72.7883 103.356C72.6243 103.316 72.4803 103.26 72.3603 103.184L72.6083 102.676C72.7883 102.792 73.0163 102.852 73.2963 102.852C73.6443 102.852 73.9163 102.744 74.1123 102.532C74.3083 102.32 74.4083 102.008 74.4083 101.604C74.3003 101.724 74.1643 101.816 74.0003 101.88C73.8363 101.944 73.6483 101.976 73.4403 101.976C73.2003 101.976 72.9883 101.932 72.8003 101.84C72.6123 101.748 72.4603 101.62 72.3563 101.448C72.2483 101.28 72.1963 101.084 72.1963 100.864C72.1963 100.628 72.2563 100.424 72.3723 100.244C72.4883 100.068 72.6483 99.9285 72.8483 99.8325C73.0483 99.7365 73.2723 99.6885 73.5203 99.6885C74.0163 99.6885 74.4043 99.8445 74.6763 100.152V100.156ZM74.1003 101.272C74.2363 101.156 74.3043 101.008 74.3043 100.828C74.3043 100.648 74.2363 100.508 74.1043 100.392C73.9723 100.276 73.7883 100.22 73.5523 100.22C73.3403 100.22 73.1723 100.276 73.0403 100.388C72.9083 100.5 72.8443 100.648 72.8443 100.836C72.8443 101.024 72.9083 101.176 73.0403 101.288C73.1723 101.4 73.3483 101.452 73.5683 101.452C73.7883 101.452 73.9643 101.392 74.1003 101.276V101.272Z" fill="#263238"/>
<path d="M97.6006 101.996L98.2686 82.3037H99.2046L100.313 101.996H97.6006Z" fill="#263238"/>
<path d="M97.7722 103.316L88.5762 94.1521L89.2002 93.4561L99.5882 101.3L97.7722 103.316Z" fill="#263238"/>
<path d="M92.792 106.208L114.272 94.0039L93.244 106.864L92.792 106.208Z" fill="#FF7415"/>
<path d="M101.804 101.995C101.804 103.567 100.528 104.843 98.9564 104.843C97.3844 104.843 96.1084 103.567 96.1084 101.995C96.1084 100.423 97.3844 99.1475 98.9564 99.1475C100.528 99.1475 101.804 100.423 101.804 101.995Z" fill="#FF7415"/>
<path opacity="0.3" d="M101.804 101.995C101.804 103.567 100.528 104.843 98.9564 104.843C97.3844 104.843 96.1084 103.567 96.1084 101.995C96.1084 100.423 97.3844 99.1475 98.9564 99.1475C100.528 99.1475 101.804 100.423 101.804 101.995Z" fill="black"/>
<path d="M75.6678 130.788C75.6678 130.788 70.3358 141.02 72.1358 141.168C73.9358 141.316 80.1798 134.06 80.1798 134.06C80.1798 134.06 79.5118 130.468 75.6718 130.788H75.6678Z" fill="#FF7415"/>
<path d="M120.616 129.797C120.616 129.797 125.948 140.029 124.148 140.177C122.348 140.325 116.104 133.069 116.104 133.069C116.104 133.069 116.772 129.477 120.612 129.797H120.616Z" fill="#FF7415"/>
<path d="M62.6239 84.7157C62.8199 84.4797 85.3279 64.1037 85.3279 64.1037C85.3279 64.1037 76.7079 56.6397 66.6079 66.6797C56.5079 76.7157 62.6239 84.7157 62.6239 84.7157Z" fill="#FF7415"/>
<path d="M85.3275 64.1034C86.2355 65.0914 81.6435 70.3234 75.4155 76.0274C69.1915 81.7314 63.4115 85.5554 62.5035 84.5634C61.5955 83.5754 65.9075 78.1474 72.1355 72.4434C78.3595 66.7394 84.4195 63.1114 85.3275 64.0994V64.1034Z" fill="#FF7415"/>
<path opacity="0.3" d="M85.3275 64.1034C86.2355 65.0914 81.6435 70.3234 75.4155 76.0274C69.1915 81.7314 63.4115 85.5554 62.5035 84.5634C61.5955 83.5754 65.9075 78.1474 72.1355 72.4434C78.3595 66.7394 84.4195 63.1114 85.3275 64.0994V64.1034Z" fill="black"/>
<path d="M70.8072 67.2546L67.4541 70.3271L75.3072 78.8973L78.6603 75.8247L70.8072 67.2546Z" fill="#FF7415"/>
<path d="M67.5595 70.328C69.3533 70.328 70.8075 68.8739 70.8075 67.08C70.8075 65.2862 69.3533 63.832 67.5595 63.832C65.7657 63.832 64.3115 65.2862 64.3115 67.08C64.3115 68.8739 65.7657 70.328 67.5595 70.328Z" fill="#FF7415"/>
<path opacity="0.4" d="M66.5923 66.9795L64.7563 68.7075C64.4963 69.0275 59.9803 75.4355 63.7443 81.4715C65.1723 79.5315 66.8603 77.6275 68.7123 75.7475C66.7603 74.1715 64.5203 71.2635 66.5923 66.9795Z" fill="white"/>
<path opacity="0.2" d="M70.6602 73.8314L74.0322 70.7754L74.7842 71.5994L71.5882 74.8474L70.6602 73.8314Z" fill="black"/>
<path opacity="0.3" d="M64.7559 68.7082L69.3439 64.3682L68.9759 64.1602L64.5479 68.2882L64.7559 68.7082Z" fill="black"/>
<path d="M109.992 63.84C110.252 64 133.652 83.348 133.652 83.348C133.652 83.348 139.8 73.744 128.416 65.192C117.032 56.64 109.992 63.84 109.992 63.84Z" fill="#FF7415"/>
<path d="M133.652 83.348C132.804 84.388 126.968 80.596 120.428 75.252C113.888 69.912 109.276 64.74 110.124 63.7C110.972 62.66 116.96 66.148 123.5 71.488C130.04 76.828 134.5 82.304 133.652 83.344V83.348Z" fill="#FF7415"/>
<path opacity="0.3" d="M133.652 83.348C132.804 84.388 126.968 80.596 120.428 75.252C113.888 69.912 109.276 64.74 110.124 63.7C110.972 62.66 116.96 66.148 123.5 71.488C130.04 76.828 134.5 82.304 133.652 83.344V83.348Z" fill="black"/>
<path d="M128.445 69.4306L124.923 66.5537L117.57 75.5565L121.092 78.4335L128.445 69.4306Z" fill="#FF7415"/>
<path d="M128.624 69.4041C126.848 69.6601 125.204 68.4321 124.944 66.6561C124.688 64.8801 125.916 63.2361 127.692 62.9761C129.468 62.7201 131.112 63.9481 131.372 65.7241C131.628 67.5001 130.4 69.1441 128.624 69.4041Z" fill="#FF7415"/>
<path opacity="0.4" d="M128.116 65.2197L126.14 63.6517C125.784 63.4397 118.796 59.8917 113.364 64.4837C115.488 65.6157 117.616 67.0157 119.744 68.5797C121.02 66.4197 123.58 63.7877 128.116 65.2197Z" fill="white"/>
<path opacity="0.2" d="M121.92 70.2275L125.428 73.1235L124.724 73.9875L121.052 71.2915L121.92 70.2275Z" fill="black"/>
<path opacity="0.3" d="M126.145 63.6478L131.101 67.5638L131.253 67.1718L126.529 63.3838L126.145 63.6478Z" fill="black"/>
<path opacity="0.3" d="M74.9403 78.4963C74.9403 78.4963 77.4363 76.2803 78.4003 75.5403L78.0843 75.1963L74.6562 78.1923L74.9362 78.5003L74.9403 78.4963Z" fill="black"/>
<path opacity="0.3" d="M117.832 75.2644C117.832 75.2644 120.412 77.3804 121.296 78.2204L121.584 77.8564L118.088 74.9404L117.828 75.2644H117.832Z" fill="black"/>
<path opacity="0.3" d="M25.4521 85.1846C25.4521 85.1846 45.0441 87.8406 49.1642 90.7286C53.2841 93.6206 61.6761 104.953 61.6761 104.953C61.6761 104.953 51.3801 94.0846 47.2601 91.5486C43.1401 89.0126 25.4521 85.1846 25.4521 85.1846Z" fill="black"/>
<path opacity="0.3" d="M33.4639 90.5889C33.4639 90.5889 31.6639 96.2249 36.1239 96.0689C40.5879 95.9129 42.3879 93.9569 42.3879 93.9569C42.3879 93.9569 41.1359 99.1249 44.4999 99.0449C47.8679 98.9649 50.2159 96.8529 50.2159 96.8529C50.2159 96.8529 45.3599 100.993 43.0119 100.021C40.6639 99.0449 41.6599 95.6809 41.6599 95.6809C41.6599 95.6809 36.1599 98.3529 33.8879 96.4809C31.6159 94.6089 32.0599 93.7529 33.4599 90.5929L33.4639 90.5889Z" fill="black"/>
<path opacity="0.3" d="M171.04 84.1162C171.04 84.1162 151.448 86.7722 147.328 89.6602C143.208 92.5522 134.816 103.884 134.816 103.884C134.816 103.884 145.112 93.0162 149.232 90.4802C153.352 87.9442 171.04 84.1162 171.04 84.1162Z" fill="black"/>
<path opacity="0.3" d="M163.028 89.5244C163.028 89.5244 164.828 95.1604 160.368 95.0044C155.904 94.8484 154.104 92.8924 154.104 92.8924C154.104 92.8924 155.356 98.0604 151.992 97.9804C148.624 97.9004 146.276 95.7884 146.276 95.7884C146.276 95.7884 151.132 99.9284 153.48 98.9564C155.828 97.9804 154.832 94.6164 154.832 94.6164C154.832 94.6164 160.332 97.2884 162.604 95.4164C164.876 93.5444 164.432 92.6884 163.032 89.5284L163.028 89.5244Z" fill="black"/>
<path d="M86.7124 69.516C86.6524 69.516 86.5924 69.48 86.5724 69.416C86.5444 69.34 86.5844 69.252 86.6604 69.224C92.8884 66.932 99.8724 66.516 106.324 68.06C106.404 68.08 106.456 68.16 106.436 68.24C106.416 68.32 106.336 68.368 106.256 68.352C99.8564 66.82 92.9364 67.232 86.7644 69.504C86.7484 69.512 86.7284 69.512 86.7124 69.512V69.516Z" fill="#FF7415"/>
<path d="M108.153 68.8682C108.153 68.8682 108.125 68.8682 108.113 68.8642L107.125 68.5842C107.045 68.5602 106.997 68.4802 107.021 68.4002C107.045 68.3202 107.125 68.2722 107.205 68.2962L108.193 68.5762C108.273 68.6002 108.321 68.6802 108.297 68.7602C108.277 68.8282 108.217 68.8682 108.153 68.8682Z" fill="#FF7415"/>
</svg>
