<svg width="200" height="200" viewBox="0 0 200 200" fill="none" xmlns="http://www.w3.org/2000/svg">
<path d="M200 152.96H0V153.04H200V152.96Z" fill="#EBEBEB"/>
<path d="M179.96 159.4H171.28V159.48H179.96V159.4Z" fill="#EBEBEB"/>
<path d="M137.88 157.32H124.24V157.4H137.88V157.32Z" fill="#EBEBEB"/>
<path d="M176.44 155.68H158.64V155.76H176.44V155.68Z" fill="#EBEBEB"/>
<path d="M69.1998 157.68H64.7598V157.76H69.1998V157.68Z" fill="#EBEBEB"/>
<path d="M61.1998 157.68H45.8398V157.76H61.1998V157.68Z" fill="#EBEBEB"/>
<path d="M37.5995 156H26.5195V156.08H37.5995V156Z" fill="#EBEBEB"/>
<path d="M94.8003 135.12H17.5603C16.2803 135.12 15.2803 134.08 15.2803 132.84V24.28C15.2803 23.04 16.3203 22 17.5603 22H94.8003C96.0803 22 97.0803 23.04 97.0803 24.28V132.84C97.0803 134.08 96.0803 135.12 94.8003 135.12ZM17.5603 22.08C16.3603 22.08 15.3603 23.04 15.3603 24.28V132.84C15.3603 134.04 16.3203 135.04 17.5603 135.04H94.8003C96.0003 135.04 97.0003 134.08 97.0003 132.84V24.28C97.0003 23.08 96.0403 22.08 94.8003 22.08H17.5603Z" fill="#EBEBEB"/>
<path d="M181.32 135.12H104.08C102.8 135.12 101.8 134.08 101.8 132.84V24.28C101.8 23.04 102.84 22 104.08 22H181.32C182.56 22 183.6 23 183.6 24.28V132.84C183.6 134.08 182.6 135.12 181.32 135.12ZM104.08 22.08C102.88 22.08 101.88 23.04 101.88 24.28V132.84C101.88 134.04 102.84 135.04 104.08 135.04H181.32C182.52 135.04 183.52 134.08 183.52 132.84V24.28C183.52 23.08 182.56 22.08 181.32 22.08H104.08Z" fill="#EBEBEB"/>
<path d="M156.16 121.56C156 121.56 155.84 121.56 155.72 121.56C152.52 121.8 149.92 124.88 149.72 128.64C149.68 129.48 149.76 130.32 149.92 131.12C150.64 134.36 150.96 137.68 150.92 141.04V150.76C150.88 151.4 151.36 151.96 152 152.04H173.48V121.56H156.16Z" fill="#F0F0F0"/>
<path d="M179.96 129.16C179.96 124.8 176.8 121.28 173 121.56C169.8 121.8 167.2 124.88 167 128.64C166.96 129.48 167.04 130.32 167.2 131.12C167.92 134.36 168.24 137.68 168.2 141.04V150.76C168.16 151.4 168.64 151.96 169.28 152.04H177.6C178.24 152 178.72 151.4 178.68 150.76V140.48C178.64 137.36 179 134.24 179.68 131.2C179.88 130.52 179.96 129.84 179.96 129.16Z" fill="#FAFAFA"/>
<path d="M164.52 134.8H141.88V152.04H164.52V134.8Z" fill="#F5F5F5"/>
<path d="M144.64 95.3599H119.76C117.12 95.3199 114.92 97.4399 114.88 100.08C114.88 100.28 114.88 100.48 114.92 100.68L118.16 137.72H153.68L150.44 100.68C150.12 97.6799 147.64 95.3999 144.64 95.3599Z" fill="#E6E6E6"/>
<path d="M147.84 95.36H125.44C122.84 95.32 120.68 97.36 120.6 100C120.6 100.2 120.6 100.4 120.64 100.6L123.88 137.72H156.8L153.56 100.6C153.24 97.64 150.8 95.4 147.84 95.36Z" fill="#F5F5F5"/>
<path d="M143.32 134.16H164.48C165.12 134.16 165.64 134.68 165.64 135.32V137.16C165.64 137.8 165.12 138.32 164.48 138.32H143.32C143.12 138.32 142.96 138.16 142.96 137.96V134.52C143 134.32 143.16 134.16 143.32 134.16Z" fill="#EBEBEB"/>
<path d="M119.68 152.04H173.8V152.12C173.8 152.6 173.4 152.96 172.96 152.96H120.56C120.08 152.96 119.72 152.56 119.72 152.12L119.68 152.04Z" fill="#E6E6E6"/>
<path d="M120 121.56C119.84 121.56 119.68 121.56 119.56 121.56C116.36 121.8 113.76 124.88 113.56 128.64C113.52 129.48 113.6 130.32 113.76 131.12C114.48 134.36 114.8 137.68 114.76 141.04V150.76C114.72 151.4 115.2 151.96 115.84 152.04H142.16V121.56H120Z" fill="#F0F0F0"/>
<path d="M148.68 129.16C148.68 124.8 145.52 121.28 141.72 121.56C138.52 121.8 135.92 124.88 135.72 128.64C135.68 129.48 135.76 130.32 135.92 131.12C136.64 134.36 136.96 137.68 136.92 141.04V150.76C136.88 151.4 137.36 151.96 138 152.04H146.32C146.96 152 147.44 151.4 147.4 150.76V140.48C147.36 137.36 147.72 134.24 148.4 131.2C148.6 130.52 148.68 129.84 148.68 129.16Z" fill="#FAFAFA"/>
<path d="M176.32 140.88H155.64V152.96H176.32V140.88Z" fill="#F0F0F0"/>
<path d="M155.52 140.24H176.48C176.96 140.24 177.32 140.6 177.32 141.08V143.48C177.32 143.96 176.96 144.32 176.48 144.32H155.52C155.04 144.32 154.68 143.96 154.68 143.48V141.08C154.68 140.64 155.04 140.24 155.52 140.24Z" fill="#E6E6E6"/>
<path d="M46.6804 98.8398H41.4004V119.32H46.6804V98.8398Z" fill="#E6E6E6"/>
<path d="M81.7598 119.32H43.4798L40.8398 95.3604H79.1198L81.7598 119.32Z" fill="#F0F0F0"/>
<path d="M83.6402 119.32H44.8002L42.1602 95.3604H81.0002L83.6402 119.32Z" fill="#F5F5F5"/>
<path d="M46.1199 117.4L43.8799 97.2402H79.6799L81.9199 117.4H46.1199Z" fill="white"/>
<path d="M52.12 112.52L52.04 111.72C51.48 106.64 54.64 102.16 58.76 102.16L58.84 102.96C59.4 108 56.24 112.52 52.12 112.52Z" fill="#F5F5F5"/>
<path d="M59.9599 112.52L59.8799 111.72C59.3199 106.64 62.4799 102.16 66.5999 102.16L66.6799 102.96C67.2399 108 64.0799 112.52 59.9599 112.52Z" fill="#F5F5F5"/>
<path d="M67.7997 112.52L67.7197 111.72C67.1597 106.64 70.3197 102.16 74.4397 102.16L74.5197 102.96C75.0397 108 71.8797 112.52 67.7997 112.52Z" fill="#F5F5F5"/>
<path d="M109.4 119.32H86.7197V152.96H109.4V119.32Z" fill="#E6E6E6"/>
<path d="M107.08 152.96H109.36V146.48H104.72L107.08 152.96Z" fill="#F0F0F0"/>
<path d="M45.8402 119.32H23.1602V152.96H45.8402V119.32Z" fill="#E6E6E6"/>
<path d="M109.36 119.32H43.8398V149H109.36V119.32Z" fill="#F0F0F0"/>
<path d="M46.1198 152.96H43.8398V146.48H48.5198L46.1198 152.96Z" fill="#F0F0F0"/>
<path d="M107.6 121.16H45.5996V133.12H107.6V121.16Z" fill="#E6E6E6"/>
<path d="M80.76 124.88H72.48C68.88 124.88 65.44 123.4 63 120.8H90.28C87.76 123.4 84.32 124.88 80.76 124.88Z" fill="#F0F0F0"/>
<path d="M107.6 135.08H45.5996V147.04H107.6V135.08Z" fill="#E6E6E6"/>
<path d="M80.76 138.8H72.48C68.88 138.8 65.44 137.32 63 134.72H90.28C87.76 137.32 84.32 138.8 80.76 138.8Z" fill="#F0F0F0"/>
<path d="M171.04 32.4805H25.1201V82.0805H171.04V32.4805Z" fill="#E6E6E6"/>
<path d="M172.48 32.4805H25.7998V82.0805H172.48V32.4805Z" fill="#F0F0F0"/>
<path d="M171.04 82.0801H25.1201V84.8001H171.04V82.0801Z" fill="#E6E6E6"/>
<path d="M174.88 82.0801H28.2002V84.8001H174.88V82.0801Z" fill="#F0F0F0"/>
<path d="M170.44 34.5195H27.8398V80.0395H170.44V34.5195Z" fill="#FAFAFA"/>
<path d="M150 80.0795L153.28 34.5195H158.92L155.64 80.0795H150Z" fill="white"/>
<path d="M38.2803 80.0795L41.5603 34.5195H47.1603L43.9203 80.0795H38.2803Z" fill="white"/>
<path d="M28.7596 56.8797C28.6796 56.8797 28.5996 56.7997 28.5996 56.7197V35.8397C28.5996 35.7597 28.6796 35.6797 28.7596 35.6797C28.8396 35.6797 28.9196 35.7597 28.9196 35.8397V56.7197C28.9196 56.7997 28.8396 56.8797 28.7596 56.8797Z" fill="#F0F0F0"/>
<path d="M156.84 80.0795L160.12 34.5195H162.32L159.04 80.0795H156.84Z" fill="white"/>
<path d="M170.44 34.5195H170.2V80.0395H170.44V34.5195Z" fill="#E6E6E6"/>
<path opacity="0.5" d="M172.96 38.2403H27.0398L26.8398 35.3203H172.76L172.96 38.2403Z" fill="#E0E0E0"/>
<path opacity="0.5" d="M172.96 42.9601H27.0398L26.8398 40.0801H172.76L172.96 42.9601Z" fill="#E0E0E0"/>
<path opacity="0.5" d="M172.96 47.7198H27.0398L26.8398 44.8398H172.76L172.96 47.7198Z" fill="#E0E0E0"/>
<path opacity="0.5" d="M172.96 52.4796H27.0398L26.8398 49.5996H172.76L172.96 52.4796Z" fill="#E0E0E0"/>
<path opacity="0.5" d="M172.96 57.2404H27.0398L26.8398 54.3604H172.76L172.96 57.2404Z" fill="#E0E0E0"/>
<path opacity="0.5" d="M172.96 62.0001H27.0398L26.8398 59.1201H172.76L172.96 62.0001Z" fill="#E0E0E0"/>
<path d="M100 171C142.836 171 177.56 168.976 177.56 166.48C177.56 163.984 142.836 161.96 100 161.96C57.1652 161.96 22.4404 163.984 22.4404 166.48C22.4404 168.976 57.1652 171 100 171Z" fill="#F5F5F5"/>
<path d="M64.6394 43.7197H61.3594V44.1197H64.6394V43.7197Z" fill="#FF7415"/>
<path d="M58.5193 43.7197H47.2393V44.1197H58.5193V43.7197Z" fill="#FF7415"/>
<path d="M45.0395 106.68H125.56C127.2 106.72 128.56 105.4 128.6 103.72C128.6 103.6 128.6 103.48 128.6 103.36L123.68 48.4C123.48 46.56 121.96 45.12 120.08 45.08H39.5595C37.9195 45.04 36.5595 46.36 36.5195 48.04C36.5195 48.16 36.5195 48.28 36.5195 48.4L41.3995 103.36C41.5995 105.2 43.1595 106.64 45.0395 106.68Z" fill="#FF7415"/>
<path d="M45.2798 106.68H125.8C127.44 106.72 128.8 105.4 128.84 103.76C128.84 103.64 128.84 103.52 128.84 103.4L123.92 48.4001C123.72 46.5601 122.2 45.1201 120.32 45.0801H39.7998C38.1598 45.0801 36.7998 46.4001 36.7598 48.0401C36.7598 48.1601 36.7598 48.2801 36.7598 48.4001L41.6398 103.36C41.8798 105.2 43.4398 106.64 45.2798 106.68Z" fill="#FF7415"/>
<path opacity="0.2" d="M45.2798 106.68H125.8C127.44 106.72 128.8 105.4 128.84 103.76C128.84 103.64 128.84 103.52 128.84 103.4L123.92 48.4001C123.72 46.5601 122.2 45.1201 120.32 45.0801H39.7998C38.1598 45.0801 36.7998 46.4001 36.7598 48.0401C36.7598 48.1601 36.7598 48.2801 36.7598 48.4001L41.6398 103.36C41.8798 105.2 43.4398 106.64 45.2798 106.68Z" fill="black"/>
<path d="M120.479 46.7598H39.9592C39.8792 46.7598 39.7991 46.7598 39.6791 46.7598C37.6391 46.9198 38.1192 50.0398 40.1592 50.0398H120.799C122.879 50.0398 122.799 46.9198 120.719 46.7598C120.639 46.7598 120.559 46.7598 120.479 46.7598Z" fill="#FF7415"/>
<path d="M41.3996 49.3595C40.8796 49.3595 40.4396 48.9595 40.3596 48.4395C40.3196 48.1995 40.3996 47.9195 40.5996 47.7595C40.7596 47.5595 40.9996 47.4795 41.2796 47.4795C41.7996 47.4795 42.2396 47.8795 42.3196 48.4395C42.3596 48.9195 42.0396 49.3595 41.5596 49.3995C41.4796 49.3595 41.4396 49.3595 41.3996 49.3595ZM41.2396 47.8395C41.1196 47.8395 40.9596 47.8795 40.8796 47.9995C40.7996 48.1195 40.7196 48.2395 40.7596 48.3995C40.7996 48.7195 41.0796 48.9595 41.3996 48.9595C41.5196 48.9595 41.6796 48.9195 41.7596 48.7995C41.8396 48.6795 41.9196 48.5595 41.8796 48.3995C41.8396 48.1195 41.5596 47.8795 41.2396 47.8395Z" fill="#FAFAFA"/>
<path d="M43.9591 49.3595C43.4391 49.3595 42.9991 48.9595 42.9191 48.4395C42.8791 47.9595 43.2391 47.5195 43.7191 47.4795C43.7591 47.4795 43.799 47.4795 43.839 47.4795C44.359 47.4795 44.799 47.8795 44.879 48.4395C44.919 48.6795 44.839 48.9595 44.639 49.1195C44.479 49.2795 44.2391 49.3595 43.9591 49.3595ZM43.839 47.8395C43.719 47.8395 43.559 47.8795 43.479 47.9995C43.399 48.1195 43.3191 48.2395 43.3591 48.3995C43.3991 48.7195 43.6791 48.9595 43.9991 48.9595C44.1191 48.9595 44.2791 48.9195 44.3591 48.7995C44.4791 48.6795 44.519 48.5595 44.479 48.3995C44.439 48.1195 44.159 47.8795 43.839 47.8395Z" fill="#FAFAFA"/>
<path d="M46.5598 49.3595C46.0398 49.3595 45.5998 48.9595 45.5198 48.4395C45.4798 48.1995 45.5598 47.9195 45.7598 47.7595C45.9198 47.5595 46.1598 47.4795 46.4398 47.4795C46.9598 47.4795 47.3998 47.8795 47.4798 48.4395C47.5198 48.6795 47.4398 48.9595 47.2398 49.1195C47.0398 49.2795 46.7998 49.3595 46.5598 49.3595ZM46.3998 47.8395C46.2798 47.8395 46.1198 47.8795 46.0398 47.9995C45.9598 48.1195 45.8798 48.2395 45.9198 48.3995C45.9598 48.7195 46.2398 48.9595 46.5598 48.9595C46.6798 48.9595 46.8398 48.9195 46.9198 48.7995C46.9998 48.6795 47.0798 48.5595 47.0398 48.3995C46.9998 48.1195 46.7198 47.8395 46.3998 47.8395Z" fill="#FAFAFA"/>
<path d="M46.5592 101.2H123.599C124.199 101.2 124.679 100.72 124.719 100.12C124.719 100.08 124.719 100.04 124.719 99.9996L120.679 54.7996C120.599 54.1196 120.039 53.5996 119.359 53.5996H42.3192C41.7192 53.5996 41.2392 54.0796 41.1992 54.6796C41.1992 54.7196 41.1992 54.7596 41.1992 54.7996L45.2392 99.9996C45.3192 100.68 45.8792 101.2 46.5592 101.2Z" fill="white"/>
<path d="M73.2796 137.12C74.3596 140.4 72.8796 143.04 69.5996 143.04H124.12C127.4 143.04 128.84 140.4 127.8 137.12H73.2796Z" fill="#263238"/>
<path d="M49.96 56.96C61.64 83.68 52.6 110.4 61.44 137.12C62.52 140.4 66.36 143.04 69.64 143.04C72.92 143.04 74.36 140.4 73.32 137.12H121.92C113.08 110.4 122.12 83.68 110.44 56.96H49.96Z" fill="#FF7415"/>
<path opacity="0.8" d="M49.96 56.96C61.64 83.68 52.6 110.4 61.44 137.12C62.52 140.4 66.36 143.04 69.64 143.04C72.92 143.04 74.36 140.4 73.32 137.12H121.92C113.08 110.4 122.12 83.68 110.44 56.96H49.96Z" fill="white"/>
<path d="M75.7196 77.1995H60.9996C60.3596 72.1995 59.1996 67.2795 57.6396 62.4795H72.3596C73.9596 67.2795 75.0796 72.1995 75.7196 77.1995Z" fill="#FF7415"/>
<path opacity="0.6" d="M115.32 133.04H82.5198C81.1598 127.76 80.2798 122.4 79.8398 117H112.64C113.08 122.4 113.96 127.76 115.32 133.04Z" fill="#FF7415"/>
<g opacity="0.8">
<path d="M107.759 64.1595H74.9594C74.7994 63.6395 74.5995 63.0795 74.4395 62.5195H107.239C107.399 63.0395 107.559 63.5995 107.759 64.1595Z" fill="#FF7415"/>
<path d="M108.92 68.3998H76.1197C75.9997 67.8798 75.8397 67.3198 75.7197 66.7598H108.52C108.64 67.3198 108.76 67.8398 108.92 68.3998Z" fill="#FF7415"/>
<path d="M102.44 72.64H76.9997C76.8797 72.08 76.7997 71.56 76.6797 71H102.12C102.24 71.56 102.36 72.08 102.44 72.64Z" fill="#FF7415"/>
</g>
<g opacity="0.2">
<path d="M111.159 82.5195H78.3593C78.3193 82.1595 78.2793 81.7995 78.2793 81.4395H111.079C111.119 81.7995 111.159 82.1595 111.159 82.5195Z" fill="#FF7415"/>
<path d="M111.4 85.3193H78.5995C78.5595 84.9593 78.5595 84.5993 78.5195 84.2393H111.32C111.36 84.5993 111.36 84.9593 111.4 85.3193Z" fill="#FF7415"/>
<path d="M102.44 88.079H78.7597C78.7597 87.719 78.7197 87.359 78.7197 86.999H102.4L102.44 88.079Z" fill="#FF7415"/>
<path d="M111.679 90.8798H78.8789C78.8789 90.5198 78.8389 90.1598 78.8389 89.7998H111.639C111.679 90.1598 111.679 90.5598 111.679 90.8798Z" fill="#FF7415"/>
<path d="M111.799 93.6796H78.999C78.999 93.3196 78.959 92.9596 78.959 92.5996H111.759C111.759 92.9596 111.799 93.3196 111.799 93.6796Z" fill="#FF7415"/>
<path d="M86.5591 96.4794H79.0791C79.0791 96.1194 79.0791 95.7594 79.0391 95.3994H86.5191C86.5191 95.7594 86.5591 96.1194 86.5591 96.4794Z" fill="#FF7415"/>
<path d="M111.919 99.2792H79.1191C79.1191 98.9192 79.1191 98.5592 79.0791 98.1992H111.879C111.919 98.5592 111.919 98.9192 111.919 99.2792Z" fill="#FF7415"/>
<path d="M111.999 102.079H79.1992L79.1592 100.999H111.959L111.999 102.079Z" fill="#FF7415"/>
<path d="M112.039 104.88H79.2392C79.2392 104.52 79.2392 104.16 79.1992 103.8H111.999C112.039 104.16 112.039 104.52 112.039 104.88Z" fill="#FF7415"/>
<path d="M112.119 107.68H79.3193L79.2793 106.6H112.079L112.119 107.68Z" fill="#FF7415"/>
<path d="M112.239 110.479H79.4394C79.4394 110.119 79.3994 109.759 79.3994 109.399H112.199C112.199 109.759 112.239 110.119 112.239 110.479Z" fill="#FF7415"/>
<path d="M93.4396 113.279H79.5996L79.5596 112.199H93.3996L93.4396 113.279Z" fill="#FF7415"/>
</g>
<path d="M147.32 65.1602C147.68 65.6002 148 66.0002 148.28 66.4002C148.56 66.8002 148.88 67.2402 149.16 67.6802C149.76 68.5202 150.32 69.4002 150.84 70.3202C151.36 71.2402 151.88 72.1202 152.32 73.0802C152.8 74.0402 153.2 75.0402 153.52 76.0802L153.64 76.4802L153.68 76.5602L153.72 76.7202C153.76 76.8402 153.8 76.9602 153.8 77.0802C153.88 77.5202 153.88 77.9602 153.84 78.3602C153.76 79.0402 153.56 79.6802 153.28 80.2802C152.84 81.2802 152.24 82.2402 151.6 83.1602C150.36 84.8402 148.92 86.3602 147.36 87.7202L145.72 86.2402C146.8 84.6802 147.8 83.0402 148.72 81.3602C149.16 80.6002 149.48 79.8002 149.76 78.9602C149.88 78.6402 149.92 78.3202 149.92 78.0002C149.92 77.8802 149.92 77.8002 149.88 77.8002L149.84 77.7202L149.72 77.4002C148.96 75.7202 148.08 74.0802 147.08 72.5202C146.56 71.7202 146.04 70.9202 145.48 70.1602C144.92 69.4002 144.36 68.6002 143.84 67.8802L147.32 65.1602Z" fill="#FFC3BD"/>
<path d="M146.76 85.7607L144.08 86.5207L146.2 89.0007C146.2 89.0007 148 88.1607 147.8 86.7207L146.76 85.7607Z" fill="#FFC3BD"/>
<path d="M142.16 88.6805L144.56 90.6406L146.2 89.0406L144.04 86.5605L142.16 88.6805Z" fill="#FFC3BD"/>
<path d="M132.52 52.2798C132.52 52.5198 132.4 52.7198 132.24 52.7198C132.08 52.7198 131.96 52.5198 131.96 52.2798C131.96 52.0398 132.08 51.8398 132.24 51.8398C132.4 51.8398 132.52 52.0398 132.52 52.2798Z" fill="#263238"/>
<path d="M132.439 52.7207C132.159 53.4407 131.759 54.1207 131.319 54.7607C131.639 55.0007 132.079 55.0807 132.439 54.9607V52.7207Z" fill="#A02724"/>
<path d="M133.36 50.96C133.32 50.96 133.32 50.96 133.28 50.92C133 50.72 132.64 50.64 132.28 50.76C132.2 50.8 132.12 50.76 132.08 50.68C132.04 50.6 132.08 50.52 132.16 50.52C132.6 50.4 133.04 50.48 133.4 50.72C133.48 50.76 133.48 50.84 133.44 50.92C133.44 50.96 133.4 50.96 133.36 50.96Z" fill="#263238"/>
<path d="M140.2 55C139.8 57.16 139.36 61.08 140.88 62.52C140.88 62.52 140.28 64.68 136.28 64.68C131.88 64.68 134.2 62.52 134.2 62.52C136.6 61.96 136.52 60.16 136.12 58.48L140.2 55Z" fill="#FFC3BD"/>
<path d="M141.4 63.2798C141.72 62.5998 142.04 61.7998 141.36 61.5598C140.56 61.2798 136.24 60.9998 134.76 61.5198C133.96 61.7598 133.48 62.5998 133.68 63.3998L141.4 63.2798Z" fill="#FF7415"/>
<path d="M155.319 158C155.159 158.2 154.919 158.32 154.639 158.32C154.559 158.32 154.479 158.24 154.439 158.08C154.399 158 154.439 157.88 154.479 157.8C154.719 157.44 155.719 157.36 155.759 157.36C155.799 157.36 155.799 157.36 155.839 157.4C155.839 157.44 155.839 157.44 155.839 157.48C155.679 157.64 155.519 157.84 155.319 158ZM154.679 157.8L154.639 157.84C154.599 157.88 154.599 157.96 154.599 158C154.639 158.12 154.679 158.16 154.719 158.16C154.919 158.2 155.359 157.8 155.679 157.48C155.279 157.52 154.959 157.64 154.679 157.8Z" fill="#FF7415"/>
<path d="M155.839 157.441C155.479 157.521 154.599 157.401 154.439 157.121C154.399 157.041 154.399 156.921 154.479 156.841C154.559 156.761 154.639 156.721 154.759 156.721C155.199 156.721 155.799 157.321 155.839 157.321C155.839 157.321 155.879 157.361 155.839 157.401C155.839 157.441 155.839 157.441 155.839 157.441ZM154.599 156.921C154.519 157.001 154.519 157.041 154.559 157.081C154.639 157.241 155.239 157.401 155.639 157.361C155.399 157.121 155.119 156.961 154.799 156.881C154.719 156.881 154.639 156.881 154.599 156.921Z" fill="#FF7415"/>
<path d="M133.28 163.64C132.92 163.64 132.52 163.6 132.4 163.44C132.32 163.36 132.32 163.24 132.4 163.12C132.44 163.04 132.52 162.96 132.64 162.96C133.12 162.84 134.16 163.4 134.2 163.44C134.24 163.44 134.24 163.48 134.24 163.52C134.24 163.56 134.2 163.56 134.2 163.56C133.88 163.6 133.56 163.64 133.28 163.64ZM132.8 163.08C132.76 163.08 132.72 163.08 132.68 163.08C132.64 163.08 132.56 163.12 132.56 163.16C132.52 163.24 132.52 163.28 132.56 163.32C132.68 163.52 133.44 163.52 134 163.44C133.6 163.24 133.2 163.12 132.8 163.08Z" fill="#FF7415"/>
<path d="M134.16 163.56C133.76 163.4 133.08 162.76 133.12 162.44C133.12 162.36 133.2 162.28 133.36 162.24C133.52 162.24 133.64 162.28 133.76 162.36C134.12 162.68 134.2 163.48 134.2 163.48C134.2 163.52 134.2 163.52 134.16 163.56ZM133.44 162.36H133.4C133.28 162.36 133.28 162.4 133.28 162.44C133.24 162.64 133.72 163.16 134.08 163.36C134.04 163.04 133.92 162.72 133.68 162.44C133.6 162.4 133.52 162.36 133.44 162.36Z" fill="#FF7415"/>
<path d="M137.4 163.481H134.44L134.16 156.681H137.08L137.4 163.481Z" fill="#FFC3BD"/>
<path d="M158.8 156.6L155.96 157.36L152.8 151.12L155.64 150.4L158.8 156.6Z" fill="#FFC3BD"/>
<path d="M155.72 157L158.24 154.88C158.32 154.8 158.48 154.8 158.56 154.88L160.68 156.48C160.88 156.64 160.92 156.88 160.76 157.08C160.72 157.12 160.72 157.12 160.68 157.16C159.8 157.88 159.32 158.2 158.2 159.16C157.52 159.72 155.48 161.72 154.52 162.52C153.56 163.32 152.68 162.48 152.96 162.08C154.36 160.24 155.28 158.44 155.4 157.48C155.48 157.28 155.6 157.12 155.72 157Z" fill="#263238"/>
<path d="M134.479 163.16H137.679C137.799 163.16 137.919 163.24 137.919 163.36L138.519 165.96C138.559 166.2 138.439 166.4 138.199 166.48C138.159 166.48 138.119 166.48 138.119 166.48C136.959 166.48 135.279 166.4 133.839 166.4C132.119 166.4 131.399 166.48 129.399 166.48C128.199 166.48 127.839 165.28 128.359 165.16C130.639 164.68 131.799 164.6 133.799 163.36C133.959 163.24 134.199 163.16 134.479 163.16Z" fill="#263238"/>
<path d="M130.36 69.0407C129.4 70.7607 128.36 72.4007 127.28 74.0407C126.2 75.6807 125.04 77.2407 123.76 78.8007C123.6 79.0007 123.44 79.2007 123.28 79.3607L123.04 79.6407L122.92 79.8007L122.72 80.0007C122.24 80.4807 121.68 80.8807 121.04 81.2007C120.04 81.6807 119 82.0407 117.92 82.2407C115.92 82.6407 113.92 82.8007 111.88 82.7607L111.68 80.5607C113.48 80.1207 115.2 79.5607 116.92 78.9207C117.68 78.6407 118.44 78.2807 119.12 77.8407C119.36 77.6807 119.56 77.5207 119.72 77.2807L120.08 76.8007C120.2 76.6007 120.36 76.4407 120.48 76.2407C121.52 74.7207 122.56 73.1607 123.56 71.5607C124.56 69.9607 125.56 68.3607 126.52 66.7607L130.36 69.0407Z" fill="#FFC3BD"/>
<path d="M146.359 63.1999C149.119 63.8399 152.28 71.3599 152.28 71.3599L146.759 75.1599C145.399 73.1999 144.159 71.1199 143.119 68.9599C141.439 65.4799 143.519 62.5599 146.359 63.1999Z" fill="#263238"/>
<path opacity="0.3" d="M144.359 68L146.959 74.96L146.719 75.12C146.719 75.12 145.599 73.52 144.359 71.4V68Z" fill="black"/>
<path d="M129.88 63.3607C129.88 63.3607 126.76 66.8807 129.72 88.7607H145.44C145.56 86.3607 144.04 74.5607 146.36 63.2007C144.64 62.8807 142.88 62.6407 141.12 62.5207C138.88 62.4007 136.68 62.4007 134.44 62.5207C132.88 62.6807 131.36 62.9607 129.88 63.3607Z" fill="#263238"/>
<path opacity="0.3" d="M131.639 69.6807C131.239 72.1607 130.159 74.4807 128.519 76.4007C128.439 75.0007 128.439 73.7207 128.439 72.6007L131.639 69.6807Z" fill="black"/>
<path d="M132.999 65.7202C133.399 68.4802 127.919 75.6002 127.919 75.6002L122.439 71.8002C122.439 71.8002 123.959 67.8802 126.519 65.3202C129.399 62.4002 132.559 62.7202 132.999 65.7202Z" fill="#263238"/>
<path d="M111.84 80.6002L108.76 80.2402L108.84 84.0002C108.84 84.0002 111.28 84.2002 112.6 82.5202L111.84 80.6002Z" fill="#FFC3BD"/>
<path d="M105.68 81.1602L106.88 84.1602L108.84 83.9602L108.76 80.2402L105.68 81.1602Z" fill="#FFC3BD"/>
<path opacity="0.2" d="M134.16 156.681L134.32 160.521H137.28L137.12 156.681H134.16Z" fill="black"/>
<path opacity="0.2" d="M155.64 150.4L152.8 151.12L154.56 154.56L157.28 153.6L155.64 150.4Z" fill="black"/>
<path d="M140.44 51.7599C140.28 54.6799 140.32 56.3999 138.84 57.8799C136.64 60.1199 133.04 58.7999 132.36 55.8799C131.72 53.2799 132.12 48.9599 135 47.7999C137.04 46.9599 139.36 47.9199 140.2 49.9599C140.4 50.5199 140.48 51.1599 140.44 51.7599Z" fill="#FFC3BD"/>
<path d="M135.2 53.1203C133.64 52.8003 134.2 50.9603 134.6 50.4003C134.24 50.2803 134 49.8803 134.12 49.5203C134.16 49.4003 134.2 49.2803 134.32 49.2003C133.68 49.2003 132.04 49.0803 132.12 47.2003C132.2 45.3203 133.4 45.5203 133.84 46.6003C134.24 45.2803 135.64 44.4803 137 44.8403C138.68 45.2403 137.2 46.1203 137.2 46.1203C137.2 46.1203 140.84 45.4003 140.32 47.2403C141.88 47.3203 144.2 48.8003 143.04 50.0403C143.72 51.4003 143.64 52.3203 142.76 52.6803C142.44 54.3203 140.72 57.4003 139.44 57.4003C138.36 57.4403 135.28 55.9603 135.2 53.1203Z" fill="#263238"/>
<path d="M136.48 52.5598C136.36 53.2798 136 53.9198 135.44 54.3998C134.72 55.0398 134.12 54.5198 134.08 53.6398C134.08 52.8798 134.4 51.5998 135.24 51.2798C136.08 50.9598 136.64 51.7198 136.48 52.5598Z" fill="#FFC3BD"/>
<path d="M135.279 88.7607C135.279 88.7607 138.599 111.201 140.439 119.601C142.439 128.801 152.639 153.481 152.639 153.481L157.759 151.841C157.759 151.841 150.399 129.601 149.239 120.481C147.999 110.561 145.399 88.7607 145.399 88.7607H135.279Z" fill="#FF7415"/>
<path d="M151.56 152.401L152.72 154.201L158.48 152.321L157.8 150.601L151.56 152.401Z" fill="#263238"/>
<path opacity="0.3" d="M137.4 96.7604C141.24 97.5204 140.84 111.88 140.4 119.28C139.28 114.04 137.64 104 136.56 96.8404C136.8 96.7204 137.12 96.6804 137.4 96.7604Z" fill="black"/>
<path d="M129.719 88.7607C129.719 88.7607 128.319 110.721 128.639 119.681C128.959 129.001 133.199 159.521 133.199 159.521H138.159C138.159 159.521 137.359 129.561 137.559 120.401C137.799 110.401 139.999 88.7607 139.999 88.7607H129.719Z" fill="#FF7415"/>
<path d="M132.239 157.521L132.519 159.601H138.559L138.719 157.761L132.239 157.521Z" fill="#263238"/>
</svg>
