<svg width="200" height="200" viewBox="0 0 200 200" fill="none" xmlns="http://www.w3.org/2000/svg">
<path d="M179.96 159.396H166.712V159.496H179.96V159.396Z" fill="#EBEBEB"/>
<path d="M132.488 160.484H129.012V160.584H132.488V160.484Z" fill="#EBEBEB"/>
<path d="M166.312 155.684H158.636V155.784H166.312V155.684Z" fill="#EBEBEB"/>
<path d="M38.2604 156.356H20.9844V156.456H38.2604V156.356Z" fill="#EBEBEB"/>
<path d="M44.3562 156.356H41.8242V156.456H44.3562V156.356Z" fill="#EBEBEB"/>
<path d="M90.0599 158.044H52.5879V158.144H90.0599V158.044Z" fill="#EBEBEB"/>
<path d="M94.8002 135.12H17.5682C16.9624 135.12 16.3815 134.879 15.9531 134.451C15.5248 134.023 15.2842 133.442 15.2842 132.836V24.264C15.2895 23.6617 15.5324 23.0859 15.9602 22.6619C16.3879 22.2379 16.9659 22 17.5682 22H94.8002C95.4059 22 95.9869 22.2406 96.4152 22.669C96.8435 23.0973 97.0842 23.6782 97.0842 24.284V132.836C97.0842 133.442 96.8435 134.023 96.4152 134.451C95.9869 134.879 95.4059 135.12 94.8002 135.12ZM17.5682 22.08C16.9893 22.0811 16.4344 22.3115 16.025 22.7208C15.6157 23.1302 15.3852 23.6851 15.3842 24.264V132.836C15.3852 133.415 15.6157 133.97 16.025 134.379C16.4344 134.789 16.9893 135.019 17.5682 135.02H94.8002C95.3791 135.019 95.934 134.789 96.3433 134.379C96.7527 133.97 96.9831 133.415 96.9842 132.836V24.264C96.9831 23.6851 96.7527 23.1302 96.3433 22.7208C95.934 22.3115 95.3791 22.0811 94.8002 22.08H17.5682Z" fill="#EBEBEB"/>
<path d="M181.324 135.12H104.084C103.478 135.119 102.898 134.878 102.47 134.45C102.042 134.022 101.801 133.441 101.8 132.836V24.264C101.806 23.662 102.049 23.0868 102.477 22.663C102.904 22.2392 103.482 22.001 104.084 22H181.324C181.925 22.0021 182.501 22.2409 182.927 22.6647C183.353 23.0885 183.595 23.6631 183.6 24.264V132.836C183.6 133.44 183.36 134.02 182.934 134.448C182.507 134.876 181.928 135.118 181.324 135.12ZM104.084 22.08C103.505 22.0811 102.95 22.3115 102.541 22.7208C102.131 23.1302 101.901 23.6851 101.9 24.264V132.836C101.901 133.415 102.131 133.97 102.541 134.379C102.95 134.789 103.505 135.019 104.084 135.02H181.324C181.903 135.019 182.458 134.789 182.867 134.379C183.276 133.97 183.507 133.415 183.508 132.836V24.264C183.507 23.6851 183.276 23.1302 182.867 22.7208C182.458 22.3115 181.903 22.0811 181.324 22.08H104.084Z" fill="#EBEBEB"/>
<path d="M200 152.96H0V153.06H200V152.96Z" fill="#EBEBEB"/>
<path d="M64.1747 59.195L64.2948 59.3697C64.5677 59.7666 64.6717 60.2556 64.584 60.7292C64.4963 61.2028 64.2241 61.6222 63.8272 61.895L23.3312 89.7376C22.9343 90.0104 22.4453 90.1145 21.9717 90.0268C21.4981 89.9391 21.0788 89.6669 20.8059 89.27L20.6858 89.0953C20.4123 88.6975 20.3081 88.2074 20.396 87.7328C20.4838 87.2582 20.7567 86.8379 21.1544 86.5644L61.6438 58.7264C62.0416 58.453 62.5317 58.3487 63.0063 58.4366C63.4809 58.5245 63.9012 58.7973 64.1747 59.195Z" fill="#E0E0E0"/>
<path d="M29.4358 149.244H51.0679C51.9643 149.244 52.824 149.6 53.4579 150.234C54.0917 150.868 54.4478 151.728 54.4478 152.624V152.82H26.0479V152.624C26.0479 152.18 26.1355 151.739 26.3059 151.329C26.4763 150.918 26.7259 150.545 27.0407 150.231C27.3554 149.917 27.7289 149.669 28.1399 149.499C28.5509 149.33 28.9913 149.243 29.4358 149.244Z" fill="#E0E0E0"/>
<path d="M40.1076 130.82H40.3996C41.0425 130.82 41.659 131.076 42.1136 131.53C42.5682 131.985 42.8236 132.601 42.8236 133.244V151.032H37.6836V133.244C37.6836 132.601 37.939 131.985 38.3936 131.53C38.8482 131.076 39.4647 130.82 40.1076 130.82Z" fill="#E0E0E0"/>
<path d="M20.8385 87.1412L20.647 87.2225C19.7217 87.6152 19.2901 88.6837 19.6828 89.6089L38.8818 134.839C39.2745 135.764 40.343 136.196 41.2682 135.803L41.4597 135.722C42.3849 135.329 42.8166 134.261 42.4239 133.335L23.2249 88.1054C22.8322 87.1801 21.7637 86.7484 20.8385 87.1412Z" fill="#F0F0F0"/>
<path d="M60.0812 56.7616L60.4319 56.4109C61.227 55.6157 62.3055 55.169 63.43 55.169C64.5545 55.169 65.633 55.6157 66.4281 56.4109L69.4178 59.4005L63.0708 65.7475L60.0896 62.7664C59.6941 62.3731 59.38 61.9055 59.1655 61.3906C58.9509 60.8757 58.8401 60.3236 58.8393 59.7658C58.8385 59.2079 58.9478 58.6555 59.1609 58.1399C59.374 57.6244 59.6867 57.1561 60.0812 56.7616Z" fill="#EBEBEB"/>
<path d="M72.5682 59.6561L69.2402 56.3281L59.9922 65.5761L63.3202 68.9041L69.4042 85.1081L88.7722 65.7401L72.5682 59.6561Z" fill="#F0F0F0"/>
<path d="M151.276 139C145.568 138.344 144.248 129.288 148.364 125.42C152.48 121.552 161.44 123.42 161.74 129.164C161.872 131.72 156.772 130.796 154.908 132.364C153.044 133.932 153.788 139.284 151.276 139Z" fill="#F0F0F0"/>
<path d="M159.124 127.068C156.108 127.42 154.528 130.008 154.092 130.844L153.6 130.332C153.416 129.568 153.072 127.42 154.476 126.1C154.518 126.063 154.543 126.011 154.548 125.955C154.552 125.899 154.535 125.844 154.5 125.8C154.482 125.778 154.459 125.759 154.433 125.745C154.407 125.732 154.379 125.724 154.349 125.721C154.32 125.719 154.291 125.723 154.263 125.732C154.235 125.742 154.21 125.757 154.188 125.776C152.908 126.976 152.896 128.696 153.048 129.776C152.057 128.76 150.987 127.824 149.848 126.976C149.785 126.934 149.707 126.919 149.633 126.933C149.558 126.947 149.492 126.99 149.448 127.052C149.405 127.115 149.388 127.192 149.402 127.267C149.415 127.342 149.458 127.409 149.52 127.452C150.675 128.322 151.759 129.281 152.764 130.32C151.253 130.153 149.728 130.46 148.4 131.2C148.376 131.216 148.355 131.236 148.338 131.259C148.321 131.283 148.309 131.31 148.303 131.338C148.297 131.366 148.296 131.396 148.301 131.424C148.306 131.453 148.317 131.48 148.332 131.504C148.363 131.551 148.411 131.585 148.467 131.597C148.522 131.61 148.58 131.601 148.628 131.572C150.496 130.464 152.716 130.748 153.26 130.844C153.472 131.064 153.692 131.296 153.912 131.54C152.996 131.886 152.158 132.409 151.444 133.078C150.73 133.748 150.155 134.552 149.752 135.444C149.736 135.496 149.74 135.551 149.762 135.6C149.785 135.649 149.825 135.688 149.874 135.71C149.923 135.732 149.979 135.735 150.03 135.718C150.081 135.702 150.125 135.667 150.152 135.62C150.549 134.758 151.114 133.983 151.814 133.342C152.514 132.7 153.335 132.205 154.228 131.884C156.968 134.982 159.381 138.355 161.428 141.948L161.928 141.66C159.799 137.915 157.275 134.408 154.4 131.2C154.656 130.664 156.14 127.868 159.164 127.512C159.22 127.507 159.272 127.48 159.308 127.438C159.345 127.395 159.364 127.34 159.36 127.284C159.359 127.254 159.352 127.225 159.34 127.198C159.327 127.171 159.31 127.147 159.288 127.127C159.266 127.107 159.24 127.091 159.212 127.081C159.184 127.071 159.154 127.067 159.124 127.068Z" fill="#E0E0E0"/>
<path d="M174.716 134.8C181.624 132.312 180.604 120.656 174.344 117.052C168.084 113.448 157.492 118.424 158.808 125.644C159.396 128.844 165.468 126.212 168.248 127.644C171.088 129.104 171.672 135.908 174.716 134.8Z" fill="#F0F0F0"/>
<path d="M161.444 122.28C165.3 121.828 168.028 124.584 168.816 125.5C168.972 125.228 169.12 124.968 169.268 124.72C169.268 123.716 169.068 120.94 166.932 119.712C166.897 119.696 166.865 119.674 166.839 119.645C166.813 119.617 166.793 119.583 166.781 119.547C166.768 119.51 166.763 119.472 166.766 119.433C166.77 119.395 166.781 119.357 166.799 119.323C166.817 119.289 166.842 119.26 166.872 119.236C166.903 119.212 166.938 119.195 166.975 119.185C167.012 119.175 167.051 119.173 167.089 119.179C167.128 119.185 167.164 119.199 167.196 119.22C169.136 120.324 169.66 122.476 169.788 123.86C170.718 122.313 171.768 120.842 172.928 119.46C172.995 119.397 173.084 119.361 173.176 119.359C173.268 119.356 173.357 119.389 173.427 119.449C173.497 119.509 173.542 119.593 173.553 119.685C173.564 119.776 173.541 119.868 173.488 119.944C172.308 121.365 171.238 122.875 170.288 124.46C171.468 124.06 173.704 123.532 175.976 124.248C176.011 124.259 176.043 124.277 176.071 124.301C176.099 124.325 176.121 124.354 176.138 124.386C176.154 124.419 176.164 124.454 176.167 124.49C176.17 124.527 176.166 124.563 176.154 124.598C176.143 124.633 176.125 124.665 176.101 124.692C176.078 124.72 176.049 124.743 176.016 124.759C175.984 124.776 175.948 124.786 175.912 124.789C175.876 124.792 175.839 124.787 175.804 124.776C173.156 123.948 170.48 124.956 169.828 125.232C169.628 125.568 169.428 125.92 169.22 126.292C171.728 126.617 174.003 127.923 175.548 129.924C175.593 129.983 175.612 130.058 175.602 130.132C175.591 130.205 175.552 130.271 175.492 130.316C175.433 130.36 175.358 130.38 175.285 130.369C175.211 130.359 175.145 130.319 175.1 130.26C174.355 129.303 173.426 128.504 172.368 127.91C171.311 127.316 170.146 126.939 168.94 126.8C166.442 131.459 164.431 136.364 162.94 141.436L162.232 141.22C163.784 135.945 165.892 130.849 168.52 126.02C168.044 125.428 165.376 122.388 161.512 122.82C161.441 122.829 161.368 122.81 161.31 122.767C161.251 122.724 161.212 122.659 161.2 122.588C161.194 122.515 161.215 122.442 161.261 122.385C161.306 122.328 161.372 122.29 161.444 122.28Z" fill="#E0E0E0"/>
<path d="M172.8 140.252C176.952 140.352 178.8 133.996 176.24 130.816C173.68 127.636 167.072 128.084 166.284 132.164C165.936 133.98 169.68 133.828 170.856 135.148C172.032 136.468 170.98 140.208 172.8 140.252Z" fill="#E0E0E0"/>
<path d="M168.4 131.324C170.528 131.876 171.4 133.888 171.628 134.524L172.028 134.204C172.232 133.676 172.696 132.172 171.82 131.084C171.792 131.054 171.777 131.015 171.777 130.974C171.777 130.933 171.792 130.894 171.82 130.864C171.834 130.849 171.852 130.837 171.872 130.829C171.891 130.821 171.912 130.816 171.934 130.816C171.955 130.816 171.976 130.821 171.995 130.829C172.015 130.837 172.033 130.849 172.048 130.864C172.848 131.844 172.68 133.084 172.448 133.84C173.257 133.216 174.113 132.654 175.008 132.16C175.033 132.147 175.06 132.139 175.088 132.137C175.117 132.135 175.145 132.138 175.172 132.147C175.199 132.156 175.223 132.171 175.245 132.189C175.266 132.208 175.283 132.231 175.296 132.256C175.318 132.305 175.322 132.361 175.304 132.412C175.287 132.464 175.251 132.507 175.204 132.532C174.29 133.038 173.418 133.616 172.596 134.26C173.695 134.288 174.758 134.656 175.64 135.312C175.655 135.327 175.667 135.345 175.675 135.364C175.683 135.384 175.687 135.405 175.687 135.426C175.687 135.447 175.683 135.468 175.675 135.488C175.667 135.507 175.655 135.525 175.64 135.54C175.611 135.568 175.572 135.584 175.532 135.584C175.491 135.584 175.453 135.568 175.424 135.54C174.48 134.861 173.337 134.515 172.176 134.556L171.64 134.988C172.892 135.671 173.824 136.821 174.232 138.188C174.243 138.228 174.237 138.272 174.217 138.308C174.196 138.344 174.162 138.371 174.122 138.382C174.081 138.393 174.038 138.388 174.002 138.367C173.965 138.347 173.939 138.312 173.928 138.272C173.729 137.615 173.402 137.004 172.964 136.475C172.527 135.946 171.988 135.51 171.38 135.192C169.108 137.137 167.044 139.311 165.22 141.68L164.892 141.424C166.789 138.956 168.945 136.697 171.324 134.688C171.196 134.288 170.412 132.128 168.28 131.572C168.241 131.561 168.208 131.536 168.187 131.502C168.165 131.468 168.157 131.428 168.164 131.388C168.173 131.367 168.187 131.347 168.205 131.332C168.222 131.316 168.243 131.305 168.266 131.299C168.289 131.293 168.313 131.292 168.336 131.296C168.359 131.301 168.381 131.31 168.4 131.324Z" fill="#F0F0F0"/>
<path d="M147.46 140.644H175.624V148.68C175.624 149.847 175.161 150.966 174.336 151.791C173.51 152.616 172.391 153.08 171.224 153.08H151.844C150.677 153.08 149.558 152.616 148.733 151.791C147.908 150.966 147.444 149.847 147.444 148.68V140.644H147.46Z" fill="#E0E0E0"/>
<path d="M98.0716 169.484C140.905 169.484 175.628 167.456 175.628 164.956C175.628 162.455 140.905 160.428 98.0716 160.428C55.2386 160.428 20.5156 162.455 20.5156 164.956C20.5156 167.456 55.2386 169.484 98.0716 169.484Z" fill="#F5F5F5"/>
<path d="M167.408 47.6318H102.48V123.572H167.408V47.6318Z" fill="#FF7415"/>
<path opacity="0.3" d="M167.408 47.6318H102.48V123.572H167.408V47.6318Z" fill="white"/>
<path d="M111.524 54.8115H103.812V98.6115H111.524V54.8115Z" fill="#263238"/>
<path opacity="0.4" d="M111.524 54.8115H103.812V98.6115H111.524V54.8115Z" fill="white"/>
<path d="M167.408 47.6318H102.48V52.2078H167.408V47.6318Z" fill="#263238"/>
<path opacity="0.4" d="M167.412 52.2118V47.6318H102.48V52.2118" fill="white"/>
<path d="M106.513 59.1123H105.413C105.026 59.1123 104.713 59.4257 104.713 59.8123V60.9123C104.713 61.2989 105.026 61.6123 105.413 61.6123H106.513C106.899 61.6123 107.213 61.2989 107.213 60.9123V59.8123C107.213 59.4257 106.899 59.1123 106.513 59.1123Z" fill="#FF7415"/>
<path d="M109.868 59.1123H108.768C108.382 59.1123 108.068 59.4257 108.068 59.8123V60.9123C108.068 61.2989 108.382 61.6123 108.768 61.6123H109.868C110.255 61.6123 110.568 61.2989 110.568 60.9123V59.8123C110.568 59.4257 110.255 59.1123 109.868 59.1123Z" fill="#FF7415"/>
<path d="M106.513 62.6602H105.413C105.026 62.6602 104.713 62.9736 104.713 63.3602V64.4602C104.713 64.8468 105.026 65.1602 105.413 65.1602H106.513C106.899 65.1602 107.213 64.8468 107.213 64.4602V63.3602C107.213 62.9736 106.899 62.6602 106.513 62.6602Z" fill="#FF7415"/>
<path d="M109.868 62.6602H108.768C108.382 62.6602 108.068 62.9736 108.068 63.3602V64.4602C108.068 64.8468 108.382 65.1602 108.768 65.1602H109.868C110.255 65.1602 110.568 64.8468 110.568 64.4602V63.3602C110.568 62.9736 110.255 62.6602 109.868 62.6602Z" fill="#FF7415"/>
<path d="M106.513 66.2119H105.413C105.026 66.2119 104.713 66.5253 104.713 66.9119V68.0119C104.713 68.3985 105.026 68.7119 105.413 68.7119H106.513C106.899 68.7119 107.213 68.3985 107.213 68.0119V66.9119C107.213 66.5253 106.899 66.2119 106.513 66.2119Z" fill="#FF7415"/>
<path d="M109.868 66.2119H108.768C108.382 66.2119 108.068 66.5253 108.068 66.9119V68.0119C108.068 68.3985 108.382 68.7119 108.768 68.7119H109.868C110.255 68.7119 110.568 68.3985 110.568 68.0119V66.9119C110.568 66.5253 110.255 66.2119 109.868 66.2119Z" fill="#FF7415"/>
<path d="M106.513 69.7598H105.413C105.026 69.7598 104.713 70.0732 104.713 70.4598V71.5598C104.713 71.9464 105.026 72.2598 105.413 72.2598H106.513C106.899 72.2598 107.213 71.9464 107.213 71.5598V70.4598C107.213 70.0732 106.899 69.7598 106.513 69.7598Z" fill="#FF7415"/>
<path d="M109.868 69.7598H108.768C108.382 69.7598 108.068 70.0732 108.068 70.4598V71.5598C108.068 71.9464 108.382 72.2598 108.768 72.2598H109.868C110.255 72.2598 110.568 71.9464 110.568 71.5598V70.4598C110.568 70.0732 110.255 69.7598 109.868 69.7598Z" fill="#FF7415"/>
<path d="M106.513 73.3115H105.413C105.026 73.3115 104.713 73.6249 104.713 74.0115V75.1115C104.713 75.4981 105.026 75.8115 105.413 75.8115H106.513C106.899 75.8115 107.213 75.4981 107.213 75.1115V74.0115C107.213 73.6249 106.899 73.3115 106.513 73.3115Z" fill="#FF7415"/>
<path d="M109.868 73.3115H108.768C108.382 73.3115 108.068 73.6249 108.068 74.0115V75.1115C108.068 75.4981 108.382 75.8115 108.768 75.8115H109.868C110.255 75.8115 110.568 75.4981 110.568 75.1115V74.0115C110.568 73.6249 110.255 73.3115 109.868 73.3115Z" fill="#FF7415"/>
<path d="M106.513 76.8594H105.413C105.026 76.8594 104.713 77.1728 104.713 77.5594V78.6594C104.713 79.046 105.026 79.3594 105.413 79.3594H106.513C106.899 79.3594 107.213 79.046 107.213 78.6594V77.5594C107.213 77.1728 106.899 76.8594 106.513 76.8594Z" fill="#FF7415"/>
<path d="M109.868 76.8594H108.768C108.382 76.8594 108.068 77.1728 108.068 77.5594V78.6594C108.068 79.046 108.382 79.3594 108.768 79.3594H109.868C110.255 79.3594 110.568 79.046 110.568 78.6594V77.5594C110.568 77.1728 110.255 76.8594 109.868 76.8594Z" fill="#FF7415"/>
<path d="M106.513 80.4121H105.413C105.026 80.4121 104.713 80.7255 104.713 81.1121V82.2121C104.713 82.5987 105.026 82.9121 105.413 82.9121H106.513C106.899 82.9121 107.213 82.5987 107.213 82.2121V81.1121C107.213 80.7255 106.899 80.4121 106.513 80.4121Z" fill="#FF7415"/>
<path d="M109.868 80.4121H108.768C108.382 80.4121 108.068 80.7255 108.068 81.1121V82.2121C108.068 82.5987 108.382 82.9121 108.768 82.9121H109.868C110.255 82.9121 110.568 82.5987 110.568 82.2121V81.1121C110.568 80.7255 110.255 80.4121 109.868 80.4121Z" fill="#FF7415"/>
<path d="M106.513 83.96H105.413C105.026 83.96 104.713 84.2734 104.713 84.66V85.76C104.713 86.1466 105.026 86.46 105.413 86.46H106.513C106.899 86.46 107.213 86.1466 107.213 85.76V84.66C107.213 84.2734 106.899 83.96 106.513 83.96Z" fill="#FF7415"/>
<path d="M109.868 83.96H108.768C108.382 83.96 108.068 84.2734 108.068 84.66V85.76C108.068 86.1466 108.382 86.46 108.768 86.46H109.868C110.255 86.46 110.568 86.1466 110.568 85.76V84.66C110.568 84.2734 110.255 83.96 109.868 83.96Z" fill="#FF7415"/>
<path d="M107.605 89.6123H105.521C105.075 89.6123 104.713 89.9741 104.713 90.4203V92.5043C104.713 92.9505 105.075 93.3123 105.521 93.3123H107.605C108.051 93.3123 108.413 92.9505 108.413 92.5043V90.4203C108.413 89.9741 108.051 89.6123 107.605 89.6123Z" fill="#FF7415"/>
<path d="M110.561 95.4602H106.261V94.2402C106.261 94.1606 106.292 94.0843 106.349 94.028C106.405 93.9718 106.481 93.9402 106.561 93.9402C106.6 93.9396 106.64 93.947 106.676 93.9619C106.713 93.9768 106.746 93.9989 106.774 94.0268C106.802 94.0548 106.824 94.0881 106.839 94.1247C106.854 94.1614 106.861 94.2006 106.861 94.2402V94.8602H109.961V91.7602H109.341C109.301 91.7607 109.262 91.7533 109.225 91.7384C109.189 91.7235 109.155 91.7015 109.127 91.6735C109.099 91.6455 109.077 91.6122 109.062 91.5756C109.048 91.539 109.04 91.4997 109.041 91.4602C109.041 91.3806 109.072 91.3043 109.129 91.248C109.185 91.1918 109.261 91.1602 109.341 91.1602H110.541L110.561 95.4602Z" fill="#FF7415"/>
<path d="M111.524 54.8115H103.812V57.4115H111.524V54.8115Z" fill="#FF7415"/>
<path d="M164.916 121.012C164.625 121.012 164.346 120.897 164.14 120.691C163.934 120.486 163.817 120.207 163.816 119.916V54.7161C163.816 54.5719 163.845 54.429 163.9 54.2958C163.956 54.1625 164.037 54.0415 164.139 53.9397C164.241 53.8379 164.362 53.7572 164.496 53.7024C164.629 53.6476 164.772 53.6196 164.916 53.6201C165.207 53.6201 165.486 53.7356 165.691 53.9411C165.897 54.1467 166.012 54.4254 166.012 54.7161V119.916C166.012 120.207 165.897 120.486 165.691 120.691C165.486 120.897 165.207 121.012 164.916 121.012Z" fill="#263238"/>
<path opacity="0.4" d="M164.916 121.012C164.625 121.012 164.346 120.897 164.14 120.691C163.934 120.486 163.817 120.207 163.816 119.916V54.7161C163.816 54.5719 163.845 54.429 163.9 54.2958C163.956 54.1625 164.037 54.0415 164.139 53.9397C164.241 53.8379 164.362 53.7572 164.496 53.7024C164.629 53.6476 164.772 53.6196 164.916 53.6201C165.207 53.6201 165.486 53.7356 165.691 53.9411C165.897 54.1467 166.012 54.4254 166.012 54.7161V119.916C166.012 120.207 165.897 120.486 165.691 120.691C165.486 120.897 165.207 121.012 164.916 121.012Z" fill="white"/>
<path opacity="0.4" d="M159.613 57.4121H116.213V76.8641H159.613V57.4121Z" fill="white"/>
<path d="M157.349 75.6277L138.401 67.1357L157.017 58.7917L156.853 58.4277L137.913 66.9157L118.973 58.4277L118.809 58.7917L137.421 67.1357L118.809 75.4757L118.973 75.8437L137.913 67.3557L157.185 75.9917L157.349 75.6277Z" fill="#FF7415"/>
<path opacity="0.4" d="M136.629 82.2119H118.889V96.6119H136.629V82.2119Z" fill="white"/>
<path d="M135.8 95.6754L128.076 89.4114L135.66 83.2554L135.408 82.9434L127.76 89.1514L120.108 82.9434L119.856 83.2554L127.44 89.4114L119.856 95.5674L120.108 95.8754L127.76 89.6674L135.548 95.9874L135.8 95.6754Z" fill="#FF7415"/>
<path opacity="0.4" d="M156.932 82.2119H139.192V96.6119H156.932V82.2119Z" fill="white"/>
<path d="M156.1 95.6754L148.38 89.4114L155.964 83.2554L155.712 82.9434L148.06 89.1514L140.412 82.9434L140.16 83.2554L147.744 89.4114L140.16 95.5674L140.412 95.8754L148.06 89.6674L155.848 95.9874L156.1 95.6754Z" fill="#FF7415"/>
<path d="M136.161 100.352H119.361C119.235 100.352 119.115 100.302 119.027 100.214C118.938 100.125 118.889 100.005 118.889 99.8801C118.889 99.8183 118.901 99.7571 118.925 99.7001C118.948 99.6431 118.983 99.5913 119.027 99.5478C119.071 99.5043 119.123 99.4699 119.18 99.4466C119.238 99.4233 119.299 99.4116 119.361 99.4121H136.161C136.285 99.4121 136.404 99.4614 136.492 99.5492C136.579 99.637 136.629 99.756 136.629 99.8801C136.629 99.9419 136.617 100.003 136.594 100.06C136.571 100.118 136.537 100.17 136.493 100.214C136.45 100.258 136.398 100.292 136.341 100.316C136.284 100.34 136.222 100.352 136.161 100.352Z" fill="#263238"/>
<path opacity="0.4" d="M136.161 100.352H119.361C119.235 100.352 119.115 100.302 119.027 100.214C118.938 100.125 118.889 100.005 118.889 99.8801C118.889 99.8183 118.901 99.7571 118.925 99.7001C118.948 99.6431 118.983 99.5913 119.027 99.5478C119.071 99.5043 119.123 99.4699 119.18 99.4466C119.238 99.4233 119.299 99.4116 119.361 99.4121H136.161C136.285 99.4121 136.404 99.4614 136.492 99.5492C136.579 99.637 136.629 99.756 136.629 99.8801C136.629 99.9419 136.617 100.003 136.594 100.06C136.571 100.118 136.537 100.17 136.493 100.214C136.45 100.258 136.398 100.292 136.341 100.316C136.284 100.34 136.222 100.352 136.161 100.352Z" fill="white"/>
<path d="M133.173 102.24H119.361C119.235 102.24 119.115 102.19 119.027 102.102C118.938 102.013 118.889 101.893 118.889 101.768C118.889 101.643 118.938 101.523 119.027 101.434C119.115 101.346 119.235 101.296 119.361 101.296H133.173C133.298 101.296 133.418 101.346 133.506 101.434C133.595 101.523 133.645 101.643 133.645 101.768C133.645 101.893 133.595 102.013 133.506 102.102C133.418 102.19 133.298 102.24 133.173 102.24Z" fill="#263238"/>
<path opacity="0.4" d="M133.173 102.24H119.361C119.235 102.24 119.115 102.19 119.027 102.102C118.938 102.013 118.889 101.893 118.889 101.768C118.889 101.643 118.938 101.523 119.027 101.434C119.115 101.346 119.235 101.296 119.361 101.296H133.173C133.298 101.296 133.418 101.346 133.506 101.434C133.595 101.523 133.645 101.643 133.645 101.768C133.645 101.893 133.595 102.013 133.506 102.102C133.418 102.19 133.298 102.24 133.173 102.24Z" fill="white"/>
<path d="M134.144 104.124H119.344C119.219 104.124 119.099 104.074 119.01 103.985C118.922 103.897 118.872 103.777 118.872 103.652C118.877 103.527 118.932 103.41 119.023 103.325C119.114 103.24 119.236 103.195 119.36 103.2H134.16C134.285 103.2 134.405 103.249 134.494 103.338C134.582 103.426 134.632 103.546 134.632 103.672C134.627 103.796 134.573 103.913 134.481 103.998C134.39 104.083 134.269 104.128 134.144 104.124Z" fill="#263238"/>
<path opacity="0.4" d="M134.144 104.124H119.344C119.219 104.124 119.099 104.074 119.01 103.985C118.922 103.897 118.872 103.777 118.872 103.652C118.877 103.527 118.932 103.41 119.023 103.325C119.114 103.24 119.236 103.195 119.36 103.2H134.16C134.285 103.2 134.405 103.249 134.494 103.338C134.582 103.426 134.632 103.546 134.632 103.672C134.627 103.796 134.573 103.913 134.481 103.998C134.39 104.083 134.269 104.128 134.144 104.124Z" fill="white"/>
<path d="M156.46 100.352H139.66C139.537 100.349 139.42 100.298 139.334 100.21C139.248 100.122 139.2 100.003 139.2 99.8801C139.2 99.8183 139.212 99.7571 139.236 99.7001C139.26 99.6431 139.295 99.5913 139.339 99.5478C139.383 99.5043 139.435 99.4699 139.492 99.4466C139.549 99.4233 139.61 99.4116 139.672 99.4121H156.472C156.534 99.4116 156.595 99.4233 156.653 99.4466C156.71 99.4699 156.762 99.5043 156.806 99.5478C156.85 99.5913 156.884 99.6431 156.908 99.7001C156.932 99.7571 156.944 99.8183 156.944 99.8801C156.944 99.9431 156.932 100.006 156.907 100.064C156.883 100.122 156.847 100.174 156.802 100.218C156.757 100.262 156.703 100.297 156.645 100.32C156.586 100.343 156.523 100.354 156.46 100.352Z" fill="#263238"/>
<path opacity="0.4" d="M156.46 100.352H139.66C139.537 100.349 139.42 100.298 139.334 100.21C139.248 100.122 139.2 100.003 139.2 99.8801C139.2 99.8183 139.212 99.7571 139.236 99.7001C139.26 99.6431 139.295 99.5913 139.339 99.5478C139.383 99.5043 139.435 99.4699 139.492 99.4466C139.549 99.4233 139.61 99.4116 139.672 99.4121H156.472C156.534 99.4116 156.595 99.4233 156.653 99.4466C156.71 99.4699 156.762 99.5043 156.806 99.5478C156.85 99.5913 156.884 99.6431 156.908 99.7001C156.932 99.7571 156.944 99.8183 156.944 99.8801C156.944 99.9431 156.932 100.006 156.907 100.064C156.883 100.122 156.847 100.174 156.802 100.218C156.757 100.262 156.703 100.297 156.645 100.32C156.586 100.343 156.523 100.354 156.46 100.352Z" fill="white"/>
<path d="M154.676 102.24H139.664C139.539 102.24 139.419 102.19 139.331 102.102C139.242 102.013 139.192 101.893 139.192 101.768C139.192 101.643 139.242 101.523 139.331 101.434C139.419 101.346 139.539 101.296 139.664 101.296H154.676C154.802 101.296 154.922 101.346 155.01 101.434C155.099 101.523 155.148 101.643 155.148 101.768C155.148 101.893 155.099 102.013 155.01 102.102C154.922 102.19 154.802 102.24 154.676 102.24Z" fill="#263238"/>
<path opacity="0.4" d="M154.676 102.24H139.664C139.539 102.24 139.419 102.19 139.331 102.102C139.242 102.013 139.192 101.893 139.192 101.768C139.192 101.643 139.242 101.523 139.331 101.434C139.419 101.346 139.539 101.296 139.664 101.296H154.676C154.802 101.296 154.922 101.346 155.01 101.434C155.099 101.523 155.148 101.643 155.148 101.768C155.148 101.893 155.099 102.013 155.01 102.102C154.922 102.19 154.802 102.24 154.676 102.24Z" fill="white"/>
<path d="M153.649 104.124H139.649C139.524 104.124 139.404 104.074 139.315 103.985C139.226 103.897 139.177 103.777 139.177 103.652C139.177 103.527 139.226 103.406 139.315 103.318C139.404 103.229 139.524 103.18 139.649 103.18H153.649C153.711 103.18 153.772 103.192 153.829 103.216C153.887 103.239 153.939 103.274 153.983 103.318C154.026 103.362 154.061 103.414 154.085 103.471C154.109 103.528 154.121 103.59 154.121 103.652C154.121 103.714 154.109 103.775 154.085 103.832C154.061 103.89 154.026 103.942 153.983 103.985C153.939 104.029 153.887 104.064 153.829 104.088C153.772 104.111 153.711 104.124 153.649 104.124Z" fill="#263238"/>
<path opacity="0.4" d="M153.649 104.124H139.649C139.524 104.124 139.404 104.074 139.315 103.985C139.226 103.897 139.177 103.777 139.177 103.652C139.177 103.527 139.226 103.406 139.315 103.318C139.404 103.229 139.524 103.18 139.649 103.18H153.649C153.711 103.18 153.772 103.192 153.829 103.216C153.887 103.239 153.939 103.274 153.983 103.318C154.026 103.362 154.061 103.414 154.085 103.471C154.109 103.528 154.121 103.59 154.121 103.652C154.121 103.714 154.109 103.775 154.085 103.832C154.061 103.89 154.026 103.942 153.983 103.985C153.939 104.029 153.887 104.064 153.829 104.088C153.772 104.111 153.711 104.124 153.649 104.124Z" fill="white"/>
<path d="M136.161 108.848H119.361C119.235 108.848 119.115 108.799 119.027 108.71C118.938 108.622 118.889 108.501 118.889 108.376C118.889 108.314 118.901 108.253 118.925 108.196C118.948 108.138 118.983 108.086 119.027 108.043C119.071 107.999 119.123 107.964 119.18 107.94C119.237 107.917 119.299 107.904 119.361 107.904H136.161C136.222 107.904 136.284 107.917 136.341 107.94C136.398 107.964 136.45 107.999 136.493 108.043C136.537 108.087 136.571 108.139 136.594 108.196C136.617 108.253 136.629 108.314 136.629 108.376C136.629 108.438 136.617 108.499 136.594 108.557C136.571 108.614 136.537 108.666 136.493 108.71C136.45 108.754 136.398 108.789 136.341 108.812C136.284 108.836 136.222 108.848 136.161 108.848Z" fill="#263238"/>
<path opacity="0.4" d="M136.161 108.848H119.361C119.235 108.848 119.115 108.799 119.027 108.71C118.938 108.622 118.889 108.501 118.889 108.376C118.889 108.314 118.901 108.253 118.925 108.196C118.948 108.138 118.983 108.086 119.027 108.043C119.071 107.999 119.123 107.964 119.18 107.94C119.237 107.917 119.299 107.904 119.361 107.904H136.161C136.222 107.904 136.284 107.917 136.341 107.94C136.398 107.964 136.45 107.999 136.493 108.043C136.537 108.087 136.571 108.139 136.594 108.196C136.617 108.253 136.629 108.314 136.629 108.376C136.629 108.438 136.617 108.499 136.594 108.557C136.571 108.614 136.537 108.666 136.493 108.71C136.45 108.754 136.398 108.789 136.341 108.812C136.284 108.836 136.222 108.848 136.161 108.848Z" fill="white"/>
<path d="M134.373 110.732H119.361C119.299 110.733 119.238 110.721 119.18 110.698C119.123 110.674 119.071 110.64 119.027 110.596C118.983 110.553 118.948 110.501 118.925 110.444C118.901 110.387 118.889 110.326 118.889 110.264C118.889 110.139 118.938 110.019 119.027 109.93C119.115 109.842 119.235 109.792 119.361 109.792H134.373C134.498 109.792 134.618 109.842 134.706 109.93C134.795 110.019 134.845 110.139 134.845 110.264C134.845 110.326 134.832 110.387 134.809 110.444C134.785 110.501 134.75 110.553 134.706 110.596C134.662 110.64 134.61 110.674 134.553 110.698C134.496 110.721 134.434 110.733 134.373 110.732Z" fill="#263238"/>
<path opacity="0.4" d="M134.373 110.732H119.361C119.299 110.733 119.238 110.721 119.18 110.698C119.123 110.674 119.071 110.64 119.027 110.596C118.983 110.553 118.948 110.501 118.925 110.444C118.901 110.387 118.889 110.326 118.889 110.264C118.889 110.139 118.938 110.019 119.027 109.93C119.115 109.842 119.235 109.792 119.361 109.792H134.373C134.498 109.792 134.618 109.842 134.706 109.93C134.795 110.019 134.845 110.139 134.845 110.264C134.845 110.326 134.832 110.387 134.809 110.444C134.785 110.501 134.75 110.553 134.706 110.596C134.662 110.64 134.61 110.674 134.553 110.698C134.496 110.721 134.434 110.733 134.373 110.732Z" fill="white"/>
<path d="M132.144 112.62H119.344C119.219 112.62 119.099 112.57 119.01 112.482C118.922 112.393 118.872 112.273 118.872 112.148C118.872 112.023 118.922 111.903 119.01 111.814C119.099 111.726 119.219 111.676 119.344 111.676H132.144C132.206 111.676 132.267 111.688 132.325 111.712C132.382 111.735 132.434 111.77 132.478 111.814C132.522 111.858 132.556 111.91 132.58 111.967C132.604 112.024 132.616 112.086 132.616 112.148C132.616 112.21 132.604 112.271 132.58 112.328C132.556 112.386 132.522 112.438 132.478 112.482C132.434 112.525 132.382 112.56 132.325 112.584C132.267 112.608 132.206 112.62 132.144 112.62Z" fill="#263238"/>
<path opacity="0.4" d="M132.144 112.62H119.344C119.219 112.62 119.099 112.57 119.01 112.482C118.922 112.393 118.872 112.273 118.872 112.148C118.872 112.023 118.922 111.903 119.01 111.814C119.099 111.726 119.219 111.676 119.344 111.676H132.144C132.206 111.676 132.267 111.688 132.325 111.712C132.382 111.735 132.434 111.77 132.478 111.814C132.522 111.858 132.556 111.91 132.58 111.967C132.604 112.024 132.616 112.086 132.616 112.148C132.616 112.21 132.604 112.271 132.58 112.328C132.556 112.386 132.522 112.438 132.478 112.482C132.434 112.525 132.382 112.56 132.325 112.584C132.267 112.608 132.206 112.62 132.144 112.62Z" fill="white"/>
<path d="M155.26 108.848H139.66C139.535 108.848 139.415 108.799 139.327 108.71C139.238 108.622 139.188 108.501 139.188 108.376C139.188 108.314 139.201 108.253 139.224 108.196C139.248 108.138 139.283 108.086 139.327 108.043C139.371 107.999 139.423 107.964 139.48 107.94C139.537 107.917 139.598 107.904 139.66 107.904H155.26C155.322 107.904 155.384 107.917 155.441 107.94C155.498 107.964 155.55 107.999 155.594 108.043C155.638 108.086 155.673 108.138 155.697 108.196C155.72 108.253 155.732 108.314 155.732 108.376C155.732 108.501 155.683 108.622 155.594 108.71C155.506 108.799 155.386 108.848 155.26 108.848Z" fill="#263238"/>
<path opacity="0.4" d="M155.26 108.848H139.66C139.535 108.848 139.415 108.799 139.327 108.71C139.238 108.622 139.188 108.501 139.188 108.376C139.188 108.314 139.201 108.253 139.224 108.196C139.248 108.138 139.283 108.086 139.327 108.043C139.371 107.999 139.423 107.964 139.48 107.94C139.537 107.917 139.598 107.904 139.66 107.904H155.26C155.322 107.904 155.384 107.917 155.441 107.94C155.498 107.964 155.55 107.999 155.594 108.043C155.638 108.086 155.673 108.138 155.697 108.196C155.72 108.253 155.732 108.314 155.732 108.376C155.732 108.501 155.683 108.622 155.594 108.71C155.506 108.799 155.386 108.848 155.26 108.848Z" fill="white"/>
<path d="M153.476 110.732H139.664C139.603 110.733 139.541 110.721 139.484 110.698C139.427 110.674 139.375 110.64 139.331 110.596C139.287 110.553 139.252 110.501 139.228 110.444C139.205 110.387 139.192 110.326 139.192 110.264C139.192 110.139 139.242 110.019 139.331 109.93C139.419 109.842 139.539 109.792 139.664 109.792H153.476C153.602 109.792 153.722 109.842 153.81 109.93C153.899 110.019 153.948 110.139 153.948 110.264C153.948 110.326 153.936 110.387 153.912 110.444C153.889 110.501 153.854 110.553 153.81 110.596C153.766 110.64 153.714 110.674 153.657 110.698C153.599 110.721 153.538 110.733 153.476 110.732Z" fill="#263238"/>
<path opacity="0.4" d="M153.476 110.732H139.664C139.603 110.733 139.541 110.721 139.484 110.698C139.427 110.674 139.375 110.64 139.331 110.596C139.287 110.553 139.252 110.501 139.228 110.444C139.205 110.387 139.192 110.326 139.192 110.264C139.192 110.139 139.242 110.019 139.331 109.93C139.419 109.842 139.539 109.792 139.664 109.792H153.476C153.602 109.792 153.722 109.842 153.81 109.93C153.899 110.019 153.948 110.139 153.948 110.264C153.948 110.326 153.936 110.387 153.912 110.444C153.889 110.501 153.854 110.553 153.81 110.596C153.766 110.64 153.714 110.674 153.657 110.698C153.599 110.721 153.538 110.733 153.476 110.732Z" fill="white"/>
<path d="M153.649 112.62H139.649C139.524 112.62 139.404 112.57 139.315 112.482C139.226 112.393 139.177 112.273 139.177 112.148C139.177 112.023 139.226 111.903 139.315 111.814C139.404 111.726 139.524 111.676 139.649 111.676H153.649C153.711 111.676 153.772 111.688 153.829 111.712C153.887 111.735 153.939 111.77 153.983 111.814C154.026 111.858 154.061 111.91 154.085 111.967C154.109 112.024 154.121 112.086 154.121 112.148C154.121 112.21 154.109 112.271 154.085 112.328C154.061 112.386 154.026 112.438 153.983 112.482C153.939 112.525 153.887 112.56 153.829 112.584C153.772 112.608 153.711 112.62 153.649 112.62Z" fill="#263238"/>
<path opacity="0.4" d="M153.649 112.62H139.649C139.524 112.62 139.404 112.57 139.315 112.482C139.226 112.393 139.177 112.273 139.177 112.148C139.177 112.023 139.226 111.903 139.315 111.814C139.404 111.726 139.524 111.676 139.649 111.676H153.649C153.711 111.676 153.772 111.688 153.829 111.712C153.887 111.735 153.939 111.77 153.983 111.814C154.026 111.858 154.061 111.91 154.085 111.967C154.109 112.024 154.121 112.086 154.121 112.148C154.121 112.21 154.109 112.271 154.085 112.328C154.061 112.386 154.026 112.438 153.983 112.482C153.939 112.525 153.887 112.56 153.829 112.584C153.772 112.608 153.711 112.62 153.649 112.62Z" fill="white"/>
<path opacity="0.4" d="M164.916 110.9C164.816 110.9 164.716 110.88 164.623 110.842C164.529 110.803 164.445 110.747 164.373 110.675C164.302 110.604 164.245 110.519 164.207 110.426C164.168 110.333 164.148 110.233 164.148 110.132V105.676C164.148 105.473 164.229 105.277 164.373 105.133C164.517 104.989 164.713 104.908 164.916 104.908C165.017 104.908 165.117 104.928 165.21 104.967C165.303 105.005 165.387 105.062 165.458 105.133C165.529 105.205 165.585 105.289 165.623 105.383C165.662 105.476 165.681 105.576 165.68 105.676V110.132C165.681 110.233 165.662 110.333 165.623 110.426C165.585 110.519 165.529 110.604 165.458 110.675C165.387 110.746 165.303 110.803 165.21 110.842C165.117 110.88 165.017 110.9 164.916 110.9Z" fill="white"/>
<path d="M129.88 93.3115H36.16C35.1266 93.3105 34.135 93.7191 33.4025 94.4479C32.6699 95.1767 32.2562 96.1662 32.252 97.1995V156.6C32.252 157.113 32.3531 157.621 32.5495 158.094C32.746 158.568 33.0339 158.999 33.3968 159.361C33.7598 159.724 34.1906 160.012 34.6647 160.207C35.1388 160.403 35.6469 160.504 36.16 160.504H48.596V158.6C48.6001 158.335 48.7073 158.082 48.8948 157.896C49.0824 157.709 49.3353 157.603 49.6 157.6H116.4C116.668 157.6 116.926 157.706 117.116 157.896C117.305 158.086 117.412 158.343 117.412 158.612V160.516H129.852C130.887 160.516 131.88 160.104 132.613 159.372C133.345 158.64 133.756 157.647 133.756 156.612V97.1995C133.752 96.1717 133.342 95.187 132.617 94.4592C131.891 93.7313 130.908 93.3189 129.88 93.3115Z" fill="#263238"/>
<path d="M83.8404 95.8673C83.8403 96.0313 83.7913 96.1915 83.6997 96.3275C83.608 96.4635 83.4779 96.569 83.3259 96.6306C83.174 96.6922 83.0071 96.7071 82.8466 96.6733C82.6861 96.6395 82.5394 96.5586 82.4252 96.441C82.311 96.3233 82.2344 96.1742 82.2054 96.0129C82.1764 95.8515 82.1961 95.6851 82.2622 95.535C82.3283 95.3849 82.4376 95.258 82.5762 95.1704C82.7149 95.0828 82.8765 95.0385 83.0404 95.0433C83.2551 95.0486 83.4591 95.1378 83.6087 95.2919C83.7583 95.446 83.8415 95.6526 83.8404 95.8673Z" fill="#FF7415"/>
<path d="M141.452 159.039H24.584V161.963H141.452V159.039Z" fill="#263238"/>
<path opacity="0.5" d="M141.452 159.039H24.584V161.963H141.452V159.039Z" fill="white"/>
<path d="M24.584 161.968L26.4 163.416C27.5927 164.372 29.0756 164.892 30.604 164.892H135.44C136.968 164.892 138.451 164.372 139.644 163.416L141.452 161.968H24.584Z" fill="#263238"/>
<path opacity="0.3" d="M24.584 161.968L26.4 163.416C27.5927 164.372 29.0756 164.892 30.604 164.892H135.44C136.968 164.892 138.451 164.372 139.644 163.416L141.452 161.968H24.584Z" fill="white"/>
<path opacity="0.4" d="M71.7881 159.135C71.7881 159.498 71.9322 159.846 72.1888 160.102C72.4453 160.359 72.7933 160.503 73.1561 160.503H92.8801C93.2429 160.503 93.5909 160.359 93.8474 160.102C94.104 159.846 94.2481 159.498 94.2481 159.135C94.2481 159.103 94.2481 159.071 94.2481 159.039H71.7961C71.7961 159.071 71.7881 159.103 71.7881 159.135Z" fill="white"/>
<path d="M129.22 98.6074H36.8203V151.199H129.22V98.6074Z" fill="#FF7415"/>
<path opacity="0.6" d="M129.22 98.6074H36.8203V151.199H129.22V98.6074Z" fill="white"/>
<path d="M129.22 98.6074H36.8203V104.939H129.22V98.6074Z" fill="#FF7415"/>
<path opacity="0.8" d="M77.6001 103.351H41.7961C41.3845 103.351 40.9898 103.188 40.6987 102.896C40.4077 102.605 40.2441 102.211 40.2441 101.799C40.2441 101.387 40.4077 100.993 40.6987 100.702C40.9898 100.411 41.3845 100.247 41.7961 100.247H77.6001C78.0118 100.247 78.4065 100.411 78.6976 100.702C78.9886 100.993 79.1521 101.387 79.1521 101.799C79.1521 102.211 78.9886 102.605 78.6976 102.896C78.4065 103.188 78.0118 103.351 77.6001 103.351Z" fill="white"/>
<path opacity="0.8" d="M125.704 101.799C125.704 102.106 125.613 102.406 125.442 102.661C125.272 102.917 125.029 103.115 124.746 103.233C124.462 103.35 124.15 103.381 123.849 103.321C123.548 103.261 123.271 103.114 123.054 102.897C122.837 102.679 122.689 102.403 122.629 102.102C122.57 101.801 122.6 101.489 122.718 101.205C122.835 100.922 123.034 100.679 123.289 100.509C123.545 100.338 123.845 100.247 124.152 100.247C124.356 100.247 124.558 100.286 124.746 100.364C124.935 100.442 125.106 100.556 125.25 100.7C125.394 100.845 125.509 101.016 125.587 101.205C125.664 101.393 125.704 101.595 125.704 101.799Z" fill="white"/>
<path opacity="0.6" d="M118.768 103.351C119.625 103.351 120.32 102.656 120.32 101.799C120.32 100.942 119.625 100.247 118.768 100.247C117.911 100.247 117.216 100.942 117.216 101.799C117.216 102.656 117.911 103.351 118.768 103.351Z" fill="white"/>
<path opacity="0.4" d="M113.38 103.351C114.237 103.351 114.932 102.656 114.932 101.799C114.932 100.942 114.237 100.247 113.38 100.247C112.523 100.247 111.828 100.942 111.828 101.799C111.828 102.656 112.523 103.351 113.38 103.351Z" fill="white"/>
<path d="M125.704 110.991H40.2441V140.971H125.704V110.991Z" fill="#FF7415"/>
<path d="M48.4277 140.971L64.8277 124.571C65.0309 124.368 65.2723 124.207 65.5379 124.096C65.8035 123.986 66.0882 123.93 66.3757 123.93C66.6633 123.93 66.948 123.986 67.2136 124.096C67.4792 124.207 67.7205 124.368 67.9237 124.571L84.3237 140.971H48.4277Z" fill="#FF7415"/>
<path opacity="0.3" d="M48.4277 140.971L64.8277 124.571C65.0309 124.368 65.2723 124.207 65.5379 124.096C65.8035 123.986 66.0882 123.93 66.3757 123.93C66.6633 123.93 66.948 123.986 67.2136 124.096C67.4792 124.207 67.7205 124.368 67.9237 124.571L84.3237 140.971H48.4277Z" fill="black"/>
<path d="M67.9242 124.572C67.6285 124.276 67.2541 124.072 66.8456 123.983C66.4371 123.895 66.0118 123.925 65.6202 124.072C65.6202 125.412 68.6762 126.524 68.6762 127.868C68.6762 129.212 65.6162 130.328 65.6162 131.672C65.6162 133.016 71.2162 134.128 71.2162 135.472C71.2162 136.816 65.6162 137.928 65.6162 139.272C65.6162 139.752 66.2202 140.368 67.0082 140.972H84.3242L67.9242 124.572Z" fill="#FF7415"/>
<path opacity="0.4" d="M67.9242 124.572C67.6285 124.276 67.2541 124.072 66.8456 123.983C66.4371 123.895 66.0118 123.925 65.6202 124.072C65.6202 125.412 68.6762 126.524 68.6762 127.868C68.6762 129.212 65.6162 130.328 65.6162 131.672C65.6162 133.016 71.2162 134.128 71.2162 135.472C71.2162 136.816 65.6162 137.928 65.6162 139.272C65.6162 139.752 66.2202 140.368 67.0082 140.972H84.3242L67.9242 124.572Z" fill="white"/>
<path d="M77.5518 140.971L98.7998 119.707C99.3317 119.18 100.051 118.884 100.8 118.884C101.549 118.884 102.268 119.18 102.8 119.707L124.064 140.971H77.5518Z" fill="#FF7415"/>
<path opacity="0.3" d="M77.5518 140.971L98.7998 119.707C99.3317 119.18 100.051 118.884 100.8 118.884C101.549 118.884 102.268 119.18 102.8 119.707L124.064 140.971H77.5518Z" fill="black"/>
<path d="M102.832 119.708C102.448 119.324 101.962 119.059 101.431 118.944C100.901 118.829 100.348 118.869 99.8398 119.06C99.8398 120.8 103.808 122.26 103.808 123.98C103.808 125.7 99.8398 127.18 99.8398 128.912C99.8398 130.644 107.12 132.112 107.12 133.84C107.12 135.568 99.8398 137.04 99.8398 138.768C99.8398 139.392 100.64 140.192 101.644 140.972H124.096L102.832 119.708Z" fill="#FF7415"/>
<path opacity="0.4" d="M102.832 119.708C102.448 119.324 101.962 119.059 101.431 118.944C100.901 118.829 100.348 118.869 99.8398 119.06C99.8398 120.8 103.808 122.26 103.808 123.98C103.808 125.7 99.8398 127.18 99.8398 128.912C99.8398 130.644 107.12 132.112 107.12 133.84C107.12 135.568 99.8398 137.04 99.8398 138.768C99.8398 139.392 100.64 140.192 101.644 140.972H124.096L102.832 119.708Z" fill="white"/>
<path opacity="0.5" d="M83.3196 108.831H74.1916C74.0594 108.832 73.9284 108.806 73.8061 108.756C73.6839 108.706 73.5727 108.632 73.4791 108.539C73.3854 108.445 73.3111 108.334 73.2604 108.212C73.2097 108.09 73.1836 107.959 73.1836 107.827C73.1836 107.695 73.2097 107.564 73.2604 107.442C73.3111 107.32 73.3854 107.209 73.4791 107.116C73.5727 107.023 73.6839 106.949 73.8061 106.899C73.9284 106.848 74.0594 106.823 74.1916 106.823H83.3196C83.5859 106.823 83.8412 106.929 84.0295 107.117C84.2178 107.306 84.3236 107.561 84.3236 107.827C84.3236 108.094 84.2178 108.349 84.0295 108.537C83.8412 108.725 83.5859 108.831 83.3196 108.831Z" fill="white"/>
<path d="M97.2005 108.831H88.0685C87.8022 108.831 87.5468 108.725 87.3585 108.537C87.1702 108.349 87.0645 108.094 87.0645 107.827C87.0645 107.561 87.1702 107.306 87.3585 107.117C87.5468 106.929 87.8022 106.823 88.0685 106.823H97.2005C97.4667 106.823 97.7221 106.929 97.9104 107.117C98.0987 107.306 98.2044 107.561 98.2044 107.827C98.2044 108.094 98.0987 108.349 97.9104 108.537C97.7221 108.725 97.4667 108.831 97.2005 108.831Z" fill="#FF7415"/>
<path opacity="0.5" d="M111.076 108.831H101.948C101.682 108.831 101.427 108.725 101.238 108.537C101.05 108.349 100.944 108.094 100.944 107.827C100.944 107.561 101.05 107.306 101.238 107.117C101.427 106.929 101.682 106.823 101.948 106.823H111.076C111.343 106.823 111.598 106.929 111.786 107.117C111.975 107.306 112.08 107.561 112.08 107.827C112.08 108.094 111.975 108.349 111.786 108.537C111.598 108.725 111.343 108.831 111.076 108.831Z" fill="white"/>
<path d="M97.4877 145.388H81.8877C81.6883 145.388 81.497 145.309 81.356 145.168C81.215 145.027 81.1357 144.835 81.1357 144.636C81.1357 144.436 81.2148 144.244 81.3558 144.103C81.4967 143.961 81.6879 143.881 81.8877 143.88H97.4877C97.6876 143.881 97.8788 143.961 98.0197 144.103C98.1606 144.244 98.2397 144.436 98.2397 144.636C98.2397 144.835 98.1605 145.027 98.0195 145.168C97.8785 145.309 97.6872 145.388 97.4877 145.388Z" fill="#263238"/>
<path d="M109.2 145.388H100.324C100.125 145.388 99.9336 145.309 99.7925 145.168C99.6515 145.027 99.5723 144.835 99.5723 144.636C99.5723 144.436 99.6514 144.244 99.7923 144.103C99.9332 143.961 100.124 143.881 100.324 143.88H109.2C109.4 143.881 109.591 143.961 109.732 144.103C109.873 144.244 109.952 144.436 109.952 144.636C109.952 144.835 109.873 145.027 109.732 145.168C109.591 145.309 109.4 145.388 109.2 145.388Z" fill="#263238"/>
<path d="M93.5161 148.743H81.9161C81.7162 148.742 81.525 148.662 81.3841 148.521C81.2432 148.379 81.1641 148.187 81.1641 147.987C81.1641 147.788 81.2433 147.597 81.3843 147.456C81.5253 147.315 81.7166 147.235 81.9161 147.235H93.5161C93.7155 147.235 93.9068 147.315 94.0478 147.456C94.1888 147.597 94.2681 147.788 94.2681 147.987C94.2681 148.187 94.189 148.379 94.048 148.521C93.9071 148.662 93.7159 148.742 93.5161 148.743Z" fill="#263238"/>
<path d="M104.4 148.743H96.252C96.0522 148.742 95.8609 148.662 95.72 148.521C95.5791 148.379 95.5 148.187 95.5 147.987C95.5 147.788 95.5792 147.597 95.7203 147.456C95.8613 147.315 96.0526 147.235 96.252 147.235H104.4C104.599 147.235 104.791 147.315 104.932 147.456C105.073 147.597 105.152 147.788 105.152 147.987C105.152 148.187 105.073 148.379 104.932 148.521C104.791 148.662 104.6 148.742 104.4 148.743Z" fill="#263238"/>
<path opacity="0.4" d="M97.4877 145.388H81.8877C81.6883 145.388 81.497 145.309 81.356 145.168C81.215 145.027 81.1357 144.835 81.1357 144.636C81.1357 144.436 81.2148 144.244 81.3558 144.103C81.4967 143.961 81.6879 143.881 81.8877 143.88H97.4877C97.6876 143.881 97.8788 143.961 98.0197 144.103C98.1606 144.244 98.2397 144.436 98.2397 144.636C98.2397 144.835 98.1605 145.027 98.0195 145.168C97.8785 145.309 97.6872 145.388 97.4877 145.388Z" fill="white"/>
<path opacity="0.4" d="M109.2 145.388H100.324C100.125 145.388 99.9336 145.309 99.7925 145.168C99.6515 145.027 99.5723 144.835 99.5723 144.636C99.5723 144.436 99.6514 144.244 99.7923 144.103C99.9332 143.961 100.124 143.881 100.324 143.88H109.2C109.4 143.881 109.591 143.961 109.732 144.103C109.873 144.244 109.952 144.436 109.952 144.636C109.952 144.835 109.873 145.027 109.732 145.168C109.591 145.309 109.4 145.388 109.2 145.388Z" fill="white"/>
<path opacity="0.4" d="M93.5161 148.743H81.9161C81.7162 148.742 81.525 148.662 81.3841 148.521C81.2432 148.379 81.1641 148.187 81.1641 147.987C81.1641 147.788 81.2433 147.597 81.3843 147.456C81.5253 147.315 81.7166 147.235 81.9161 147.235H93.5161C93.7155 147.235 93.9068 147.315 94.0478 147.456C94.1888 147.597 94.2681 147.788 94.2681 147.987C94.2681 148.187 94.189 148.379 94.048 148.521C93.9071 148.662 93.7159 148.742 93.5161 148.743Z" fill="white"/>
<path opacity="0.4" d="M104.4 148.743H96.252C96.0522 148.742 95.8609 148.662 95.72 148.521C95.5791 148.379 95.5 148.187 95.5 147.987C95.5 147.788 95.5792 147.597 95.7203 147.456C95.8613 147.315 96.0526 147.235 96.252 147.235H104.4C104.599 147.235 104.791 147.315 104.932 147.456C105.073 147.597 105.152 147.788 105.152 147.987C105.152 148.187 105.073 148.379 104.932 148.521C104.791 148.662 104.6 148.742 104.4 148.743Z" fill="white"/>
<path opacity="0.5" d="M124.956 108.831H115.824C115.558 108.831 115.303 108.725 115.114 108.537C114.926 108.349 114.82 108.094 114.82 107.827C114.82 107.561 114.926 107.306 115.114 107.117C115.303 106.929 115.558 106.823 115.824 106.823H124.956C125.223 106.823 125.478 106.929 125.666 107.117C125.855 107.306 125.96 107.561 125.96 107.827C125.96 108.094 125.855 108.349 125.666 108.537C125.478 108.725 125.223 108.831 124.956 108.831Z" fill="white"/>
<path d="M77.2238 126.907H48.0078V151.195H77.2238V126.907Z" fill="#FF7415"/>
<path opacity="0.8" d="M77.2238 126.907H48.0078V151.195H77.2238V126.907Z" fill="white"/>
<path d="M71.8764 129.647H53.3604V141.819H71.8764V129.647Z" fill="#FF7415"/>
<path opacity="0.4" d="M71.8764 129.647H53.3604V141.819H71.8764V129.647Z" fill="white"/>
<path d="M59.6922 136.287L54.1562 141.823H65.2283L59.6922 136.287Z" fill="#FF7415"/>
<path opacity="0.2" d="M59.6922 136.287L54.1562 141.823H65.2283L59.6922 136.287Z" fill="black"/>
<path d="M71.6882 141.823L66.1922 132.447L60.7002 141.823H71.6882Z" fill="#FF7415"/>
<path opacity="0.8" d="M62.264 133.544C62.264 133.764 62.1988 133.979 62.0766 134.161C61.9544 134.344 61.7808 134.487 61.5776 134.571C61.3744 134.655 61.1508 134.677 60.9351 134.634C60.7194 134.591 60.5213 134.485 60.3657 134.33C60.2102 134.174 60.1043 133.976 60.0614 133.761C60.0185 133.545 60.0405 133.321 60.1247 133.118C60.2089 132.915 60.3514 132.741 60.5342 132.619C60.7171 132.497 60.9321 132.432 61.152 132.432C61.2982 132.431 61.4431 132.46 61.5782 132.515C61.7134 132.571 61.8362 132.653 61.9395 132.756C62.0429 132.86 62.1248 132.982 62.1805 133.117C62.2362 133.253 62.2646 133.397 62.264 133.544Z" fill="white"/>
<path d="M118.608 115.864H118.208C118.208 115.597 118.103 115.342 117.914 115.154C117.726 114.965 117.471 114.86 117.204 114.86H116.564C116.565 114.727 116.539 114.596 116.489 114.474C116.439 114.352 116.365 114.241 116.272 114.147C116.179 114.053 116.068 113.979 115.946 113.928C115.824 113.878 115.693 113.852 115.56 113.852H109.384C109.252 113.852 109.121 113.878 108.999 113.928C108.877 113.979 108.766 114.053 108.673 114.147C108.58 114.241 108.506 114.352 108.456 114.474C108.406 114.596 108.38 114.727 108.38 114.86H107.74C107.474 114.86 107.219 114.965 107.031 115.154C106.842 115.342 106.736 115.597 106.736 115.864H104.664C104.415 115.886 104.182 116.001 104.013 116.186C103.844 116.371 103.75 116.613 103.75 116.864C103.75 117.114 103.844 117.356 104.013 117.541C104.182 117.726 104.415 117.841 104.664 117.864H118.608C118.858 117.841 119.091 117.726 119.26 117.541C119.429 117.356 119.523 117.114 119.523 116.864C119.523 116.613 119.429 116.371 119.26 116.186C119.091 116.001 118.858 115.886 118.608 115.864Z" fill="#FF7415"/>
<path opacity="0.8" d="M118.608 115.864H118.208C118.208 115.597 118.103 115.342 117.914 115.154C117.726 114.965 117.471 114.86 117.204 114.86H116.564C116.565 114.727 116.539 114.596 116.489 114.474C116.439 114.352 116.365 114.241 116.272 114.147C116.179 114.053 116.068 113.979 115.946 113.928C115.824 113.878 115.693 113.852 115.56 113.852H109.384C109.252 113.852 109.121 113.878 108.999 113.928C108.877 113.979 108.766 114.053 108.673 114.147C108.58 114.241 108.506 114.352 108.456 114.474C108.406 114.596 108.38 114.727 108.38 114.86H107.74C107.474 114.86 107.219 114.965 107.031 115.154C106.842 115.342 106.736 115.597 106.736 115.864H104.664C104.415 115.886 104.182 116.001 104.013 116.186C103.844 116.371 103.75 116.613 103.75 116.864C103.75 117.114 103.844 117.356 104.013 117.541C104.182 117.726 104.415 117.841 104.664 117.864H118.608C118.858 117.841 119.091 117.726 119.26 117.541C119.429 117.356 119.523 117.114 119.523 116.864C119.523 116.613 119.429 116.371 119.26 116.186C119.091 116.001 118.858 115.886 118.608 115.864Z" fill="white"/>
<path d="M66.4761 123.311H66.1281C66.1281 123.086 66.0387 122.871 65.8797 122.712C65.7206 122.553 65.505 122.463 65.28 122.463H64.7401C64.7401 122.238 64.6507 122.023 64.4917 121.864C64.3326 121.705 64.117 121.615 63.892 121.615H62.08C61.8551 121.615 61.6395 121.705 61.4804 121.864C61.3214 122.023 61.232 122.238 61.232 122.463H60.692C60.5809 122.463 60.4708 122.485 60.3681 122.528C60.2655 122.571 60.1723 122.633 60.0938 122.712C60.0154 122.791 59.9533 122.884 59.9111 122.987C59.869 123.09 59.8475 123.2 59.848 123.311H58.0961C57.8711 123.311 57.6555 123.401 57.4964 123.56C57.3374 123.719 57.248 123.934 57.248 124.159C57.248 124.384 57.3374 124.6 57.4964 124.759C57.6555 124.918 57.8711 125.007 58.0961 125.007H66.4761C66.701 125.007 66.9166 124.918 67.0757 124.759C67.2347 124.6 67.324 124.384 67.324 124.159C67.324 123.934 67.2347 123.719 67.0757 123.56C66.9166 123.401 66.701 123.311 66.4761 123.311Z" fill="#FF7415"/>
<path opacity="0.8" d="M66.4761 123.311H66.1281C66.1281 123.086 66.0387 122.871 65.8797 122.712C65.7206 122.553 65.505 122.463 65.28 122.463H64.7401C64.7401 122.238 64.6507 122.023 64.4917 121.864C64.3326 121.705 64.117 121.615 63.892 121.615H62.08C61.8551 121.615 61.6395 121.705 61.4804 121.864C61.3214 122.023 61.232 122.238 61.232 122.463H60.692C60.5809 122.463 60.4708 122.485 60.3681 122.528C60.2655 122.571 60.1723 122.633 60.0938 122.712C60.0154 122.791 59.9533 122.884 59.9111 122.987C59.869 123.09 59.8475 123.2 59.848 123.311H58.0961C57.8711 123.311 57.6555 123.401 57.4964 123.56C57.3374 123.719 57.248 123.934 57.248 124.159C57.248 124.384 57.3374 124.6 57.4964 124.759C57.6555 124.918 57.8711 125.007 58.0961 125.007H66.4761C66.701 125.007 66.9166 124.918 67.0757 124.759C67.2347 124.6 67.324 124.384 67.324 124.159C67.324 123.934 67.2347 123.719 67.0757 123.56C66.9166 123.401 66.701 123.311 66.4761 123.311Z" fill="white"/>
<path d="M95.4361 125.999H95.0361C95.0361 125.733 94.9303 125.478 94.742 125.289C94.5537 125.101 94.2984 124.995 94.0321 124.995H93.3921C93.3912 124.818 93.3444 124.645 93.2561 124.491C93.3449 124.339 93.392 124.166 93.3924 123.99C93.3928 123.813 93.3466 123.64 93.2585 123.487C93.1704 123.335 93.0435 123.208 92.8906 123.12C92.7377 123.032 92.5644 122.987 92.3881 122.987H90.2441C89.9778 122.987 89.7224 123.093 89.5342 123.281C89.3459 123.47 89.2401 123.725 89.2401 123.991H88.4001C88.1338 123.991 87.8784 124.097 87.6902 124.285C87.5019 124.474 87.3961 124.729 87.3961 124.995H86.7601C86.6279 124.995 86.4969 125.02 86.3746 125.071C86.2524 125.121 86.1412 125.195 86.0476 125.288C85.9539 125.381 85.8796 125.492 85.8289 125.614C85.7782 125.736 85.7521 125.867 85.7521 125.999H83.6801C83.4303 126.022 83.1979 126.137 83.0287 126.322C82.8595 126.507 82.7656 126.749 82.7656 126.999C82.7656 127.25 82.8595 127.492 83.0287 127.677C83.1979 127.862 83.4303 127.977 83.6801 127.999H95.4321C95.6819 127.977 95.9142 127.862 96.0835 127.677C96.2527 127.492 96.3466 127.25 96.3466 126.999C96.3466 126.749 96.2527 126.507 96.0835 126.322C95.9142 126.137 95.6819 126.022 95.4321 125.999H95.4361Z" fill="#FF7415"/>
<path opacity="0.8" d="M95.4361 125.999H95.0361C95.0361 125.733 94.9303 125.478 94.742 125.289C94.5537 125.101 94.2984 124.995 94.0321 124.995H93.3921C93.3912 124.818 93.3444 124.645 93.2561 124.491C93.3449 124.339 93.392 124.166 93.3924 123.99C93.3928 123.813 93.3466 123.64 93.2585 123.487C93.1704 123.335 93.0435 123.208 92.8906 123.12C92.7377 123.032 92.5644 122.987 92.3881 122.987H90.2441C89.9778 122.987 89.7224 123.093 89.5342 123.281C89.3459 123.47 89.2401 123.725 89.2401 123.991H88.4001C88.1338 123.991 87.8784 124.097 87.6902 124.285C87.5019 124.474 87.3961 124.729 87.3961 124.995H86.7601C86.6279 124.995 86.4969 125.02 86.3746 125.071C86.2524 125.121 86.1412 125.195 86.0476 125.288C85.9539 125.381 85.8796 125.492 85.8289 125.614C85.7782 125.736 85.7521 125.867 85.7521 125.999H83.6801C83.4303 126.022 83.1979 126.137 83.0287 126.322C82.8595 126.507 82.7656 126.749 82.7656 126.999C82.7656 127.25 82.8595 127.492 83.0287 127.677C83.1979 127.862 83.4303 127.977 83.6801 127.999H95.4321C95.6819 127.977 95.9142 127.862 96.0835 127.677C96.2527 127.492 96.3466 127.25 96.3466 126.999C96.3466 126.749 96.2527 126.507 96.0835 126.322C95.9142 126.137 95.6819 126.022 95.4321 125.999H95.4361Z" fill="white"/>
<path d="M70.5884 144.74H53.7884C53.7319 144.74 53.6758 144.73 53.6234 144.708C53.571 144.687 53.5234 144.656 53.4832 144.616C53.443 144.576 53.4112 144.529 53.3894 144.477C53.3676 144.424 53.3564 144.368 53.3564 144.312C53.3564 144.197 53.402 144.087 53.483 144.006C53.564 143.925 53.6739 143.88 53.7884 143.88H70.5884C70.6452 143.88 70.7014 143.891 70.7538 143.913C70.8062 143.934 70.8538 143.966 70.8939 144.006C70.934 144.047 70.9659 144.094 70.9876 144.147C71.0093 144.199 71.0204 144.255 71.0204 144.312C71.0204 144.368 71.0092 144.424 70.9875 144.477C70.9657 144.529 70.9338 144.576 70.8937 144.616C70.8535 144.656 70.8059 144.687 70.7535 144.708C70.7011 144.73 70.645 144.74 70.5884 144.74Z" fill="#263238"/>
<path opacity="0.4" d="M70.5884 144.74H53.7884C53.7319 144.74 53.6758 144.73 53.6234 144.708C53.571 144.687 53.5234 144.656 53.4832 144.616C53.443 144.576 53.4112 144.529 53.3894 144.477C53.3676 144.424 53.3564 144.368 53.3564 144.312C53.3564 144.197 53.402 144.087 53.483 144.006C53.564 143.925 53.6739 143.88 53.7884 143.88H70.5884C70.6452 143.88 70.7014 143.891 70.7538 143.913C70.8062 143.934 70.8538 143.966 70.8939 144.006C70.934 144.047 70.9659 144.094 70.9876 144.147C71.0093 144.199 71.0204 144.255 71.0204 144.312C71.0204 144.368 71.0092 144.424 70.9875 144.477C70.9657 144.529 70.9338 144.576 70.8937 144.616C70.8535 144.656 70.8059 144.687 70.7535 144.708C70.7011 144.73 70.645 144.74 70.5884 144.74Z" fill="white"/>
<path d="M67.8644 146.464H53.7924C53.7356 146.464 53.6794 146.452 53.627 146.431C53.5746 146.409 53.527 146.377 53.4869 146.337C53.4468 146.297 53.4149 146.249 53.3932 146.197C53.3715 146.144 53.3604 146.088 53.3604 146.032C53.3603 145.975 53.3716 145.919 53.3933 145.867C53.4151 145.815 53.447 145.767 53.4871 145.727C53.5273 145.688 53.5749 145.656 53.6273 145.635C53.6797 145.614 53.7358 145.603 53.7924 145.604H67.8644C67.9779 145.604 68.0867 145.649 68.167 145.729C68.2473 145.809 68.2924 145.918 68.2924 146.032C68.2929 146.088 68.2822 146.144 68.2609 146.197C68.2397 146.249 68.2082 146.297 68.1684 146.337C68.1286 146.377 68.0813 146.409 68.0291 146.431C67.9769 146.452 67.9209 146.464 67.8644 146.464Z" fill="#263238"/>
<path opacity="0.4" d="M67.8644 146.464H53.7924C53.7356 146.464 53.6794 146.452 53.627 146.431C53.5746 146.409 53.527 146.377 53.4869 146.337C53.4468 146.297 53.4149 146.249 53.3932 146.197C53.3715 146.144 53.3604 146.088 53.3604 146.032C53.3603 145.975 53.3716 145.919 53.3933 145.867C53.4151 145.815 53.447 145.767 53.4871 145.727C53.5273 145.688 53.5749 145.656 53.6273 145.635C53.6797 145.614 53.7358 145.603 53.7924 145.604H67.8644C67.9779 145.604 68.0867 145.649 68.167 145.729C68.2473 145.809 68.2924 145.918 68.2924 146.032C68.2929 146.088 68.2822 146.144 68.2609 146.197C68.2397 146.249 68.2082 146.297 68.1684 146.337C68.1286 146.377 68.0813 146.409 68.0291 146.431C67.9769 146.452 67.9209 146.464 67.8644 146.464Z" fill="white"/>
<path d="M68.7524 148.183H53.7924C53.7358 148.184 53.6797 148.173 53.6273 148.152C53.5749 148.131 53.5273 148.099 53.4871 148.059C53.447 148.02 53.4151 147.972 53.3933 147.92C53.3716 147.868 53.3603 147.812 53.3604 147.755C53.3604 147.699 53.3715 147.642 53.3932 147.59C53.4149 147.538 53.4468 147.49 53.4869 147.45C53.527 147.41 53.5746 147.378 53.627 147.356C53.6794 147.334 53.7356 147.323 53.7924 147.323H68.7524C68.8089 147.323 68.8649 147.334 68.9171 147.356C68.9693 147.378 69.0166 147.41 69.0564 147.45C69.0962 147.49 69.1277 147.538 69.1489 147.59C69.1702 147.643 69.1809 147.699 69.1804 147.755C69.1804 147.869 69.1353 147.978 69.055 148.058C68.9747 148.138 68.8659 148.183 68.7524 148.183Z" fill="#263238"/>
<path opacity="0.4" d="M68.7524 148.183H53.7924C53.7358 148.184 53.6797 148.173 53.6273 148.152C53.5749 148.131 53.5273 148.099 53.4871 148.059C53.447 148.02 53.4151 147.972 53.3933 147.92C53.3716 147.868 53.3603 147.812 53.3604 147.755C53.3604 147.699 53.3715 147.642 53.3932 147.59C53.4149 147.538 53.4468 147.49 53.4869 147.45C53.527 147.41 53.5746 147.378 53.627 147.356C53.6794 147.334 53.7356 147.323 53.7924 147.323H68.7524C68.8089 147.323 68.8649 147.334 68.9171 147.356C68.9693 147.378 69.0166 147.41 69.0564 147.45C69.0962 147.49 69.1277 147.538 69.1489 147.59C69.1702 147.643 69.1809 147.699 69.1804 147.755C69.1804 147.869 69.1353 147.978 69.055 148.058C68.9747 148.138 68.8659 148.183 68.7524 148.183Z" fill="white"/>
<path d="M59.884 100.863C59.7316 100.726 59.532 100.652 59.3268 100.658C59.1215 100.663 58.9261 100.747 58.7812 100.893C58.6362 101.038 58.5527 101.234 58.5481 101.439C58.5434 101.644 58.6178 101.844 58.756 101.995C58.8882 102.127 59.0619 102.208 59.2474 102.224C59.4329 102.241 59.6184 102.193 59.772 102.087C59.7759 102.129 59.7927 102.168 59.82 102.199L60.36 102.735C60.3776 102.753 60.3985 102.767 60.4215 102.777C60.4445 102.786 60.4691 102.791 60.494 102.791C60.5189 102.791 60.5435 102.786 60.5665 102.777C60.5895 102.767 60.6104 102.753 60.628 102.735C60.6456 102.718 60.6595 102.697 60.6691 102.674C60.6786 102.651 60.6835 102.626 60.6835 102.601C60.6835 102.577 60.6786 102.552 60.6691 102.529C60.6595 102.506 60.6456 102.485 60.628 102.467L60.092 101.927C60.0605 101.9 60.0214 101.883 59.98 101.879C60.0848 101.725 60.1325 101.54 60.115 101.354C60.0975 101.169 60.0158 100.995 59.884 100.863ZM59.724 101.831C59.6447 101.911 59.5435 101.966 59.4332 101.988C59.3229 102.01 59.2085 102 59.1044 101.957C59.0004 101.914 58.9114 101.841 58.8488 101.748C58.7861 101.654 58.7527 101.544 58.7527 101.431C58.7527 101.319 58.7861 101.209 58.8488 101.115C58.9114 101.022 59.0004 100.949 59.1044 100.906C59.2085 100.863 59.3229 100.852 59.4332 100.875C59.5435 100.897 59.6447 100.952 59.724 101.031C59.8285 101.138 59.8871 101.282 59.8871 101.431C59.8871 101.581 59.8285 101.725 59.724 101.831Z" fill="#FF7415"/>
<path opacity="0.2" d="M59.884 100.863C59.7316 100.726 59.532 100.652 59.3268 100.658C59.1215 100.663 58.9261 100.747 58.7812 100.893C58.6362 101.038 58.5527 101.234 58.5481 101.439C58.5434 101.644 58.6178 101.844 58.756 101.995C58.8882 102.127 59.0619 102.208 59.2474 102.224C59.4329 102.241 59.6184 102.193 59.772 102.087C59.7759 102.129 59.7927 102.168 59.82 102.199L60.36 102.735C60.3776 102.753 60.3985 102.767 60.4215 102.777C60.4445 102.786 60.4691 102.791 60.494 102.791C60.5189 102.791 60.5435 102.786 60.5665 102.777C60.5895 102.767 60.6104 102.753 60.628 102.735C60.6456 102.718 60.6595 102.697 60.6691 102.674C60.6786 102.651 60.6835 102.626 60.6835 102.601C60.6835 102.577 60.6786 102.552 60.6691 102.529C60.6595 102.506 60.6456 102.485 60.628 102.467L60.092 101.927C60.0605 101.9 60.0214 101.883 59.98 101.879C60.0848 101.725 60.1325 101.54 60.115 101.354C60.0975 101.169 60.0158 100.995 59.884 100.863ZM59.724 101.831C59.6447 101.911 59.5435 101.966 59.4332 101.988C59.3229 102.01 59.2085 102 59.1044 101.957C59.0004 101.914 58.9114 101.841 58.8488 101.748C58.7861 101.654 58.7527 101.544 58.7527 101.431C58.7527 101.319 58.7861 101.209 58.8488 101.115C58.9114 101.022 59.0004 100.949 59.1044 100.906C59.2085 100.863 59.3229 100.852 59.4332 100.875C59.5435 100.897 59.6447 100.952 59.724 101.031C59.8285 101.138 59.8871 101.282 59.8871 101.431C59.8871 101.581 59.8285 101.725 59.724 101.831Z" fill="black"/>
<path d="M146.264 126C146.052 126 145.848 126.084 145.698 126.234C145.548 126.384 145.464 126.588 145.464 126.8V134.584H138.928L140.204 133.308C140.278 133.234 140.337 133.145 140.378 133.048C140.418 132.951 140.439 132.847 140.439 132.742C140.439 132.637 140.418 132.533 140.378 132.436C140.337 132.339 140.278 132.25 140.204 132.176C140.054 132.027 139.851 131.943 139.64 131.943C139.429 131.943 139.226 132.027 139.076 132.176L135.876 135.376L139.076 138.576C139.226 138.725 139.429 138.809 139.64 138.809C139.851 138.809 140.054 138.725 140.204 138.576C140.278 138.502 140.337 138.413 140.378 138.316C140.418 138.219 140.439 138.115 140.439 138.01C140.439 137.905 140.418 137.801 140.378 137.704C140.337 137.607 140.278 137.518 140.204 137.444L138.928 136.168H147.064V126.8C147.064 126.588 146.98 126.384 146.83 126.234C146.68 126.084 146.476 126 146.264 126Z" fill="#FF7415"/>
<path opacity="0.7" d="M146.264 126C146.052 126 145.848 126.084 145.698 126.234C145.548 126.384 145.464 126.588 145.464 126.8V134.584H138.928L140.204 133.308C140.278 133.234 140.337 133.145 140.378 133.048C140.418 132.951 140.439 132.847 140.439 132.742C140.439 132.637 140.418 132.533 140.378 132.436C140.337 132.339 140.278 132.25 140.204 132.176C140.054 132.027 139.851 131.943 139.64 131.943C139.429 131.943 139.226 132.027 139.076 132.176L135.876 135.376L139.076 138.576C139.226 138.725 139.429 138.809 139.64 138.809C139.851 138.809 140.054 138.725 140.204 138.576C140.278 138.502 140.337 138.413 140.378 138.316C140.418 138.219 140.439 138.115 140.439 138.01C140.439 137.905 140.418 137.801 140.378 137.704C140.337 137.607 140.278 137.518 140.204 137.444L138.928 136.168H147.064V126.8C147.064 126.588 146.98 126.384 146.83 126.234C146.68 126.084 146.476 126 146.264 126Z" fill="white"/>
<path opacity="0.4" d="M168.168 41.7275V45.5115H171.952L168.168 41.7275Z" fill="white"/>
<path d="M172.108 47.0476L172.136 63.4476C172.136 63.5503 172.096 63.6492 172.026 63.7236C171.955 63.7981 171.858 63.8425 171.756 63.8476L156.58 63.8756C156.474 63.8756 156.372 63.8335 156.297 63.7585C156.222 63.6835 156.18 63.5817 156.18 63.4756L156.14 42.1236C156.14 42.0175 156.182 41.9158 156.257 41.8408C156.332 41.7658 156.434 41.7236 156.54 41.7236H166.764L172.108 47.0476Z" fill="#FF7415"/>
<g opacity="0.7">
<path d="M172.108 47.0476L172.136 63.4476C172.136 63.5503 172.096 63.6492 172.026 63.7236C171.955 63.7981 171.858 63.8425 171.756 63.8476L156.58 63.8756C156.474 63.8756 156.372 63.8335 156.297 63.7585C156.222 63.6835 156.18 63.5817 156.18 63.4756L156.14 42.1236C156.14 42.0175 156.182 41.9158 156.257 41.8408C156.332 41.7658 156.434 41.7236 156.54 41.7236H166.764L172.108 47.0476Z" fill="white"/>
</g>
<path d="M166.771 41.7275V46.6795C166.771 46.7856 166.814 46.8874 166.889 46.9624C166.964 47.0374 167.065 47.0795 167.171 47.0795H172.107L166.771 41.7275Z" fill="#FF7415"/>
<path opacity="0.9" d="M166.771 41.7275V46.6795C166.771 46.7856 166.814 46.8874 166.889 46.9624C166.964 47.0374 167.065 47.0795 167.171 47.0795H172.107L166.771 41.7275Z" fill="white"/>
<g opacity="0.8">
<path d="M168.232 51.6432H160.156C160.03 51.6432 159.91 51.5935 159.822 51.505C159.733 51.4165 159.684 51.2964 159.684 51.1712C159.684 51.1092 159.696 51.0479 159.72 50.9906C159.743 50.9333 159.778 50.8813 159.822 50.8375C159.866 50.7936 159.918 50.7589 159.975 50.7351C160.032 50.7114 160.094 50.6992 160.156 50.6992H168.232C168.294 50.6992 168.355 50.7114 168.412 50.7351C168.469 50.7589 168.522 50.7936 168.565 50.8375C168.609 50.8813 168.644 50.9333 168.668 50.9906C168.691 51.0479 168.704 51.1092 168.704 51.1712C168.704 51.2964 168.654 51.4165 168.565 51.505C168.477 51.5935 168.357 51.6432 168.232 51.6432Z" fill="white"/>
<path d="M168.14 54.3511H160.14C160.078 54.3517 160.017 54.3399 159.96 54.3167C159.902 54.2934 159.85 54.259 159.806 54.2155C159.763 54.172 159.728 54.1202 159.704 54.0632C159.68 54.0061 159.668 53.9449 159.668 53.8831C159.668 53.758 159.718 53.6379 159.806 53.5494C159.895 53.4609 160.015 53.4111 160.14 53.4111H168.14C168.265 53.4111 168.385 53.4609 168.474 53.5494C168.562 53.6379 168.612 53.758 168.612 53.8831C168.612 53.9449 168.6 54.0061 168.576 54.0632C168.552 54.1202 168.517 54.172 168.473 54.2155C168.43 54.259 168.378 54.2934 168.32 54.3167C168.263 54.3399 168.202 54.3517 168.14 54.3511Z" fill="white"/>
<path d="M167.968 57.2311H160.156C160.03 57.2311 159.91 57.1814 159.822 57.0929C159.733 57.0043 159.684 56.8843 159.684 56.7591C159.684 56.6339 159.733 56.5139 159.822 56.4254C159.91 56.3368 160.03 56.2871 160.156 56.2871H167.968C168.093 56.2871 168.213 56.3368 168.301 56.4254C168.39 56.5139 168.44 56.6339 168.44 56.7591C168.44 56.8843 168.39 57.0043 168.301 57.0929C168.213 57.1814 168.093 57.2311 167.968 57.2311Z" fill="white"/>
</g>
<path d="M119.048 49.3037H96.9883V63.8077H119.048V49.3037Z" fill="#FF7415"/>
<path opacity="0.7" d="M119.048 49.3037H96.9883V63.8077H119.048V49.3037Z" fill="white"/>
<path d="M104.533 57.2119L97.9365 63.8079H111.129L104.533 57.2119Z" fill="#FF7415"/>
<path opacity="0.3" d="M104.533 57.2119L97.9365 63.8079H111.129L104.533 57.2119Z" fill="white"/>
<path d="M118.82 63.8076L112.276 52.6396L105.732 63.8076H118.82Z" fill="#FF7415"/>
<path opacity="0.5" d="M118.82 63.8076L112.276 52.6396L105.732 63.8076H118.82Z" fill="white"/>
<path opacity="0.8" d="M106.276 55.272C107.007 55.272 107.6 54.6792 107.6 53.948C107.6 53.2168 107.007 52.624 106.276 52.624C105.545 52.624 104.952 53.2168 104.952 53.948C104.952 54.6792 105.545 55.272 106.276 55.272Z" fill="white"/>
<path d="M90.2761 70.1161C90.2761 69.9561 90.2761 69.8001 90.2561 69.6401L92.2561 68.2641C92.1486 67.7864 91.9987 67.3192 91.8081 66.8681L89.3681 66.9361C89.2015 66.6648 89.0143 66.4067 88.8081 66.1641L89.6081 63.8721C89.2354 63.548 88.8337 63.2588 88.4081 63.0081L86.4761 64.4921C86.1813 64.3708 85.8778 64.2718 85.5681 64.1961L84.8801 61.8641C84.6348 61.8401 84.3908 61.8281 84.1481 61.8281C83.9001 61.8281 83.6561 61.8281 83.4121 61.8641L82.7241 64.1961C82.4145 64.2718 82.1109 64.3708 81.8161 64.4921L79.8841 63.0081C79.4586 63.2588 79.0569 63.548 78.6841 63.8721L79.4841 66.1641C79.2793 66.4077 79.0921 66.6657 78.9241 66.9361L76.4881 66.8681C76.2963 67.3191 76.145 67.7863 76.0361 68.2641L78.0361 69.6401C78.0361 69.8001 78.0161 69.9561 78.0161 70.1161C78.0161 70.2761 78.0161 70.4361 78.0361 70.5961L76.0361 71.9721C76.1456 72.4498 76.2969 72.9169 76.4881 73.3681L78.9241 73.3001C79.0921 73.5705 79.2793 73.8285 79.4841 74.0721L78.6841 76.3641C79.058 76.6868 79.4595 76.976 79.8841 77.2281L81.8161 75.7441C82.1104 75.866 82.414 75.9636 82.7241 76.0361L83.4121 78.3721C83.6561 78.3721 83.9001 78.4081 84.1481 78.4081C84.3961 78.4081 84.6361 78.4081 84.8801 78.3721L85.5681 76.0361C85.8782 75.9636 86.1819 75.866 86.4761 75.7441L88.4081 77.2281C88.8328 76.976 89.2343 76.6868 89.6081 76.3641L88.8081 74.0721C89.0143 73.8295 89.2015 73.5714 89.3681 73.3001L91.8081 73.3681C91.9981 72.9168 92.148 72.4497 92.2561 71.9721L90.2561 70.5961C90.2681 70.4361 90.2761 70.2801 90.2761 70.1161ZM84.1881 72.9161C83.6343 72.9161 83.093 72.7519 82.6325 72.4442C82.1721 72.1366 81.8132 71.6993 81.6013 71.1876C81.3893 70.676 81.3339 70.113 81.4419 69.5699C81.55 69.0267 81.8166 68.5278 82.2082 68.1362C82.5998 67.7446 83.0987 67.478 83.6419 67.3699C84.185 67.2619 84.748 67.3173 85.2597 67.5293C85.7713 67.7412 86.2086 68.1001 86.5162 68.5605C86.8239 69.021 86.9881 69.5623 86.9881 70.1161C86.9881 70.8587 86.6931 71.5709 86.168 72.096C85.6429 72.6211 84.9307 72.9161 84.1881 72.9161Z" fill="#FF7415"/>
<path opacity="0.7" d="M90.2761 70.1161C90.2761 69.9561 90.2761 69.8001 90.2561 69.6401L92.2561 68.2641C92.1486 67.7864 91.9987 67.3192 91.8081 66.8681L89.3681 66.9361C89.2015 66.6648 89.0143 66.4067 88.8081 66.1641L89.6081 63.8721C89.2354 63.548 88.8337 63.2588 88.4081 63.0081L86.4761 64.4921C86.1813 64.3708 85.8778 64.2718 85.5681 64.1961L84.8801 61.8641C84.6348 61.8401 84.3908 61.8281 84.1481 61.8281C83.9001 61.8281 83.6561 61.8281 83.4121 61.8641L82.7241 64.1961C82.4145 64.2718 82.1109 64.3708 81.8161 64.4921L79.8841 63.0081C79.4586 63.2588 79.0569 63.548 78.6841 63.8721L79.4841 66.1641C79.2793 66.4077 79.0921 66.6657 78.9241 66.9361L76.4881 66.8681C76.2963 67.3191 76.145 67.7863 76.0361 68.2641L78.0361 69.6401C78.0361 69.8001 78.0161 69.9561 78.0161 70.1161C78.0161 70.2761 78.0161 70.4361 78.0361 70.5961L76.0361 71.9721C76.1456 72.4498 76.2969 72.9169 76.4881 73.3681L78.9241 73.3001C79.0921 73.5705 79.2793 73.8285 79.4841 74.0721L78.6841 76.3641C79.058 76.6868 79.4595 76.976 79.8841 77.2281L81.8161 75.7441C82.1104 75.866 82.414 75.9636 82.7241 76.0361L83.4121 78.3721C83.6561 78.3721 83.9001 78.4081 84.1481 78.4081C84.3961 78.4081 84.6361 78.4081 84.8801 78.3721L85.5681 76.0361C85.8782 75.9636 86.1819 75.866 86.4761 75.7441L88.4081 77.2281C88.8328 76.976 89.2343 76.6868 89.6081 76.3641L88.8081 74.0721C89.0143 73.8295 89.2015 73.5714 89.3681 73.3001L91.8081 73.3681C91.9981 72.9168 92.148 72.4497 92.2561 71.9721L90.2561 70.5961C90.2681 70.4361 90.2761 70.2801 90.2761 70.1161ZM84.1881 72.9161C83.6343 72.9161 83.093 72.7519 82.6325 72.4442C82.1721 72.1366 81.8132 71.6993 81.6013 71.1876C81.3893 70.676 81.3339 70.113 81.4419 69.5699C81.55 69.0267 81.8166 68.5278 82.2082 68.1362C82.5998 67.7446 83.0987 67.478 83.6419 67.3699C84.185 67.2619 84.748 67.3173 85.2597 67.5293C85.7713 67.7412 86.2086 68.1001 86.5162 68.5605C86.8239 69.021 86.9881 69.5623 86.9881 70.1161C86.9881 70.8587 86.6931 71.5709 86.168 72.096C85.6429 72.6211 84.9307 72.9161 84.1881 72.9161Z" fill="white"/>
<path d="M97.9238 79.9162C97.9238 79.8162 97.9238 79.7122 97.9238 79.6122L99.2198 78.7242C99.1497 78.416 99.052 78.1148 98.9278 77.8242L97.3598 77.8682C97.2512 77.6939 97.1295 77.528 96.9958 77.3722L97.5198 75.8922C97.282 75.6865 97.0278 75.5005 96.7598 75.3362L95.5158 76.2922C95.3249 76.2146 95.1283 76.1517 94.9278 76.1042L94.4878 74.6002C94.1726 74.5682 93.855 74.5682 93.5398 74.6002L93.0958 76.1042C92.8968 76.1523 92.7016 76.2152 92.5118 76.2922L91.2678 75.3362C90.9985 75.5005 90.743 75.6865 90.5038 75.8922L91.0318 77.3722C90.8981 77.528 90.7764 77.6939 90.6678 77.8682L89.0998 77.8242C88.9756 78.1148 88.8779 78.416 88.8078 78.7242L90.1038 79.6122C90.1038 79.7122 90.1038 79.8162 90.1038 79.9162C90.1038 80.0162 90.1038 80.1242 90.1038 80.2242L88.7998 81.1122C88.8699 81.4203 88.9676 81.7216 89.0918 82.0122L90.6598 81.9682C90.7684 82.1425 90.8901 82.3083 91.0238 82.4642L90.4958 83.9442C90.735 84.1499 90.9905 84.3358 91.2598 84.5002L92.5038 83.5402C92.6939 83.6209 92.8907 83.6852 93.0918 83.7322L93.5318 85.2362C93.6878 85.2362 93.8478 85.2362 94.0038 85.2362C94.1598 85.2362 94.3238 85.2362 94.4798 85.2362L94.9198 83.7322C95.121 83.6852 95.3177 83.6209 95.5078 83.5402L96.7518 84.5002C97.0198 84.3358 97.274 84.1499 97.5118 83.9442L96.9878 82.4642C97.1215 82.3083 97.2432 82.1425 97.3518 81.9682L98.9198 82.0122C99.044 81.7216 99.1417 81.4203 99.2118 81.1122L97.9158 80.2242C97.9198 80.1242 97.9238 80.0202 97.9238 79.9162ZM93.9998 81.7202C93.643 81.7202 93.2942 81.6144 92.9976 81.4161C92.7009 81.2179 92.4697 80.9362 92.3331 80.6065C92.1966 80.2769 92.1609 79.9142 92.2305 79.5642C92.3001 79.2143 92.4719 78.8929 92.7242 78.6406C92.9765 78.3883 93.2979 78.2164 93.6479 78.1468C93.9978 78.0772 94.3605 78.113 94.6902 78.2495C95.0198 78.386 95.3015 78.6173 95.4998 78.9139C95.698 79.2106 95.8038 79.5594 95.8038 79.9162C95.8043 80.1532 95.758 80.388 95.6676 80.6072C95.5771 80.8263 95.4442 81.0254 95.2766 81.193C95.109 81.3606 94.9099 81.4935 94.6908 81.5839C94.4717 81.6744 94.2369 81.7207 93.9998 81.7202Z" fill="#FF7415"/>
<path opacity="0.7" d="M97.9238 79.9162C97.9238 79.8162 97.9238 79.7122 97.9238 79.6122L99.2198 78.7242C99.1497 78.416 99.052 78.1148 98.9278 77.8242L97.3598 77.8682C97.2512 77.6939 97.1295 77.528 96.9958 77.3722L97.5198 75.8922C97.282 75.6865 97.0278 75.5005 96.7598 75.3362L95.5158 76.2922C95.3249 76.2146 95.1283 76.1517 94.9278 76.1042L94.4878 74.6002C94.1726 74.5682 93.855 74.5682 93.5398 74.6002L93.0958 76.1042C92.8968 76.1523 92.7016 76.2152 92.5118 76.2922L91.2678 75.3362C90.9985 75.5005 90.743 75.6865 90.5038 75.8922L91.0318 77.3722C90.8981 77.528 90.7764 77.6939 90.6678 77.8682L89.0998 77.8242C88.9756 78.1148 88.8779 78.416 88.8078 78.7242L90.1038 79.6122C90.1038 79.7122 90.1038 79.8162 90.1038 79.9162C90.1038 80.0162 90.1038 80.1242 90.1038 80.2242L88.7998 81.1122C88.8699 81.4203 88.9676 81.7216 89.0918 82.0122L90.6598 81.9682C90.7684 82.1425 90.8901 82.3083 91.0238 82.4642L90.4958 83.9442C90.735 84.1499 90.9905 84.3358 91.2598 84.5002L92.5038 83.5402C92.6939 83.6209 92.8907 83.6852 93.0918 83.7322L93.5318 85.2362C93.6878 85.2362 93.8478 85.2362 94.0038 85.2362C94.1598 85.2362 94.3238 85.2362 94.4798 85.2362L94.9198 83.7322C95.121 83.6852 95.3177 83.6209 95.5078 83.5402L96.7518 84.5002C97.0198 84.3358 97.274 84.1499 97.5118 83.9442L96.9878 82.4642C97.1215 82.3083 97.2432 82.1425 97.3518 81.9682L98.9198 82.0122C99.044 81.7216 99.1417 81.4203 99.2118 81.1122L97.9158 80.2242C97.9198 80.1242 97.9238 80.0202 97.9238 79.9162ZM93.9998 81.7202C93.643 81.7202 93.2942 81.6144 92.9976 81.4161C92.7009 81.2179 92.4697 80.9362 92.3331 80.6065C92.1966 80.2769 92.1609 79.9142 92.2305 79.5642C92.3001 79.2143 92.4719 78.8929 92.7242 78.6406C92.9765 78.3883 93.2979 78.2164 93.6479 78.1468C93.9978 78.0772 94.3605 78.113 94.6902 78.2495C95.0198 78.386 95.3015 78.6173 95.4998 78.9139C95.698 79.2106 95.8038 79.5594 95.8038 79.9162C95.8043 80.1532 95.758 80.388 95.6676 80.6072C95.5771 80.8263 95.4442 81.0254 95.2766 81.193C95.109 81.3606 94.9099 81.4935 94.6908 81.5839C94.4717 81.6744 94.2369 81.7207 93.9998 81.7202Z" fill="white"/>
<path d="M85.3125 80.4641V88.5961L84.0326 87.3201C83.8827 87.1711 83.6799 87.0874 83.4685 87.0874C83.2572 87.0874 83.0544 87.1711 82.9045 87.3201C82.8302 87.3944 82.7712 87.4826 82.7309 87.5797C82.6906 87.6768 82.6699 87.7809 82.6699 87.8861C82.6699 87.9912 82.6906 88.0953 82.7309 88.1924C82.7712 88.2895 82.8302 88.3778 82.9045 88.4521L86.1045 91.6521L89.3045 88.4521C89.3789 88.3778 89.4379 88.2895 89.4782 88.1924C89.5185 88.0953 89.5392 87.9912 89.5392 87.8861C89.5392 87.7809 89.5185 87.6768 89.4782 87.5797C89.4379 87.4826 89.3789 87.3944 89.3045 87.3201C89.1547 87.1711 88.9519 87.0874 88.7406 87.0874C88.5292 87.0874 88.3264 87.1711 88.1766 87.3201L86.9005 88.5961V80.4641C86.9005 80.2519 86.8163 80.0484 86.6662 79.8984C86.5162 79.7483 86.3127 79.6641 86.1005 79.6641C85.8905 79.6672 85.69 79.7529 85.5426 79.9026C85.3952 80.0523 85.3125 80.254 85.3125 80.4641Z" fill="#FF7415"/>
<path opacity="0.7" d="M85.3125 80.4641V88.5961L84.0326 87.3201C83.8827 87.1711 83.6799 87.0874 83.4685 87.0874C83.2572 87.0874 83.0544 87.1711 82.9045 87.3201C82.8302 87.3944 82.7712 87.4826 82.7309 87.5797C82.6906 87.6768 82.6699 87.7809 82.6699 87.8861C82.6699 87.9912 82.6906 88.0953 82.7309 88.1924C82.7712 88.2895 82.8302 88.3778 82.9045 88.4521L86.1045 91.6521L89.3045 88.4521C89.3789 88.3778 89.4379 88.2895 89.4782 88.1924C89.5185 88.0953 89.5392 87.9912 89.5392 87.8861C89.5392 87.7809 89.5185 87.6768 89.4782 87.5797C89.4379 87.4826 89.3789 87.3944 89.3045 87.3201C89.1547 87.1711 88.9519 87.0874 88.7406 87.0874C88.5292 87.0874 88.3264 87.1711 88.1766 87.3201L86.9005 88.5961V80.4641C86.9005 80.2519 86.8163 80.0484 86.6662 79.8984C86.5162 79.7483 86.3127 79.6641 86.1005 79.6641C85.8905 79.6672 85.69 79.7529 85.5426 79.9026C85.3952 80.0523 85.3125 80.254 85.3125 80.4641Z" fill="white"/>
<path d="M71.5725 85.208H47.6405C46.125 85.208 44.8965 86.4365 44.8965 87.952V92.164C44.8965 93.6795 46.125 94.908 47.6405 94.908H71.5725C73.088 94.908 74.3165 93.6795 74.3165 92.164V87.952C74.3165 86.4365 73.088 85.208 71.5725 85.208Z" fill="#FF7415"/>
<path opacity="0.7" d="M71.5725 85.208H47.6405C46.125 85.208 44.8965 86.4365 44.8965 87.952V92.164C44.8965 93.6795 46.125 94.908 47.6405 94.908H71.5725C73.088 94.908 74.3165 93.6795 74.3165 92.164V87.952C74.3165 86.4365 73.088 85.208 71.5725 85.208Z" fill="white"/>
<path opacity="0.8" d="M60.4967 87.3719C60.157 87.0317 59.7274 86.7952 59.2582 86.6901C58.789 86.585 58.2997 86.6157 57.8473 86.7786C57.3949 86.9414 56.9982 87.2297 56.7037 87.6097C56.4091 87.9897 56.2288 88.4457 56.1839 88.9244C56.139 89.4031 56.2313 89.8847 56.4501 90.3129C56.6688 90.741 57.0049 91.098 57.4191 91.3422C57.8333 91.5863 58.3085 91.7075 58.789 91.6915C59.2696 91.6755 59.7356 91.5231 60.1327 91.2519C60.1454 91.3826 60.2017 91.5052 60.2927 91.5999L62.0007 93.3079C62.1144 93.4176 62.2667 93.4783 62.4247 93.4771C62.5827 93.4758 62.7339 93.4126 62.8459 93.3012C62.9579 93.1897 63.0218 93.0387 63.0238 92.8807C63.0258 92.7227 62.9658 92.5702 62.8567 92.4559L61.1487 90.7479C61.0533 90.655 60.9292 90.5972 60.7967 90.5839C61.1287 90.0974 61.2804 89.5103 61.2256 88.9239C61.1708 88.3374 60.913 87.7885 60.4967 87.3719ZM60.0007 90.4319C59.749 90.6839 59.4283 90.8555 59.0791 90.9252C58.7298 90.9948 58.3678 90.9593 58.0388 90.8231C57.7097 90.687 57.4285 90.4562 57.2306 90.1602C57.0327 89.8641 56.9271 89.516 56.9271 89.1599C56.9271 88.8038 57.0327 88.4557 57.2306 88.1597C57.4285 87.8636 57.7097 87.6329 58.0388 87.4967C58.3678 87.3606 58.7298 87.325 59.0791 87.3947C59.4283 87.4643 59.749 87.636 60.0007 87.8879C60.168 88.0548 60.3009 88.253 60.3915 88.4713C60.4821 88.6896 60.5287 88.9236 60.5287 89.1599C60.5287 89.3963 60.4821 89.6303 60.3915 89.8486C60.3009 90.0668 60.168 90.2651 60.0007 90.4319Z" fill="white"/>
</svg>
