<svg width="600" height="600" viewBox="0 0 600 600" fill="none" xmlns="http://www.w3.org/2000/svg">
<path d="M600 458.88H0V459.18H600V458.88Z" fill="#EBEBEB"/>
<path d="M539.88 478.188H500.136V478.488H539.88V478.188Z" fill="#EBEBEB"/>
<path d="M397.464 481.452H387.036V481.752H397.464V481.452Z" fill="#EBEBEB"/>
<path d="M498.936 467.052H475.908V467.352H498.936V467.052Z" fill="#EBEBEB"/>
<path d="M114.78 469.068H62.9521V469.368H114.78V469.068Z" fill="#EBEBEB"/>
<path d="M133.068 469.068H125.472V469.368H133.068V469.068Z" fill="#EBEBEB"/>
<path d="M270.18 474.132H157.764V474.432H270.18V474.132Z" fill="#EBEBEB"/>
<path d="M284.4 405.36H52.6916C50.8764 405.357 49.1366 404.634 47.8542 403.349C46.5718 402.064 45.8516 400.323 45.8516 398.508V72.792C45.8674 70.9872 46.5946 69.2616 47.8753 67.9899C49.156 66.7181 50.8867 66.0031 52.6916 66H284.4C286.217 66 287.96 66.7219 289.245 68.0069C290.53 69.2919 291.252 71.0347 291.252 72.852V398.508C291.252 400.325 290.53 402.068 289.245 403.353C287.96 404.638 286.217 405.36 284.4 405.36ZM52.6916 66.24C50.9559 66.2432 49.2925 66.9349 48.0664 68.1633C46.8402 69.3917 46.1516 71.0564 46.1516 72.792V398.508C46.1516 400.244 46.8402 401.908 48.0664 403.137C49.2925 404.365 50.9559 405.057 52.6916 405.06H284.4C286.136 405.057 287.801 404.366 289.029 403.137C290.257 401.909 290.948 400.245 290.952 398.508V72.792C290.948 71.0553 290.257 69.3906 289.029 68.1625C287.801 66.9345 286.136 66.2432 284.4 66.24H52.6916Z" fill="#EBEBEB"/>
<path d="M543.972 405.36H312.252C310.436 405.357 308.695 404.634 307.411 403.35C306.127 402.065 305.404 400.324 305.4 398.508V72.792C305.419 70.9861 306.149 69.2605 307.432 67.9891C308.714 66.7177 310.446 66.0031 312.252 66H543.972C545.775 66.0062 547.503 66.7227 548.781 67.9941C550.059 69.2654 550.785 70.9893 550.8 72.792V398.508C550.8 400.321 550.082 402.06 548.802 403.345C547.522 404.629 545.785 405.354 543.972 405.36ZM312.252 66.24C310.516 66.2432 308.851 66.9345 307.623 68.1625C306.395 69.3906 305.704 71.0553 305.7 72.792V398.508C305.704 400.245 306.395 401.909 307.623 403.137C308.851 404.366 310.516 405.057 312.252 405.06H543.972C545.709 405.057 547.374 404.366 548.602 403.137C549.83 401.909 550.521 400.245 550.524 398.508V72.792C550.521 71.0553 549.83 69.3906 548.602 68.1625C547.374 66.9345 545.709 66.2432 543.972 66.24H312.252Z" fill="#EBEBEB"/>
<path d="M376.848 127.416H266.508V375.984H376.848V127.416Z" fill="#EBEBEB"/>
<path d="M372.684 371.328V132.084H270.672V371.328H372.684Z" fill="#FAFAFA"/>
<path d="M322.848 130.872H320.508V373.644H322.848V130.872Z" fill="#F5F5F5"/>
<path d="M379.392 124.176H263.964V135.876H379.392V124.176Z" fill="#E0E0E0"/>
<path d="M379.392 137.172H263.964V138.564H379.392V137.172Z" fill="#F5F5F5"/>
<path d="M379.392 140.316H263.964V141.708H379.392V140.316Z" fill="#F5F5F5"/>
<path d="M379.392 143.46H263.964V144.852H379.392V143.46Z" fill="#F5F5F5"/>
<path d="M379.392 146.616H263.964V148.008H379.392V146.616Z" fill="#F5F5F5"/>
<path d="M379.392 149.76H263.964V151.152H379.392V149.76Z" fill="#F5F5F5"/>
<path d="M379.392 152.904H263.964V154.296H379.392V152.904Z" fill="#F5F5F5"/>
<path d="M379.392 156.048H263.964V157.44H379.392V156.048Z" fill="#F5F5F5"/>
<path d="M379.392 159.204H263.964V160.596H379.392V159.204Z" fill="#F5F5F5"/>
<path d="M379.392 162.348H263.964V163.74H379.392V162.348Z" fill="#F5F5F5"/>
<path d="M379.392 165.492H263.964V166.884H379.392V165.492Z" fill="#F5F5F5"/>
<path d="M379.392 168.636H263.964V170.028H379.392V168.636Z" fill="#F5F5F5"/>
<path d="M379.392 171.792H263.964V173.184H379.392V171.792Z" fill="#F5F5F5"/>
<path d="M379.392 174.936H263.964V176.328H379.392V174.936Z" fill="#F5F5F5"/>
<path d="M379.392 178.08H263.964V179.472H379.392V178.08Z" fill="#F5F5F5"/>
<path d="M379.392 181.224H263.964V182.616H379.392V181.224Z" fill="#F5F5F5"/>
<path d="M379.392 184.38H263.964V185.772H379.392V184.38Z" fill="#F5F5F5"/>
<path d="M379.392 187.524H263.964V188.916H379.392V187.524Z" fill="#F5F5F5"/>
<path d="M379.392 190.668H263.964V192.06H379.392V190.668Z" fill="#F5F5F5"/>
<path d="M507.48 127.416H397.14V375.984H507.48V127.416Z" fill="#EBEBEB"/>
<path d="M503.316 371.328V132.084H401.304V371.328H503.316Z" fill="#FAFAFA"/>
<path d="M453.48 130.872H451.14V373.644H453.48V130.872Z" fill="#F5F5F5"/>
<path d="M510.024 124.176H394.596V135.876H510.024V124.176Z" fill="#E0E0E0"/>
<path d="M510.024 137.172H394.596V138.564H510.024V137.172Z" fill="#F5F5F5"/>
<path d="M510.024 140.316H394.596V141.708H510.024V140.316Z" fill="#F5F5F5"/>
<path d="M510.024 143.46H394.596V144.852H510.024V143.46Z" fill="#F5F5F5"/>
<path d="M510.024 146.616H394.596V148.008H510.024V146.616Z" fill="#F5F5F5"/>
<path d="M510.024 149.76H394.596V151.152H510.024V149.76Z" fill="#F5F5F5"/>
<path d="M510.024 152.904H394.596V154.296H510.024V152.904Z" fill="#F5F5F5"/>
<path d="M510.024 156.048H394.596V157.44H510.024V156.048Z" fill="#F5F5F5"/>
<path d="M510.024 159.204H394.596V160.596H510.024V159.204Z" fill="#F5F5F5"/>
<path d="M510.024 162.348H394.596V163.74H510.024V162.348Z" fill="#F5F5F5"/>
<path d="M510.024 165.492H394.596V166.884H510.024V165.492Z" fill="#F5F5F5"/>
<path d="M510.024 168.636H394.596V170.028H510.024V168.636Z" fill="#F5F5F5"/>
<path d="M510.024 171.792H394.596V173.184H510.024V171.792Z" fill="#F5F5F5"/>
<path d="M510.024 174.936H394.596V176.328H510.024V174.936Z" fill="#F5F5F5"/>
<path d="M510.024 178.08H394.596V179.472H510.024V178.08Z" fill="#F5F5F5"/>
<path d="M510.024 181.224H394.596V182.616H510.024V181.224Z" fill="#F5F5F5"/>
<path d="M510.024 184.38H394.596V185.772H510.024V184.38Z" fill="#F5F5F5"/>
<path d="M510.024 187.524H394.596V188.916H510.024V187.524Z" fill="#F5F5F5"/>
<path d="M510.024 190.668H394.596V192.06H510.024V190.668Z" fill="#F5F5F5"/>
<path d="M225.012 270.144V162.252H86.1717V270.144H225.012Z" fill="#E0E0E0"/>
<path d="M88.0921 268.224H223.08V164.184H88.0921V268.224Z" fill="#EBEBEB"/>
<path d="M153.924 182.976H152.724V197.484H153.924V182.976Z" fill="#E0E0E0"/>
<path d="M120.936 244.188H119.736V196.884H182.172V224.28H180.972V198.084H120.936V244.188Z" fill="#E0E0E0"/>
<path d="M199.992 239.028H198.792V224.88H166.32V238.536H165.12V223.68H199.992V239.028Z" fill="#E0E0E0"/>
<path d="M168.816 177.648H137.844V188.304H168.816V177.648Z" fill="#F5F5F5"/>
<path d="M196.788 203.22H167.268V214.8H196.788V203.22Z" fill="#F5F5F5"/>
<path d="M175.872 232.56H155.592V244.512H175.872V232.56Z" fill="#F5F5F5"/>
<path d="M210.24 234.492H188.532V243.564H210.24V234.492Z" fill="#F5F5F5"/>
<path d="M139.62 205.68H106.08V221.148H139.62V205.68Z" fill="#F5F5F5"/>
<path d="M131.04 238.536H109.62V249.84H131.04V238.536Z" fill="#F5F5F5"/>
<path d="M157.948 197.871L153.323 193.246L148.699 197.871L153.323 202.495L157.948 197.871Z" fill="#F5F5F5"/>
<path d="M186.189 224.272L181.564 219.647L176.94 224.272L181.564 228.896L186.189 224.272Z" fill="#F5F5F5"/>
<path d="M155.592 147.072C166.395 147.072 175.152 138.315 175.152 127.512C175.152 116.709 166.395 107.952 155.592 107.952C144.79 107.952 136.032 116.709 136.032 127.512C136.032 138.315 144.79 147.072 155.592 147.072Z" fill="#E0E0E0"/>
<path d="M155.592 144.144C164.778 144.144 172.224 136.697 172.224 127.512C172.224 118.326 164.778 110.88 155.592 110.88C146.406 110.88 138.96 118.326 138.96 127.512C138.96 136.697 146.406 144.144 155.592 144.144Z" fill="#F0F0F0"/>
<path d="M156.372 116.1V127.728L164.076 123.372" fill="#F0F0F0"/>
<path d="M156.372 128.928C156.162 128.929 155.955 128.876 155.772 128.772C155.589 128.666 155.437 128.514 155.331 128.331C155.226 128.147 155.171 127.939 155.172 127.728V116.1C155.172 115.782 155.298 115.476 155.523 115.251C155.748 115.026 156.054 114.9 156.372 114.9C156.69 114.9 156.995 115.026 157.22 115.251C157.445 115.476 157.572 115.782 157.572 116.1V125.7L163.488 122.352C163.765 122.193 164.094 122.15 164.402 122.233C164.71 122.317 164.973 122.519 165.132 122.796C165.291 123.073 165.334 123.402 165.25 123.71C165.167 124.018 164.965 124.281 164.688 124.44L156.972 128.796C156.787 128.891 156.58 128.937 156.372 128.928Z" fill="#E0E0E0"/>
<path d="M300 513.072C428.499 513.072 532.668 506.991 532.668 499.488C532.668 491.986 428.499 485.904 300 485.904C171.501 485.904 67.332 491.986 67.332 499.488C67.332 506.991 171.501 513.072 300 513.072Z" fill="#F5F5F5"/>
<path d="M118.164 464.772H117.036C117.036 463.092 118.428 423.432 125.328 416.772C132.42 409.86 140.76 416.664 140.844 416.772L140.112 417.648C139.812 417.384 132.48 411.432 126.12 417.648C119.544 423.9 118.176 464.4 118.164 464.772Z" fill="#407BFF"/>
<path d="M117.6 472.728L116.472 472.62C116.472 472.14 120.924 424.476 103.656 404.664L104.52 403.92C122.1 424.104 117.6 472.248 117.6 472.728Z" fill="#407BFF"/>
<path d="M118.152 467.64C117.996 465.384 114.672 412.44 127.944 400.212L128.712 401.04C115.836 412.884 119.244 467.04 119.28 467.568L118.152 467.64Z" fill="#407BFF"/>
<path d="M116.471 467.603C116.471 467.243 116.051 431.603 106.619 426.239C105.816 425.712 104.897 425.385 103.94 425.287C102.984 425.189 102.018 425.322 101.123 425.675C95.5794 427.955 92.6394 438.527 92.6154 438.635L91.5234 438.335C91.6434 437.879 94.6314 427.127 100.691 424.619C101.746 424.199 102.885 424.037 104.015 424.148C105.144 424.259 106.231 424.638 107.183 425.255C117.179 430.979 117.587 466.055 117.599 467.591L116.471 467.603Z" fill="#407BFF"/>
<path d="M120.348 467.64C120.288 466.44 118.824 439.5 126.48 429.516C128.508 426.864 130.764 425.592 133.212 425.772C138.648 426.156 142.812 433.524 143.052 433.836L142.056 434.388C142.056 434.316 137.964 427.188 133.14 426.9C131.1 426.756 129.156 427.872 127.38 430.2C119.976 439.86 121.464 467.292 121.488 467.568L120.348 467.64Z" fill="#407BFF"/>
<path d="M118.799 471.372L117.671 471.288C117.671 470.64 122.471 406.332 114.563 395.616L115.475 394.932C123.671 405.996 119.027 468.708 118.799 471.372Z" fill="#407BFF"/>
<path d="M98.4839 431.027C98.4839 431.027 103.392 432.827 101.928 437.099C100.464 441.371 84.9839 448.379 84.9839 448.379C84.9839 448.379 78.4919 442.379 84.4439 432.779C90.3959 423.179 98.3999 427.967 98.4839 431.027Z" fill="#407BFF"/>
<path opacity="0.4" d="M98.4839 431.027C98.4839 431.027 103.392 432.827 101.928 437.099C100.464 441.371 84.9839 448.379 84.9839 448.379C84.9839 448.379 78.4919 442.379 84.4439 432.779C90.3959 423.179 98.3999 427.967 98.4839 431.027Z" fill="white"/>
<path d="M119.784 422.904C119.784 422.904 114.564 422.688 114.276 427.188C113.988 431.688 125.58 444.12 125.58 444.12C125.58 444.12 133.848 441.132 132.072 429.912C130.296 418.692 121.08 420.144 119.784 422.904Z" fill="#407BFF"/>
<path opacity="0.4" d="M119.784 422.904C119.784 422.904 114.564 422.688 114.276 427.188C113.988 431.688 125.58 444.12 125.58 444.12C125.58 444.12 133.848 441.132 132.072 429.912C130.296 418.692 121.08 420.144 119.784 422.904Z" fill="white"/>
<path d="M124.2 401.388C124.2 401.388 120.72 401.004 121.008 398.892C121.296 396.78 134.532 391.32 142.344 400.092C142.344 400.092 137.34 408.684 130.104 408.792C122.868 408.9 124.2 401.388 124.2 401.388Z" fill="#407BFF"/>
<path opacity="0.4" d="M124.2 401.388C124.2 401.388 120.72 401.004 121.008 398.892C121.296 396.78 134.532 391.32 142.344 400.092C142.344 400.092 137.34 408.684 130.104 408.792C122.868 408.9 124.2 401.388 124.2 401.388Z" fill="white"/>
<path d="M117.72 396.24C117.72 396.24 120.876 397.764 121.752 395.82C122.628 393.876 114.288 382.236 102.984 385.584C102.984 385.584 102.684 395.532 108.768 399.444C114.852 403.356 117.72 396.24 117.72 396.24Z" fill="#407BFF"/>
<path opacity="0.4" d="M117.72 396.24C117.72 396.24 120.876 397.764 121.752 395.82C122.628 393.876 114.288 382.236 102.984 385.584C102.984 385.584 102.684 395.532 108.768 399.444C114.852 403.356 117.72 396.24 117.72 396.24Z" fill="white"/>
<path d="M134.196 429.311C134.196 429.311 131.796 427.367 134.376 426.431C136.956 425.495 149.688 425.747 149.82 438.347C149.82 438.347 135.012 440.747 133.176 435.947C131.34 431.147 134.196 429.311 134.196 429.311Z" fill="#407BFF"/>
<path opacity="0.4" d="M134.196 429.311C134.196 429.311 131.796 427.367 134.376 426.431C136.956 425.495 149.688 425.747 149.82 438.347C149.82 438.347 135.012 440.747 133.176 435.947C131.34 431.147 134.196 429.311 134.196 429.311Z" fill="white"/>
<path d="M104.004 401.064C104.004 401.064 106.404 399.132 103.812 398.184C101.22 397.236 88.5002 397.5 88.3682 410.1C88.3682 410.1 103.176 412.56 105.012 407.76C106.848 402.96 104.004 401.064 104.004 401.064Z" fill="#407BFF"/>
<path opacity="0.4" d="M104.004 401.064C104.004 401.064 106.404 399.132 103.812 398.184C101.22 397.236 88.5002 397.5 88.3682 410.1C88.3682 410.1 103.176 412.56 105.012 407.76C106.848 402.96 104.004 401.064 104.004 401.064Z" fill="white"/>
<path d="M111.828 411.215C111.828 411.215 112.032 408.815 110.136 409.775C108.24 410.735 101.604 417.851 108.48 424.631C108.48 424.631 117.72 417.791 116.052 414.215C114.384 410.639 111.828 411.215 111.828 411.215Z" fill="#407BFF"/>
<path opacity="0.4" d="M111.828 411.215C111.828 411.215 112.032 408.815 110.136 409.775C108.24 410.735 101.604 417.851 108.48 424.631C108.48 424.631 117.72 417.791 116.052 414.215C114.384 410.639 111.828 411.215 111.828 411.215Z" fill="white"/>
<path d="M136.332 414.564C136.332 414.564 134.904 412.692 137.004 412.452C139.104 412.212 148.524 414.732 146.328 424.14C146.328 424.14 134.856 423.276 134.328 419.34C133.8 415.404 136.332 414.564 136.332 414.564Z" fill="#407BFF"/>
<path opacity="0.4" d="M136.332 414.564C136.332 414.564 134.904 412.692 137.004 412.452C139.104 412.212 148.524 414.732 146.328 424.14C146.328 424.14 134.856 423.276 134.328 419.34C133.8 415.404 136.332 414.564 136.332 414.564Z" fill="white"/>
<path d="M99.336 502.512H136.44L141.372 466.428H94.416L99.336 502.512Z" fill="#263238"/>
<path opacity="0.2" d="M99.336 502.512H136.44L141.372 466.428H94.416L99.336 502.512Z" fill="white"/>
<path d="M146.016 463.512V466.932C146.018 467.477 145.911 468.018 145.703 468.522C145.495 469.027 145.189 469.485 144.803 469.871C144.418 470.257 143.959 470.563 143.455 470.771C142.95 470.979 142.41 471.085 141.864 471.084H93.444C92.8983 471.085 92.3577 470.979 91.8532 470.771C91.3488 470.563 90.8904 470.257 90.5046 469.871C90.1187 469.485 89.8129 469.027 89.6048 468.522C89.3967 468.018 89.2904 467.477 89.292 466.932V463.512H146.016Z" fill="#263238"/>
<path d="M446.844 470.736C446.574 470.182 446.442 469.571 446.459 468.955C446.476 468.34 446.642 467.737 446.943 467.199C447.244 466.662 447.67 466.205 448.186 465.868C448.701 465.531 449.291 465.323 449.904 465.264C449.375 463.69 449.338 461.992 449.799 460.397C450.26 458.801 451.197 457.385 452.484 456.336C452.797 456.055 453.193 455.882 453.612 455.844C454.058 455.889 454.478 456.074 454.812 456.372L462.012 461.508C462.585 461.857 463.07 462.333 463.428 462.9C464.892 465.732 459.624 469.356 461.784 471.696C462.408 472.368 463.416 472.5 464.184 472.992C465.888 474.048 466.092 476.388 466.884 478.224C467.676 480.06 470.484 481.5 471.504 479.796C470.724 478.032 473.076 476.508 474.996 476.28C476.916 476.052 478.92 475.956 479.976 474.156C482.7 476.556 488.796 469.896 488.652 467.22C490.896 467.388 492.42 469.488 492.912 471.576C493.223 473.786 493.299 476.022 493.14 478.248C493.212 482.58 494.604 486.828 494.532 491.16C494.472 494.532 493.164 498.276 490.08 499.632C488.541 500.174 486.908 500.395 485.28 500.28L450.12 500.052C449.276 500.105 448.431 499.966 447.648 499.644C446.064 498.816 445.728 496.728 445.584 494.94C444.96 487.308 444.332 479.672 443.7 472.032L446.844 470.736Z" fill="#407BFF"/>
<path opacity="0.3" d="M446.844 470.736C446.574 470.182 446.442 469.571 446.459 468.955C446.476 468.34 446.642 467.737 446.943 467.199C447.244 466.662 447.67 466.205 448.186 465.868C448.701 465.531 449.291 465.323 449.904 465.264C449.375 463.69 449.338 461.992 449.799 460.397C450.26 458.801 451.197 457.385 452.484 456.336C452.797 456.055 453.193 455.882 453.612 455.844C454.058 455.889 454.478 456.074 454.812 456.372L462.012 461.508C462.585 461.857 463.07 462.333 463.428 462.9C464.892 465.732 459.624 469.356 461.784 471.696C462.408 472.368 463.416 472.5 464.184 472.992C465.888 474.048 466.092 476.388 466.884 478.224C467.676 480.06 470.484 481.5 471.504 479.796C470.724 478.032 473.076 476.508 474.996 476.28C476.916 476.052 478.92 475.956 479.976 474.156C482.7 476.556 488.796 469.896 488.652 467.22C490.896 467.388 492.42 469.488 492.912 471.576C493.223 473.786 493.299 476.022 493.14 478.248C493.212 482.58 494.604 486.828 494.532 491.16C494.472 494.532 493.164 498.276 490.08 499.632C488.541 500.174 486.908 500.395 485.28 500.28L450.12 500.052C449.276 500.105 448.431 499.966 447.648 499.644C446.064 498.816 445.728 496.728 445.584 494.94C444.96 487.308 444.332 479.672 443.7 472.032L446.844 470.736Z" fill="white"/>
<path d="M438.648 433.584L439.104 439.092L439.416 443.028L440.244 453.276L440.712 459.144L441.36 466.98L441.6 470.4L441.672 471.396L441.996 475.332L442.428 480.756L442.704 484.104L442.98 487.5L443.304 491.448L443.544 494.46L443.82 497.808L444 499.2H494.064L494.184 497.736L494.4 494.4L494.64 491.412L494.964 487.464L495.252 484.056L495.516 480.708L495.948 475.296L496.272 471.348L496.368 470.352L496.632 466.992L497.256 459.156L497.736 453.276L498.564 443.04L498.888 439.104L499.332 433.596H438.648V433.584ZM441.42 436.14H442.56L441.504 437.196L441.42 436.14ZM446.22 436.14H447.42L452.436 441.156L446.832 446.748L441.948 441.876L441.852 440.532L446.22 436.14ZM442.944 454.248L446.808 450.384L452.4 456L446.796 461.604L443.196 458.004L442.944 454.248ZM494.832 457.992L491.232 461.592L485.628 456L491.22 450.42L495.096 454.284L494.832 457.992ZM454.224 442.956L459.816 448.56L454.224 454.164L448.62 448.56L454.224 442.956ZM454.224 439.356L451.02 436.152H457.428L454.224 439.356ZM461.628 450.396L467.232 455.976L461.628 461.58L456 456L461.628 450.396ZM469.032 468.984L463.452 463.392L469.032 457.8L474.636 463.392L469.032 468.984ZM476.448 465.204L482.04 470.808L476.4 476.4L470.796 470.796L476.448 465.204ZM467.232 470.796L461.58 476.4L456 470.796L461.592 465.192L467.232 470.796ZM463.452 448.572L469.032 442.968L474.636 448.572L469.032 454.176L463.452 448.572ZM476.4 450.384L481.992 455.964L476.4 461.568L470.808 456L476.4 450.384ZM478.212 448.56L483.816 442.956L489.408 448.56L483.816 454.164L478.212 448.56ZM489.408 463.38L483.816 468.972L478.212 463.38L483.816 457.788L489.408 463.38ZM483.816 472.608L489.408 478.2L483.816 483.792L478.212 478.2L483.816 472.608ZM481.992 485.616L476.4 491.208L470.808 485.616L476.4 480L481.992 485.616ZM468.984 483.792L463.404 478.2L468.984 472.608L474.588 478.2L468.984 483.792ZM467.184 485.616L461.58 491.208L456 485.616L461.592 480.012L467.184 485.616ZM459.768 493.02L456.168 496.62H452.22L448.62 493.02L454.224 487.416L459.768 493.02ZM454.176 483.792L448.572 478.2L454.176 472.608L459.768 478.2L454.176 483.792ZM454.176 468.972L448.572 463.38L454.176 457.788L459.768 463.38L454.176 468.972ZM460.992 436.14H462.192L467.208 441.156L461.604 446.748L456 441.156L460.992 436.14ZM465.792 436.14H472.188L468.984 439.344L465.792 436.14ZM475.8 436.14H477L482.004 441.156L476.4 446.748L470.808 441.156L475.8 436.14ZM487.008 436.14L483.816 439.344L480.612 436.14H487.008ZM491.808 436.14L496.2 440.532L496.092 441.876L491.22 446.748L485.628 441.156L490.632 436.14H491.808ZM496.608 436.14L496.512 437.184L495.48 436.14H496.608ZM495.408 450.888L493.08 448.56L495.816 445.824L495.408 450.888ZM494.292 464.592L493.092 463.392L494.532 461.952L494.304 464.604L494.292 464.592ZM493.524 474.132L491.22 476.4L485.628 470.808L491.22 465.204L493.98 467.976L493.524 474.132ZM493.2 478.32L493.08 478.2L493.212 478.08V478.32H493.2ZM492.216 490.248L491.268 491.196L485.676 485.616L491.268 480.012L492.924 481.668L492.216 490.248ZM489.456 496.644L491.268 494.832L491.808 495.36L491.712 496.644H489.456ZM485.856 496.644H481.908L478.308 493.044L483.912 487.44L489.504 493.044L485.856 496.644ZM474.648 496.644L476.472 494.832L478.284 496.644H474.648ZM467.088 496.644L463.488 493.044L469.068 487.44L474.672 493.044L471.072 496.644H467.088ZM459.828 496.644L461.652 494.832L463.476 496.644H459.828ZM446.292 495.36L446.832 494.832L448.656 496.644H446.4L446.292 495.36ZM445.188 481.668L446.76 480L452.364 485.604L446.76 491.184L445.8 490.236L445.188 481.668ZM444.888 478.068L445.032 478.2L444.912 478.32V478.068H444.888ZM444 468L446.76 465.228L452.364 470.832L446.76 476.4L444.492 474.144L444 468ZM443.508 462L444.96 463.44L443.76 464.64L443.508 462ZM442.2 445.8L444.96 448.56L442.56 450.96L442.152 445.848L442.2 445.8Z" fill="#407BFF"/>
<g opacity="0.6">
<path d="M438.648 433.584L439.104 439.092L439.416 443.028L440.244 453.276L440.712 459.144L441.36 466.98L441.6 470.4L441.672 471.396L441.996 475.332L442.428 480.756L442.704 484.104L442.98 487.5L443.304 491.448L443.544 494.46L443.82 497.808L444 499.2H494.064L494.184 497.736L494.4 494.4L494.64 491.412L494.964 487.464L495.252 484.056L495.516 480.708L495.948 475.296L496.272 471.348L496.368 470.352L496.632 466.992L497.256 459.156L497.736 453.276L498.564 443.04L498.888 439.104L499.332 433.596H438.648V433.584ZM441.42 436.14H442.56L441.504 437.196L441.42 436.14ZM446.22 436.14H447.42L452.436 441.156L446.832 446.748L441.948 441.876L441.852 440.532L446.22 436.14ZM442.944 454.248L446.808 450.384L452.4 456L446.796 461.604L443.196 458.004L442.944 454.248ZM494.832 457.992L491.232 461.592L485.628 456L491.22 450.42L495.096 454.284L494.832 457.992ZM454.224 442.956L459.816 448.56L454.224 454.164L448.62 448.56L454.224 442.956ZM454.224 439.356L451.02 436.152H457.428L454.224 439.356ZM461.628 450.396L467.232 455.976L461.628 461.58L456 456L461.628 450.396ZM469.032 468.984L463.452 463.392L469.032 457.8L474.636 463.392L469.032 468.984ZM476.448 465.204L482.04 470.808L476.4 476.4L470.796 470.796L476.448 465.204ZM467.232 470.796L461.58 476.4L456 470.796L461.592 465.192L467.232 470.796ZM463.452 448.572L469.032 442.968L474.636 448.572L469.032 454.176L463.452 448.572ZM476.4 450.384L481.992 455.964L476.4 461.568L470.808 456L476.4 450.384ZM478.212 448.56L483.816 442.956L489.408 448.56L483.816 454.164L478.212 448.56ZM489.408 463.38L483.816 468.972L478.212 463.38L483.816 457.788L489.408 463.38ZM483.816 472.608L489.408 478.2L483.816 483.792L478.212 478.2L483.816 472.608ZM481.992 485.616L476.4 491.208L470.808 485.616L476.4 480L481.992 485.616ZM468.984 483.792L463.404 478.2L468.984 472.608L474.588 478.2L468.984 483.792ZM467.184 485.616L461.58 491.208L456 485.616L461.592 480.012L467.184 485.616ZM459.768 493.02L456.168 496.62H452.22L448.62 493.02L454.224 487.416L459.768 493.02ZM454.176 483.792L448.572 478.2L454.176 472.608L459.768 478.2L454.176 483.792ZM454.176 468.972L448.572 463.38L454.176 457.788L459.768 463.38L454.176 468.972ZM460.992 436.14H462.192L467.208 441.156L461.604 446.748L456 441.156L460.992 436.14ZM465.792 436.14H472.188L468.984 439.344L465.792 436.14ZM475.8 436.14H477L482.004 441.156L476.4 446.748L470.808 441.156L475.8 436.14ZM487.008 436.14L483.816 439.344L480.612 436.14H487.008ZM491.808 436.14L496.2 440.532L496.092 441.876L491.22 446.748L485.628 441.156L490.632 436.14H491.808ZM496.608 436.14L496.512 437.184L495.48 436.14H496.608ZM495.408 450.888L493.08 448.56L495.816 445.824L495.408 450.888ZM494.292 464.592L493.092 463.392L494.532 461.952L494.304 464.604L494.292 464.592ZM493.524 474.132L491.22 476.4L485.628 470.808L491.22 465.204L493.98 467.976L493.524 474.132ZM493.2 478.32L493.08 478.2L493.212 478.08V478.32H493.2ZM492.216 490.248L491.268 491.196L485.676 485.616L491.268 480.012L492.924 481.668L492.216 490.248ZM489.456 496.644L491.268 494.832L491.808 495.36L491.712 496.644H489.456ZM485.856 496.644H481.908L478.308 493.044L483.912 487.44L489.504 493.044L485.856 496.644ZM474.648 496.644L476.472 494.832L478.284 496.644H474.648ZM467.088 496.644L463.488 493.044L469.068 487.44L474.672 493.044L471.072 496.644H467.088ZM459.828 496.644L461.652 494.832L463.476 496.644H459.828ZM446.292 495.36L446.832 494.832L448.656 496.644H446.4L446.292 495.36ZM445.188 481.668L446.76 480L452.364 485.604L446.76 491.184L445.8 490.236L445.188 481.668ZM444.888 478.068L445.032 478.2L444.912 478.32V478.068H444.888ZM444 468L446.76 465.228L452.364 470.832L446.76 476.4L444.492 474.144L444 468ZM443.508 462L444.96 463.44L443.76 464.64L443.508 462ZM442.2 445.8L444.96 448.56L442.56 450.96L442.152 445.848L442.2 445.8Z" fill="white"/>
</g>
<path d="M500.856 431.292H437.124C436.037 431.292 435.156 432.173 435.156 433.26V436.464C435.156 437.551 436.037 438.432 437.124 438.432H500.856C501.943 438.432 502.824 437.551 502.824 436.464V433.26C502.824 432.173 501.943 431.292 500.856 431.292Z" fill="#407BFF"/>
<path d="M441.996 502.512H495.972C497.059 502.512 497.94 501.631 497.94 500.544V497.34C497.94 496.253 497.059 495.372 495.972 495.372H441.996C440.91 495.372 440.028 496.253 440.028 497.34V500.544C440.028 501.631 440.91 502.512 441.996 502.512Z" fill="#407BFF"/>
<path d="M271.872 138.852H231.708C228.045 138.852 224.532 140.307 221.942 142.897C219.352 145.488 217.896 149.001 217.896 152.664V191.688C217.896 195.351 219.352 198.864 221.942 201.455C224.532 204.045 228.045 205.5 231.708 205.5H237.168V220.08L246.42 205.5H271.836C275.5 205.5 279.013 204.045 281.603 201.455C284.193 198.864 285.648 195.351 285.648 191.688V152.664C285.648 149.007 284.198 145.499 281.616 142.91C279.033 140.321 275.529 138.862 271.872 138.852Z" fill="#407BFF"/>
<path opacity="0.4" d="M271.872 138.852H231.708C228.045 138.852 224.532 140.307 221.942 142.897C219.352 145.488 217.896 149.001 217.896 152.664V191.688C217.896 195.351 219.352 198.864 221.942 201.455C224.532 204.045 228.045 205.5 231.708 205.5H237.168V220.08L246.42 205.5H271.836C275.5 205.5 279.013 204.045 281.603 201.455C284.193 198.864 285.648 195.351 285.648 191.688V152.664C285.648 149.007 284.198 145.499 281.616 142.91C279.033 140.321 275.529 138.862 271.872 138.852Z" fill="white"/>
<path d="M258.433 165.792C258.433 162.852 255.925 160.872 251.893 160.872C250.25 160.778 248.61 161.097 247.122 161.799C245.634 162.501 244.345 163.565 243.373 164.892L238.297 161.604C241.225 157.62 245.929 155.22 252.469 155.22C260.161 155.22 265.297 158.724 265.297 164.736C265.297 173.268 256.345 174.048 256.345 180.228H249.697C249.697 172.488 258.433 171.024 258.433 165.792ZM248.833 188.652C248.816 187.826 249.046 187.013 249.493 186.318C249.939 185.622 250.583 185.075 251.342 184.747C252.1 184.419 252.939 184.323 253.752 184.473C254.565 184.624 255.315 185.012 255.906 185.59C256.497 186.167 256.903 186.908 257.072 187.717C257.241 188.526 257.165 189.367 256.855 190.133C256.544 190.899 256.012 191.556 255.327 192.018C254.643 192.481 253.835 192.73 253.009 192.732C252.465 192.752 251.923 192.66 251.416 192.463C250.908 192.266 250.447 191.967 250.059 191.585C249.671 191.203 249.366 190.746 249.161 190.241C248.957 189.737 248.857 189.196 248.869 188.652H248.833Z" fill="white"/>
<path d="M171.419 324.132C171.419 324.132 174.803 391.896 189.419 403.56H173.819C173.819 403.56 159.899 380.472 158.855 324.132H171.419Z" fill="#263238"/>
<path opacity="0.2" d="M171.419 324.132C171.419 324.132 174.803 391.896 189.419 403.56H173.819C173.819 403.56 159.899 380.472 158.855 324.132H171.419Z" fill="white"/>
<path d="M159.696 333.683H174.468C178.8 333.683 181.932 329.795 181.452 324.995L180.828 318.587C180.348 313.787 176.46 309.899 172.128 309.899H157.356C153.024 309.899 149.904 313.799 150.372 318.587L151.008 324.995C151.476 329.795 155.364 333.683 159.696 333.683Z" fill="#263238"/>
<path d="M157.404 338.964H182.4C189.72 338.964 195.012 332.376 194.208 324.264L193.14 313.464C192.348 305.34 185.76 298.764 178.44 298.764H153.444C146.112 298.764 140.832 305.34 141.624 313.464L142.692 324.264C143.496 332.4 150.084 338.964 157.404 338.964Z" fill="#263238"/>
<path opacity="0.5" d="M157.404 338.964H182.4C189.72 338.964 195.012 332.376 194.208 324.264L193.14 313.464C192.348 305.34 185.76 298.764 178.44 298.764H153.444C146.112 298.764 140.832 305.34 141.624 313.464L142.692 324.264C143.496 332.4 150.084 338.964 157.404 338.964Z" fill="white"/>
<path d="M169.668 396.636H239.832C240.54 396.636 241.24 396.775 241.894 397.046C242.548 397.317 243.142 397.714 243.642 398.214C244.143 398.714 244.539 399.308 244.81 399.962C245.081 400.616 245.22 401.316 245.22 402.024V407.868H164.28V402C164.287 400.575 164.857 399.211 165.867 398.205C166.877 397.2 168.243 396.636 169.668 396.636Z" fill="#263238"/>
<path opacity="0.5" d="M169.668 396.636H239.832C240.54 396.636 241.24 396.775 241.894 397.046C242.548 397.317 243.142 397.714 243.642 398.214C244.143 398.714 244.539 399.308 244.81 399.962C245.081 400.616 245.22 401.316 245.22 402.024V407.868H164.28V402C164.287 400.575 164.857 399.211 165.867 398.205C166.877 397.2 168.243 396.636 169.668 396.636Z" fill="white"/>
<path d="M167.1 480.66L198.3 477.936V436.956H209.268V477.924L240.588 480.66C241.908 480.805 243.129 481.433 244.015 482.423C244.901 483.413 245.39 484.695 245.388 486.024V490.176H162.228V486C162.236 484.665 162.739 483.381 163.638 482.395C164.538 481.408 165.771 480.791 167.1 480.66Z" fill="#263238"/>
<path d="M235.355 495.336C235.355 496.76 235.778 498.152 236.569 499.336C237.36 500.52 238.485 501.443 239.8 501.988C241.116 502.533 242.563 502.675 243.96 502.397C245.357 502.12 246.64 501.434 247.647 500.427C248.654 499.42 249.339 498.137 249.617 496.74C249.895 495.344 249.752 493.896 249.207 492.58C248.662 491.265 247.74 490.14 246.556 489.349C245.372 488.558 243.979 488.136 242.555 488.136C240.646 488.136 238.815 488.894 237.464 490.245C236.114 491.595 235.355 493.426 235.355 495.336Z" fill="#263238"/>
<path d="M172.332 495.336C172.332 496.76 171.909 498.152 171.118 499.336C170.327 500.52 169.203 501.443 167.887 501.988C166.571 502.533 165.124 502.675 163.727 502.397C162.33 502.12 161.047 501.434 160.04 500.427C159.034 499.42 158.348 498.137 158.07 496.74C157.792 495.344 157.935 493.896 158.48 492.58C159.025 491.265 159.948 490.14 161.132 489.349C162.316 488.558 163.708 488.136 165.132 488.136C167.041 488.136 168.873 488.894 170.223 490.245C171.573 491.595 172.332 493.426 172.332 495.336Z" fill="#263238"/>
<path d="M206.712 445.308H200.88C200.295 445.308 199.716 445.192 199.176 444.969C198.636 444.745 198.145 444.417 197.732 444.004C197.319 443.59 196.991 443.099 196.767 442.559C196.543 442.019 196.428 441.44 196.428 440.856V405.192H211.164V440.856C211.164 442.036 210.695 443.169 209.86 444.004C209.025 444.839 207.893 445.308 206.712 445.308Z" fill="#263238"/>
<path opacity="0.2" d="M206.712 445.308H200.88C200.295 445.308 199.716 445.192 199.176 444.969C198.636 444.745 198.145 444.417 197.732 444.004C197.319 443.59 196.991 443.099 196.767 442.559C196.543 442.019 196.428 441.44 196.428 440.856V405.192H211.164V440.856C211.164 442.036 210.695 443.169 209.86 444.004C209.025 444.839 207.893 445.308 206.712 445.308Z" fill="white"/>
<path d="M246.132 403.56H163.368C162.169 403.56 161.196 404.532 161.196 405.732V407.004C161.196 408.203 162.169 409.176 163.368 409.176H246.132C247.332 409.176 248.304 408.203 248.304 407.004V405.732C248.304 404.532 247.332 403.56 246.132 403.56Z" fill="#263238"/>
<path opacity="0.2" d="M235.355 495.336C235.355 496.76 235.778 498.152 236.569 499.336C237.36 500.52 238.485 501.443 239.8 501.988C241.116 502.533 242.563 502.675 243.96 502.397C245.357 502.12 246.64 501.434 247.647 500.427C248.654 499.42 249.339 498.137 249.617 496.74C249.895 495.344 249.752 493.896 249.207 492.58C248.662 491.265 247.74 490.14 246.556 489.349C245.372 488.558 243.979 488.136 242.555 488.136C240.646 488.136 238.815 488.894 237.464 490.245C236.114 491.595 235.355 493.426 235.355 495.336Z" fill="white"/>
<path opacity="0.2" d="M172.332 495.336C172.332 496.76 171.909 498.152 171.118 499.336C170.327 500.52 169.203 501.443 167.887 501.988C166.571 502.533 165.124 502.675 163.727 502.397C162.33 502.12 161.047 501.434 160.04 500.427C159.034 499.42 158.348 498.137 158.07 496.74C157.792 495.344 157.935 493.896 158.48 492.58C159.025 491.265 159.948 490.14 161.132 489.349C162.316 488.558 163.708 488.136 165.132 488.136C167.041 488.136 168.873 488.894 170.223 490.245C171.573 491.595 172.332 493.426 172.332 495.336Z" fill="white"/>
<path d="M175.2 234.612C175.2 234.612 177.3 227.868 186.108 226.644C194.916 225.42 205.644 228.384 207.828 232.056C210.012 235.728 208.332 239.34 211.272 240.552C214.212 241.764 218.4 244.752 217.584 247.752C216.768 250.752 213.804 256.836 217.068 258.024C220.332 259.212 222.384 264.024 220.956 266.424C219.528 268.824 219.012 271.8 220.644 272.64C222.276 273.48 224.244 275.124 222.888 277.62C221.532 280.116 220.236 280.464 222.276 282.588C224.316 284.712 220.788 289.488 220.788 289.488C220.788 289.488 173.676 295.092 167.988 290.16C162.3 285.228 165.84 280.872 167.064 279.576C168.288 278.28 165.252 278.784 164.832 273.888C164.412 268.992 167.376 268.272 167.988 265.404C168.6 262.536 165.588 259.788 167.58 257.004C169.572 254.22 170.208 252.66 168.78 249.732C167.352 246.804 167.112 234.816 175.2 234.612Z" fill="#263238"/>
<path d="M256.044 282.635L266.484 281.243L260.1 271.451C260.1 271.451 250.752 275.339 251.892 280.055L256.044 282.635Z" fill="#FFC3BD"/>
<path d="M274.608 274.68L266.256 268.128L260.1 271.452L266.484 281.244L274.608 274.68Z" fill="#FFC3BD"/>
<path d="M258.564 282.72C258.564 282.72 246.564 324.996 237.144 322.44C231.936 321.024 226.932 316.008 222.948 310.8C219.617 306.366 216.69 301.643 214.2 296.688V296.532L213 276.468C222.324 278.76 235.992 303.876 235.992 303.876L251.088 279.096L258.564 282.72Z" fill="#407BFF"/>
<path opacity="0.7" d="M211.2 305.1C202.512 297.264 192.877 290.548 182.52 285.108C183.472 284.988 184.432 284.892 185.4 284.82C191.975 284.124 198.592 283.899 205.2 284.148C206.844 284.244 208.524 284.376 210.18 284.52C214.32 293.916 211.2 305.1 211.2 305.1Z" fill="white"/>
<path d="M182.567 347.208C181.667 337.068 178.031 318.468 171.767 298.932C169.727 292.584 173.183 285.42 173.183 285.42C173.183 285.42 181.691 285.192 182.555 285.108C183.419 285.024 184.463 284.892 185.435 284.82C192.011 284.124 198.628 283.899 205.235 284.148C206.879 284.244 208.559 284.376 210.215 284.52C210.743 284.52 216.731 284.628 217.247 284.676C217.247 284.676 225.539 294.156 226.043 301.836C226.655 307.739 226.884 313.675 226.727 319.608C226.727 326.58 226.175 335.772 225.719 345.564L182.567 347.208Z" fill="#407BFF"/>
<path opacity="0.8" d="M182.567 347.208C181.667 337.068 178.031 318.468 171.767 298.932C169.727 292.584 173.183 285.42 173.183 285.42C173.183 285.42 181.691 285.192 182.555 285.108C183.419 285.024 184.463 284.892 185.435 284.82C192.011 284.124 198.628 283.899 205.235 284.148C206.879 284.244 208.559 284.376 210.215 284.52C210.743 284.52 216.731 284.628 217.247 284.676C217.247 284.676 225.539 294.156 226.043 301.836C226.655 307.739 226.884 313.675 226.727 319.608C226.727 326.58 226.175 335.772 225.719 345.564L182.567 347.208Z" fill="white"/>
<path d="M182.568 347.208L225.768 344.292C225.768 344.292 227.064 357.276 226.764 357.084C226.464 356.892 180.504 358.704 180.504 358.704L182.568 347.208Z" fill="#263238"/>
<path d="M182.963 347.927L225.731 345.563V349.619L182.567 351.911L182.963 347.927Z" fill="black"/>
<path d="M207.035 351.275C206.737 351.277 206.449 351.167 206.227 350.967C206.005 350.768 205.865 350.492 205.835 350.195L205.643 347.795C205.626 347.487 205.729 347.183 205.931 346.949C206.132 346.714 206.416 346.566 206.723 346.535L211.403 346.175C211.565 346.165 211.727 346.187 211.879 346.241C212.032 346.294 212.172 346.378 212.291 346.487C212.407 346.598 212.499 346.73 212.563 346.876C212.627 347.022 212.661 347.18 212.663 347.339V349.847C212.664 350.15 212.551 350.441 212.347 350.664C212.142 350.886 211.861 351.023 211.559 351.047L207.059 351.287L207.035 351.275ZM211.535 346.895L206.843 347.255C206.781 347.26 206.72 347.277 206.664 347.305C206.608 347.334 206.558 347.374 206.518 347.422C206.478 347.47 206.447 347.526 206.429 347.586C206.411 347.646 206.405 347.709 206.411 347.771L206.603 350.171C206.605 350.233 206.619 350.294 206.645 350.349C206.671 350.405 206.708 350.455 206.754 350.496C206.801 350.536 206.855 350.567 206.914 350.585C206.972 350.604 207.034 350.61 207.095 350.603L211.595 350.363C211.715 350.357 211.828 350.305 211.911 350.218C211.994 350.131 212.04 350.015 212.039 349.895V347.387C212.04 347.323 212.028 347.258 212.003 347.199C211.978 347.139 211.942 347.085 211.895 347.039C211.849 346.991 211.793 346.953 211.731 346.928C211.669 346.904 211.602 346.892 211.535 346.895Z" fill="white"/>
<path d="M228.408 354.407C216.924 353.267 202.008 352.343 182.568 351.911C182.568 351.911 168.084 386.027 185.256 396.215C190.452 399.299 199.02 400.523 208.452 400.715C211.048 400.776 213.631 400.317 216.048 399.366C218.466 398.415 220.668 396.99 222.527 395.176C224.386 393.362 225.864 391.194 226.874 388.801C227.884 386.408 228.405 383.837 228.408 381.239V354.407Z" fill="#263238"/>
<path d="M186.071 376.908L171.143 374.196L179.831 342.06C179.831 342.06 177.599 334.08 175.199 324.936C174.587 322.632 174 320.268 173.352 317.928C172.704 315.588 172.223 313.572 171.719 311.544C170.548 307.362 169.626 303.115 168.959 298.824C168.683 293.7 167.832 279.84 172.752 277.668C175.668 276.372 181.643 279.432 185.423 280.14C191.097 291.021 194.204 303.056 194.507 315.324C195.107 336.096 186.071 376.908 186.071 376.908Z" fill="#407BFF"/>
<path d="M200.256 280.62C200.256 280.62 214.2 282.36 220.14 312.06C222.54 324.06 228.252 375.456 228.252 375.456L231.492 373.836L226.992 343.2C226.992 343.2 228.612 307.704 227.352 300.42C226.092 293.136 219.708 277.344 213.06 276.42C210.36 276.108 200.256 280.62 200.256 280.62Z" fill="#407BFF"/>
<path d="M200.904 280.2L201.6 279.6C209.663 280.695 217.011 284.802 222.168 291.096L218.928 294.264L224.4 298.8L221.76 323.112C221.76 323.112 213.36 294.432 209.676 287.544C209.7 287.484 203.592 281.52 200.904 280.2Z" fill="#407BFF"/>
<path opacity="0.2" d="M200.904 280.2L201.552 279.672C209.614 280.736 216.968 284.83 222.12 291.12L218.88 294.288L224.4 298.8L221.76 323.112C221.76 323.112 213.36 294.432 209.676 287.544C209.7 287.484 203.592 281.52 200.904 280.2Z" fill="black"/>
<path d="M185.735 281.435C185.735 281.435 196.535 295.187 194.195 325.439L182.591 303.683L186.287 297.743L177.647 289.643C177.647 289.643 183.227 278.843 186.431 279.671L185.735 281.435Z" fill="#407BFF"/>
<path opacity="0.2" d="M185.735 281.435C185.735 281.435 196.535 295.187 194.195 325.439L182.591 303.683L186.287 297.743L177.647 289.643C177.647 289.643 183.227 278.843 186.431 279.671L185.735 281.435Z" fill="black"/>
<path d="M186.647 279.012C186.647 279.012 189.911 280.212 200.387 279.432C200.387 279.432 204.347 283.104 205.595 286.956C206.843 290.808 202.859 294.54 196.523 291.168C190.187 287.796 186.647 279.012 186.647 279.012Z" fill="#407BFF"/>
<path opacity="0.5" d="M186.647 279.012C186.647 279.012 189.911 280.212 200.387 279.432C200.387 279.432 204.347 283.104 205.595 286.956C206.843 290.808 202.859 294.54 196.523 291.168C190.187 287.796 186.647 279.012 186.647 279.012Z" fill="white"/>
<path d="M207.804 286.944L205.404 301.284L186.54 284.784C190.536 280.38 188.016 268.788 186.084 262.464L191.424 266.472L199.368 272.412C199.218 274.05 199.348 275.701 199.752 277.296C200.352 279.828 201.432 282.204 202.62 282.708L207.804 286.944Z" fill="#FFC3BD"/>
<path opacity="0.2" d="M199.752 277.295C196.584 276.587 192.432 273.311 191.76 270.095C191.502 268.913 191.389 267.704 191.424 266.495L199.368 272.435C199.221 274.065 199.351 275.708 199.752 277.295Z" fill="black"/>
<path d="M186.648 279.012C193.378 285.647 199.525 292.85 205.02 300.54C205.02 300.54 206.892 286.14 200.388 279.432L201.888 279.252C207.137 282.693 211.821 286.927 215.772 291.804L209.52 289.824L205.2 301.392L192.36 290.76L183.708 292.26C183.708 292.26 183.312 281.58 186.648 279.012Z" fill="#407BFF"/>
<path opacity="0.7" d="M186.648 279.012C193.378 285.647 199.525 292.85 205.02 300.54C205.02 300.54 206.892 286.14 200.388 279.432L201.888 279.252C207.137 282.693 211.821 286.927 215.772 291.804L209.52 289.824L205.2 301.392L192.36 290.76L183.708 292.26C183.708 292.26 183.312 281.58 186.648 279.012Z" fill="white"/>
<path d="M180.204 249.864C182.484 260.088 183.24 264.456 189.276 269.184C198.36 276.312 210.36 271.968 211.164 261.444C211.884 251.964 208.032 236.844 197.304 233.844C195.028 233.113 192.599 233.004 190.267 233.528C187.935 234.052 185.786 235.19 184.042 236.824C182.298 238.458 181.022 240.529 180.347 242.821C179.672 245.114 179.623 247.546 180.204 249.864Z" fill="#FFC3BD"/>
<path d="M193.403 251.136C193.559 252 194.135 252.648 194.687 252.588C195.239 252.528 195.575 251.784 195.419 250.92C195.263 250.056 194.687 249.396 194.123 249.456C193.559 249.516 193.199 250.272 193.403 251.136Z" fill="#263238"/>
<path d="M204.192 249.6C204.348 250.464 204.924 251.112 205.476 251.052C206.028 250.992 206.364 250.248 206.208 249.372C206.052 248.496 205.476 247.86 204.924 247.92C204.372 247.98 204 248.76 204.192 249.6Z" fill="#263238"/>
<path d="M204.684 248.028L206.616 247.212C206.616 247.212 205.86 248.94 204.684 248.028Z" fill="#263238"/>
<path d="M201.228 251.892C202.34 253.788 203.691 255.535 205.248 257.088C204.86 257.451 204.395 257.722 203.888 257.88C203.381 258.038 202.845 258.079 202.32 258L201.228 251.892Z" fill="#ED847E"/>
<path d="M194.148 242.903C194.017 242.939 193.904 243.025 193.836 243.143C193.562 243.701 193.153 244.182 192.646 244.543C192.139 244.903 191.55 245.131 190.932 245.207C190.867 245.21 190.804 245.226 190.746 245.255C190.688 245.283 190.636 245.324 190.594 245.374C190.552 245.423 190.521 245.481 190.503 245.543C190.485 245.605 190.48 245.671 190.488 245.735C190.503 245.872 190.57 245.998 190.675 246.087C190.78 246.176 190.915 246.222 191.052 246.215C191.838 246.135 192.592 245.858 193.242 245.409C193.892 244.96 194.419 244.354 194.772 243.647C194.827 243.524 194.833 243.385 194.788 243.257C194.744 243.13 194.652 243.025 194.532 242.963C194.416 242.897 194.279 242.876 194.148 242.903Z" fill="#263238"/>
<path d="M203.783 240.551C203.721 240.545 203.658 240.551 203.598 240.57C203.539 240.588 203.483 240.619 203.435 240.659C203.342 240.755 203.289 240.885 203.289 241.019C203.289 241.154 203.342 241.283 203.435 241.379C203.957 242.02 204.619 242.532 205.37 242.875C206.121 243.218 206.942 243.384 207.767 243.359C207.832 243.354 207.896 243.334 207.953 243.303C208.01 243.271 208.06 243.228 208.1 243.176C208.139 243.124 208.168 243.065 208.183 243.001C208.198 242.937 208.199 242.871 208.187 242.807C208.156 242.679 208.079 242.567 207.971 242.492C207.862 242.417 207.73 242.384 207.599 242.399C206.945 242.408 206.297 242.267 205.704 241.989C205.112 241.71 204.59 241.301 204.179 240.791C204.134 240.725 204.075 240.67 204.007 240.629C203.939 240.587 203.863 240.561 203.783 240.551Z" fill="#263238"/>
<path d="M193.896 249.528L195.828 248.712C195.828 248.712 195.072 250.452 193.896 249.528Z" fill="#263238"/>
<path d="M185.448 255.792C185.448 255.792 190.476 248.472 186.648 237.636C186.648 237.636 198.012 232.116 206.616 240.528C206.616 240.528 198.612 226.488 181.884 233.208C165.156 239.928 177.768 256.008 179.844 257.34C181.92 258.672 185.448 255.792 185.448 255.792Z" fill="#263238"/>
<path d="M178.163 258.707C179.504 260.481 181.494 261.65 183.695 261.959C186.527 262.295 187.295 259.439 186.095 256.823C184.895 254.423 182.063 251.435 179.471 252.323C176.879 253.211 176.399 256.463 178.163 258.707Z" fill="#FFC3BD"/>
<path d="M202.332 262.8C202.285 262.8 202.238 262.79 202.195 262.772C202.151 262.753 202.112 262.726 202.08 262.692C201.257 261.93 200.273 261.362 199.201 261.032C198.129 260.702 196.997 260.617 195.888 260.784C195.843 260.792 195.797 260.792 195.752 260.783C195.707 260.774 195.664 260.756 195.627 260.73C195.589 260.705 195.556 260.672 195.531 260.634C195.506 260.595 195.488 260.553 195.48 260.508C195.466 260.416 195.488 260.322 195.541 260.246C195.595 260.17 195.676 260.117 195.768 260.1C196.99 259.902 198.241 259.99 199.423 260.357C200.606 260.723 201.687 261.358 202.584 262.212C202.649 262.277 202.686 262.365 202.686 262.458C202.686 262.55 202.649 262.638 202.584 262.704C202.551 262.737 202.512 262.763 202.468 262.779C202.425 262.796 202.378 262.803 202.332 262.8Z" fill="#263238"/>
<path opacity="0.2" d="M173.304 317.928C172.728 315.732 172.176 313.572 171.672 311.544C174.432 308.22 175.896 293.976 175.896 293.976C175.896 293.976 177.816 311.34 173.304 317.928Z" fill="black"/>
<path d="M138.072 283.835L127.632 282.443L134.016 272.651C134.016 272.651 143.364 276.791 142.236 281.519L138.072 283.835Z" fill="#FFC3BD"/>
<path d="M119.508 275.879L127.86 269.327L134.016 272.651L127.632 282.443L119.508 275.879Z" fill="#FFC3BD"/>
<path d="M135.6 283.92C135.6 283.92 147.6 326.196 157.02 323.64C162.24 322.224 167.232 317.208 171.216 312C174.375 307.878 176.44 303.023 177.216 297.888L172.788 277.668C167.172 278.868 158.16 305.076 158.16 305.076L143.052 280.296L135.6 283.92Z" fill="#407BFF"/>
<path d="M190.884 382.512V398.544C205.164 402.66 234.816 401.088 252.444 399.66C256.272 399.346 259.842 397.603 262.444 394.777C265.045 391.951 266.488 388.249 266.484 384.408V371.208C266.486 369.081 265.839 367.004 264.63 365.254C263.421 363.505 261.706 362.166 259.716 361.416C251.172 358.2 235.62 353.412 219.348 353.664C211.76 353.752 204.513 356.832 199.183 362.234C193.853 367.636 190.871 374.923 190.884 382.512Z" fill="#263238"/>
<path d="M264.984 428.867C259.788 442.907 253.788 460.487 247.38 482.675C247.26 483.083 247.14 483.491 247.032 483.875C246.924 484.259 246.78 484.727 246.66 485.159L240 483.599L237.504 482.987C237.504 482.987 237.612 482.003 237.816 480.263C237.816 479.903 237.9 479.519 237.936 479.063C239.724 463.583 246.588 406.775 253.404 394.979C253.404 394.979 245.688 396.407 239.832 395.423C235.62 394.715 230.508 365.531 230.508 365.531C237.624 363.597 244.951 362.545 252.324 362.399H252.48C252.48 362.399 277.176 366.275 281.28 372.347C286.392 379.823 278.472 392.399 264.984 428.867Z" fill="#FFC3BD"/>
<path d="M256.416 502.5L240.912 495.66L236.016 490.188L234.492 492.252L232.644 491.448C231.78 484.56 235.116 481.344 236.88 479.88C237 479.772 237.18 479.64 237.396 479.484C237.456 479.422 237.525 479.369 237.6 479.328L237.684 479.268L237.924 479.088L238.068 479.004L246.576 482.76C246.576 482.76 246.72 483.204 246.984 483.96C247.836 486.36 249.936 491.82 252.264 494.76C252.36 494.88 252.456 495.012 252.552 495.12C252.816 495.431 253.105 495.72 253.416 495.984C259.992 501.12 256.416 502.5 256.416 502.5Z" fill="#407BFF"/>
<path d="M252.6 495.024C250.2 495.972 246.756 493.572 244.2 490.44C242.61 488.282 241.205 485.994 240 483.6C239.421 482.398 238.686 481.276 237.816 480.264C237.456 479.94 237.12 479.808 236.832 479.94C236.952 479.832 237.132 479.7 237.348 479.544C237.409 479.484 237.478 479.431 237.552 479.388L237.636 479.328L237.876 479.148L238.02 479.064C238.908 478.392 239.904 477.708 239.904 477.708L246.744 480.732C246.744 480.732 246.936 481.536 247.284 482.772C248.172 485.94 250.056 491.952 252.216 494.772C252.408 494.784 252.504 494.916 252.6 495.024Z" fill="#FFC3BD"/>
<path opacity="0.1" d="M264.984 428.867C259.788 442.907 253.788 460.487 247.38 482.675C248.268 485.843 250.152 491.855 252.312 494.675C252.408 494.795 252.504 494.927 252.6 495.035C252.864 495.347 253.153 495.636 253.464 495.899C259.992 501.131 256.416 502.511 256.416 502.511L240.912 495.671L236.016 490.199L234.492 492.263L232.644 491.459C231.78 484.571 235.116 481.355 236.88 479.891C237 479.783 237.18 479.651 237.396 479.495C237.456 479.433 237.524 479.381 237.6 479.339L237.684 479.279L237.924 479.099C239.712 463.619 246.576 406.811 253.392 395.015C253.392 395.015 245.676 396.443 239.82 395.459C235.608 394.751 230.496 365.567 230.496 365.567C237.615 363.62 244.946 362.556 252.324 362.399H252.48C252.48 362.399 249.876 362.651 246.336 367.091C246.336 367.091 260.736 369.779 264.684 377.411C266.256 380.531 265.932 403.091 264.984 428.867Z" fill="black"/>
<path d="M230.532 365.52C230.532 365.52 255.24 369.396 259.332 375.456C266.448 385.896 253.632 406.416 230.256 488.256L221.136 486.024C221.136 486.024 223.536 411.744 231.456 398.052C231.456 398.052 223.74 399.48 217.896 398.496C210.408 397.2 205.668 372.168 230.532 365.52Z" fill="#FFC3BD"/>
<path d="M219.684 501.983H221.712L222.264 499.487L228.96 502.511H245.904C245.904 502.511 248.604 499.799 240.528 497.639C240.133 497.533 239.751 497.384 239.388 497.195C235.08 495.179 228.96 488.363 228.96 488.363H219.66C219.377 488.795 219.12 489.244 218.892 489.707C217.872 491.747 216.12 496.043 219.684 501.983Z" fill="#407BFF"/>
<path d="M218.892 489.707C220.092 488.339 225.708 494.351 229.8 496.403C233.46 498.227 237.564 499.031 239.4 497.171C235.092 495.155 228.324 486.371 228.324 486.371H220.8C220.8 486.371 219.336 488.831 218.892 489.707Z" fill="#FFC3BD"/>
<g opacity="0.3">
<path d="M380.292 337.775V498.575C380.292 499.084 380.392 499.587 380.587 500.057C380.782 500.527 381.068 500.953 381.428 501.312C381.788 501.671 382.215 501.955 382.686 502.149C383.156 502.342 383.66 502.441 384.168 502.439H459.18C459.372 502.439 459.563 502.402 459.74 502.328C459.918 502.254 460.079 502.147 460.215 502.011C460.351 501.875 460.459 501.713 460.533 501.536C460.606 501.358 460.644 501.168 460.644 500.975V496.175C460.644 495.786 460.49 495.412 460.216 495.136C459.942 494.859 459.569 494.703 459.18 494.699H388.032V341.639H457.968C458.321 341.638 458.67 341.567 458.996 341.43C459.321 341.294 459.617 341.094 459.865 340.844C460.114 340.593 460.31 340.296 460.444 339.969C460.578 339.642 460.646 339.292 460.644 338.939V333.899H384.168C383.659 333.898 383.154 333.997 382.683 334.191C382.212 334.385 381.784 334.671 381.424 335.031C381.063 335.391 380.778 335.819 380.584 336.29C380.39 336.761 380.29 337.266 380.292 337.775Z" fill="white"/>
</g>
<path opacity="0.2" d="M380.292 337.775V378.791C382.868 379.447 385.448 380.079 388.032 380.687V341.639H457.968C458.321 341.638 458.67 341.567 458.996 341.43C459.321 341.294 459.617 341.094 459.865 340.844C460.114 340.593 460.31 340.296 460.444 339.969C460.578 339.642 460.646 339.292 460.644 338.939V333.899H384.168C383.659 333.898 383.154 333.997 382.683 334.191C382.212 334.385 381.784 334.671 381.424 335.031C381.063 335.391 380.778 335.819 380.584 336.29C380.39 336.761 380.29 337.266 380.292 337.775Z" fill="black"/>
<path d="M371.544 322.859L370.584 319.271H331.5L313.5 321.059L312.816 322.859H371.544Z" fill="#263238"/>
<path opacity="0.5" d="M371.544 322.859L370.584 319.271H331.5L313.5 321.059L312.816 322.859H371.544Z" fill="white"/>
<path opacity="0.2" d="M331.5 319.271V322.859H371.544L370.584 319.271H331.5Z" fill="black"/>
<path d="M344.725 296.124C344.66 296.684 344.715 297.251 344.887 297.788C345.059 298.325 345.344 298.819 345.722 299.237C346.1 299.655 346.563 299.988 347.081 300.212C347.598 300.437 348.157 300.548 348.721 300.54H425.677C426.876 300.509 428.023 300.045 428.905 299.233C429.788 298.42 430.346 297.316 430.477 296.124L435.049 246.852C435.099 246.369 435.063 245.881 434.941 245.412C434.728 244.546 434.227 243.779 433.521 243.236C432.814 242.692 431.944 242.406 431.053 242.424H354.121C352.919 242.452 351.769 242.917 350.886 243.732C350.002 244.547 349.446 245.656 349.321 246.852L344.725 296.124Z" fill="#263238"/>
<path opacity="0.5" d="M344.725 296.124C344.66 296.684 344.715 297.251 344.887 297.788C345.059 298.325 345.344 298.819 345.722 299.237C346.1 299.655 346.563 299.988 347.081 300.212C347.598 300.437 348.157 300.548 348.721 300.54H425.677C426.876 300.509 428.023 300.045 428.905 299.233C429.788 298.42 430.346 297.316 430.477 296.124L435.049 246.852C435.099 246.369 435.063 245.881 434.941 245.412C434.728 244.546 434.227 243.779 433.521 243.236C432.814 242.692 431.944 242.406 431.053 242.424H354.121C352.919 242.452 351.769 242.917 350.886 243.732C350.002 244.547 349.446 245.656 349.321 246.852L344.725 296.124Z" fill="white"/>
<path opacity="0.1" d="M348.985 300.539H425.677C426.876 300.508 428.023 300.044 428.906 299.232C429.788 298.42 430.347 297.315 430.477 296.123L435.049 246.851C435.1 246.369 435.063 245.881 434.941 245.411H358.261C357.061 245.445 355.914 245.912 355.031 246.726C354.149 247.54 353.591 248.646 353.461 249.839L348.889 299.099C348.841 299.581 348.873 300.068 348.985 300.539Z" fill="black"/>
<path d="M401.857 270.323H385.945L390.181 315.911L365.005 319.691V322.859H418.033V319.691L407.173 315.911L401.857 270.323Z" fill="#263238"/>
<path opacity="0.5" d="M401.857 270.323H385.945L390.181 315.911L365.005 319.691V322.859H418.033V319.691L407.173 315.911L401.857 270.323Z" fill="white"/>
<path opacity="0.2" d="M385.944 270.323L397.74 322.139L407.172 321.851L401.856 270.323H385.944Z" fill="white"/>
<path d="M274.537 502.511H349.549C349.94 502.511 350.316 502.356 350.593 502.079C350.869 501.802 351.025 501.427 351.025 501.035V496.235C351.025 496.042 350.987 495.85 350.912 495.671C350.838 495.492 350.73 495.329 350.593 495.192C350.455 495.055 350.293 494.946 350.114 494.872C349.935 494.798 349.743 494.759 349.549 494.759H278.401V341.627H348.325C348.677 341.629 349.027 341.561 349.353 341.427C349.679 341.293 349.975 341.097 350.225 340.848C350.475 340.599 350.673 340.304 350.808 339.978C350.943 339.653 351.013 339.304 351.013 338.951V333.899H274.537C273.512 333.899 272.529 334.307 271.805 335.031C271.08 335.756 270.673 336.739 270.673 337.763V498.635C270.673 499.661 271.08 500.645 271.804 501.372C272.528 502.098 273.511 502.508 274.537 502.511Z" fill="#263238"/>
<g opacity="0.4">
<path d="M274.537 502.511H349.549C349.94 502.511 350.316 502.356 350.593 502.079C350.869 501.802 351.025 501.427 351.025 501.035V496.235C351.025 496.042 350.987 495.85 350.912 495.671C350.838 495.492 350.73 495.329 350.593 495.192C350.455 495.055 350.293 494.946 350.114 494.872C349.935 494.798 349.743 494.759 349.549 494.759H278.401V341.627H348.325C348.677 341.629 349.027 341.561 349.353 341.427C349.679 341.293 349.975 341.097 350.225 340.848C350.475 340.599 350.673 340.304 350.808 339.978C350.943 339.653 351.013 339.304 351.013 338.951V333.899H274.537C273.512 333.899 272.529 334.307 271.805 335.031C271.08 335.756 270.673 336.739 270.673 337.763V498.635C270.673 499.661 271.08 500.645 271.804 501.372C272.528 502.098 273.511 502.508 274.537 502.511Z" fill="white"/>
</g>
<path d="M465.181 326.592V332.844C465.166 333.46 464.914 334.046 464.479 334.482C464.043 334.917 463.457 335.169 462.841 335.184H264.757C264.45 335.184 264.146 335.123 263.863 335.005C263.58 334.888 263.323 334.715 263.106 334.498C262.89 334.28 262.719 334.022 262.602 333.738C262.486 333.455 262.427 333.151 262.429 332.844V326.592H465.181Z" fill="#407BFF"/>
<path opacity="0.2" d="M262.429 330.888H465.181V326.592H262.429V330.888Z" fill="black"/>
<path d="M471.852 325.283C471.852 325.92 471.599 326.53 471.149 326.98C470.699 327.431 470.089 327.683 469.452 327.683H258.252C257.933 327.685 257.618 327.624 257.323 327.502C257.028 327.38 256.761 327.201 256.536 326.975C256.413 326.855 256.308 326.718 256.224 326.567C255.968 326.179 255.831 325.725 255.828 325.259C255.828 324.623 256.081 324.012 256.531 323.562C256.981 323.112 257.592 322.859 258.228 322.859H469.428C470.065 322.859 470.675 323.112 471.125 323.562C471.575 324.012 471.828 324.623 471.828 325.259L471.852 325.283Z" fill="#407BFF"/>
<path opacity="0.2" d="M360.732 323.567C360.508 323.341 360.24 323.162 359.946 323.041C359.651 322.919 359.335 322.858 359.016 322.859H258.216C257.58 322.859 256.969 323.112 256.519 323.562C256.069 324.012 255.816 324.623 255.816 325.259C255.819 325.725 255.956 326.179 256.212 326.567C256.296 326.718 256.401 326.856 256.524 326.975C256.749 327.201 257.017 327.38 257.311 327.502C257.606 327.624 257.922 327.685 258.24 327.683H262.488V332.819C262.487 333.126 262.546 333.43 262.662 333.714C262.778 333.998 262.95 334.256 263.166 334.473C263.382 334.691 263.64 334.863 263.923 334.981C264.206 335.099 264.51 335.159 264.816 335.159H352.44C352.747 335.159 353.051 335.099 353.334 334.981C353.617 334.863 353.875 334.691 354.091 334.473C354.307 334.256 354.478 333.998 354.595 333.714C354.711 333.43 354.77 333.126 354.768 332.819V327.683H359.016C359.425 327.688 359.828 327.587 360.187 327.392C360.546 327.197 360.85 326.913 361.068 326.567C361.371 326.102 361.502 325.547 361.441 324.995C361.38 324.444 361.129 323.931 360.732 323.543V323.567Z" fill="white"/>
<path d="M380.292 337.775V498.575C380.292 499.084 380.392 499.587 380.587 500.057C380.782 500.527 381.068 500.953 381.428 501.312C381.788 501.671 382.215 501.955 382.686 502.149C383.156 502.342 383.66 502.441 384.168 502.439H459.18C459.372 502.439 459.563 502.402 459.74 502.328C459.918 502.254 460.079 502.147 460.215 502.011C460.351 501.875 460.459 501.713 460.533 501.536C460.606 501.358 460.644 501.168 460.644 500.975V496.175C460.644 495.786 460.49 495.412 460.216 495.136C459.942 494.859 459.569 494.703 459.18 494.699H388.032V341.639H457.968C458.321 341.638 458.67 341.567 458.996 341.43C459.321 341.294 459.617 341.094 459.865 340.844C460.114 340.593 460.31 340.296 460.444 339.969C460.578 339.642 460.646 339.292 460.644 338.939V333.899H384.168C383.659 333.898 383.154 333.997 382.683 334.191C382.212 334.385 381.784 334.671 381.424 335.031C381.063 335.391 380.778 335.819 380.584 336.29C380.39 336.761 380.29 337.266 380.292 337.775Z" fill="#263238"/>
</svg>
