<svg width="40" height="40" viewBox="0 0 40 40" fill="none" xmlns="http://www.w3.org/2000/svg">
<path d="M29.7168 21.233C29.2501 20.283 27.9334 19.483 26.1834 20.833C23.8001 22.733 20.0001 22.733 20.0001 22.733C20.0001 22.733 16.2001 22.733 13.8168 20.833C12.0668 19.483 10.7501 20.283 10.2834 21.233C9.45008 22.8997 10.3834 23.7163 12.5001 25.0663C14.3168 26.233 16.8001 26.6663 18.4001 26.833L17.0668 28.1663C15.1668 30.0497 13.3334 31.8663 12.0834 33.133C11.3334 33.8997 11.3334 35.1163 12.0834 35.833L12.3168 36.0997C13.0668 36.8497 14.3001 36.8497 15.0501 36.0997L20.0001 31.133C21.9168 33.0163 23.7334 34.833 25.0001 36.0997C25.7501 36.8497 26.9667 36.8497 27.7334 36.0997L27.9501 35.833C28.7168 35.1163 28.7168 33.8997 27.9501 33.133L22.9834 28.1663L21.6668 26.8163C23.2501 26.6663 25.7001 26.2163 27.5001 25.0663C29.6168 23.7163 30.5501 22.8997 29.7168 21.233ZM20.0001 7.61634C22.3001 7.61634 24.1668 9.48301 24.1668 11.7663C24.1668 14.0663 22.3001 15.9163 20.0001 15.9163C17.7001 15.9163 15.8334 14.0663 15.8334 11.7663C15.8334 9.48301 17.7001 7.61634 20.0001 7.61634ZM20.0001 20.1997C24.6668 20.1997 28.4334 16.433 28.4334 11.7663C28.4334 9.52968 27.5449 7.38463 25.9634 5.80307C24.3818 4.22152 22.2367 3.33301 20.0001 3.33301C17.7634 3.33301 15.6184 4.22152 14.0368 5.80307C12.4553 7.38463 11.5668 9.52968 11.5668 11.7663C11.5668 16.433 15.3334 20.1997 20.0001 20.1997Z" fill="white"/>
</svg>
