<svg width="40" height="40" viewBox="0 0 40 40" fill="none" xmlns="http://www.w3.org/2000/svg">
<g clip-path="url(#clip0_311_6680)">
<path fill-rule="evenodd" clip-rule="evenodd" d="M39.0833 9.91301C39.36 9.00301 39.0833 8.33301 37.7583 8.33301H33.3833C32.27 8.33301 31.7567 8.91134 31.4783 9.54967C31.4783 9.54967 29.2533 14.8763 26.1017 18.3363C25.0817 19.3397 24.6183 19.658 24.0617 19.658C23.7833 19.658 23.365 19.3397 23.365 18.428V9.91301C23.365 8.81967 23.0583 8.33301 22.1317 8.33301H15.2517C14.5567 8.33301 14.1383 8.83967 14.1383 9.32134C14.1383 10.3563 15.715 10.5963 15.8767 13.5097V19.8397C15.8767 21.228 15.6217 21.4797 15.065 21.4797C13.5817 21.4797 9.97333 16.128 7.83167 10.0047C7.41667 8.81301 6.99667 8.33301 5.87833 8.33301H1.5C0.25 8.33301 0 8.91134 0 9.54967C0 10.6863 1.48333 16.333 6.90833 23.8013C10.525 28.9013 15.6167 31.6663 20.255 31.6663C23.0367 31.6663 23.38 31.053 23.38 29.9947V26.1397C23.38 24.9113 23.6433 24.6663 24.525 24.6663C25.175 24.6663 26.2867 24.9863 28.8833 27.4447C31.85 30.3597 32.3383 31.6663 34.0083 31.6663H38.3833C39.6333 31.6663 40.26 31.053 39.9 29.8397C39.5033 28.633 38.0867 26.8813 36.2083 24.803C35.1883 23.6197 33.6583 22.3447 33.1933 21.7063C32.545 20.888 32.73 20.523 33.1933 19.7947C33.1933 19.7947 38.5267 12.418 39.0817 9.91301" fill="white"/>
</g>
<defs>
<clipPath id="clip0_311_6680">
<rect width="40" height="40" fill="white"/>
</clipPath>
</defs>
</svg>
