<svg width="40" height="40" viewBox="0 0 40 40" fill="none" xmlns="http://www.w3.org/2000/svg">
<path d="M19.9899 3.33301C16.6936 3.33301 13.4712 4.31049 10.7304 6.14185C7.98959 7.9732 5.85338 10.5762 4.59192 13.6216C3.33046 16.6671 3.00041 20.0182 3.6435 23.2512C4.28658 26.4842 5.87393 29.4539 8.2048 31.7848C10.5357 34.1157 13.5054 35.703 16.7384 36.3461C19.9714 36.9892 23.3225 36.6591 26.368 35.3977C29.4134 34.1362 32.0164 32 33.8477 29.2592C35.6791 26.5184 36.6566 23.296 36.6566 19.9997C36.6566 17.811 36.2255 15.6437 35.3879 13.6216C34.5503 11.5995 33.3227 9.7622 31.775 8.21456C30.2274 6.66692 28.3901 5.43926 26.368 4.60168C24.3459 3.7641 22.1786 3.33301 19.9899 3.33301ZM25.2899 28.5863C25.2277 28.742 25.1329 28.8826 25.0119 28.9987C24.8909 29.1147 24.7464 29.2035 24.5882 29.2591C24.43 29.3146 24.2617 29.3357 24.0947 29.3209C23.9277 29.306 23.7658 29.2556 23.6199 29.173L19.0949 25.6563L16.1916 28.3363C16.1242 28.3861 16.0454 28.4181 15.9624 28.4295C15.8794 28.4408 15.7949 28.4312 15.7166 28.4013L16.2732 23.4197L16.2899 23.4347L16.3016 23.3363C16.3016 23.3363 24.4432 15.923 24.7749 15.608C25.1116 15.293 24.9999 15.2247 24.9999 15.2247C25.0199 14.8413 24.3982 15.2247 24.3982 15.2247L13.6099 22.1647L9.11825 20.6347C9.11825 20.6347 8.42825 20.388 8.36325 19.843C8.29492 19.303 9.13992 19.0097 9.13992 19.0097L27.0016 11.913C27.0016 11.913 28.4699 11.2597 28.4699 12.343L25.2899 28.5863Z" fill="white"/>
</svg>
