<svg width="36" height="36" viewBox="0 0 36 36" fill="none" xmlns="http://www.w3.org/2000/svg">
<path d="M15.1546 31.1248H20.988C20.988 32.729 19.6755 34.0415 18.0713 34.0415C16.4671 34.0415 15.1546 32.729 15.1546 31.1248ZM31.1963 28.2082V29.6665H4.94629V28.2082L7.86296 25.2915V16.5415C7.86296 12.0207 10.7796 8.08317 15.1546 6.77067V6.33317C15.1546 4.729 16.4671 3.4165 18.0713 3.4165C19.6755 3.4165 20.988 4.729 20.988 6.33317V6.77067C25.363 8.08317 28.2796 12.0207 28.2796 16.5415V25.2915L31.1963 28.2082ZM25.363 16.5415C25.363 12.4582 22.1546 9.24984 18.0713 9.24984C13.988 9.24984 10.7796 12.4582 10.7796 16.5415V26.7498H25.363V16.5415Z" fill="white"/>
</svg>
